<?xml version="1.0" encoding="UTF-8"?>
<svg width="24px" height="24px" viewBox="0 0 24 24" version="1.1" xmlns="http://www.w3.org/2000/svg" xmlns:xlink="http://www.w3.org/1999/xlink">
    <title>01 - Particles/03 - Icon/02 - Essentials/05 - Communications/Add Contact</title>
    <g id="01---Particles/03---Icon/02---Essentials/05---Communications/Add-Contact" stroke="none" stroke-width="1" fill="none" fill-rule="evenodd">
        <path d="M12.833374,13 C14.5793457,13 16,14.4206543 16,16.166626 L16,16.166626 L16,18.5 C16,18.776001 15.776001,19 15.5,19 L15.5,19 L4.5,19 C4.22399903,19 4,18.776001 4,18.5 L4,18.5 L4,16.166626 C4,14.4206543 5.42065431,13 7.16662597,13 L7.16662597,13 Z M10,5 C11.8409424,5 13.333374,6.49243162 13.333374,8.33337403 C13.333374,10.1743164 11.8409424,11.666626 10,11.666626 C8.15905762,11.666626 6.66662597,10.1743164 6.66662597,8.33337403 C6.66662597,6.49243162 8.15905762,5 10,5 Z M17.75,5 C18.1642136,5 18.5,5.33578644 18.5,5.75 L18.5,6.749 L19.5,6.75 C19.9142136,6.75 20.25,7.08578644 20.25,7.5 C20.25,7.91421356 19.9142136,8.25 19.5,8.25 L18.5,8.25 L18.5,9.25 C18.5,9.66421356 18.1642136,10 17.75,10 C17.3357864,10 17,9.66421356 17,9.25 L17,8.25 L16,8.25 C15.5857864,8.25 15.25,7.91421356 15.25,7.5 C15.25,7.08578644 15.5857864,6.75 16,6.75 L17,6.75 L17,5.75 C17,5.33578644 17.3357864,5 17.75,5 Z" id="Combined-Shape" fill="#1A2226"></path>
    </g>
</svg>