<?xml version="1.0" encoding="UTF-8"?>
<svg width="24px" height="24px" viewBox="0 0 24 24" version="1.1" xmlns="http://www.w3.org/2000/svg" xmlns:xlink="http://www.w3.org/1999/xlink">
    <title>add-reaction</title>
    <g id="01---Particles/03---Icon/04---Others/Smiley/0---Add-reaction" stroke="none" stroke-width="1" fill="nonzero" fill-rule="evenodd">
        <path d="M11.5,5 C12.2824156,5 13.0368484,5.11980904 13.745953,5.3420819 C13.2781023,5.9363018 13,6.68567376 13,7.5 C13,9.43299662 14.5670034,11 16.5,11 C17.3143262,11 18.0636982,10.7218977 18.6583216,10.2554873 C18.880191,10.9631516 19,11.7175844 19,12.5 C19,16.5609173 15.7725256,19.8680175 11.7427311,19.9961464 L11.5,20 C7.35786438,20 4,16.6421356 4,12.5 C4,8.35786438 7.35786438,5 11.5,5 Z M11.3295454,14.8863636 C9.94417691,14.8863637 8.0909091,15.038444 8.09090909,15.3661952 C8.0909091,16.0502509 9.10021553,16.7549521 9.92207568,16.9987626 C10.7439358,17.242573 12.1593902,17.2233869 12.778091,16.9987626 C13.3967917,16.7741382 14.5681816,16.1463889 14.5681818,15.3661952 C14.5681816,15.0343387 12.7149138,14.8863636 11.3295454,14.8863636 Z M8.60227273,10.7954545 C7.94329661,10.7954545 7.40909091,11.3296602 7.40909091,11.9886364 C7.40909091,12.1350755 7.52780329,12.2537879 7.67424242,12.2537879 C7.82068156,12.2537879 7.93939394,12.1350755 7.93939394,11.9886364 C7.93939394,11.6225385 8.23617488,11.3257576 8.60227273,11.3257576 C8.96837057,11.3257576 9.26515152,11.6225385 9.26515152,11.9886364 C9.26515152,12.1350755 9.38386389,12.2537879 9.53030303,12.2537879 C9.67674217,12.2537879 9.79545455,12.1350755 9.79545455,11.9886364 C9.79545455,11.3296602 9.26124885,10.7954545 8.60227273,10.7954545 Z M14.3977273,10.7954545 C13.7387512,10.7954545 13.2045455,11.3296602 13.2045455,11.9886364 C13.2045455,12.1350755 13.3232578,12.2537879 13.469697,12.2537879 C13.6161361,12.2537879 13.7348485,12.1350755 13.7348485,11.9886364 C13.7348485,11.6225385 14.0316294,11.3257576 14.3977273,11.3257576 C14.7638251,11.3257576 15.0606061,11.6225385 15.0606061,11.9886364 C15.0606061,12.1350755 15.1793184,12.2537879 15.3257576,12.2537879 C15.4721967,12.2537879 15.5909091,12.1350755 15.5909091,11.9886364 C15.5909091,11.3296602 15.0567034,10.7954545 14.3977273,10.7954545 Z M16.75,4.7 C17.1642136,4.7 17.5,5.03578644 17.5,5.45 L17.5,6.499 L18.5,6.5 C18.9142136,6.5 19.25,6.83578644 19.25,7.25 C19.25,7.66421356 18.9142136,8 18.5,8 L17.5,7.999 L17.5,8.95 C17.5,9.36421356 17.1642136,9.7 16.75,9.7 C16.3357864,9.7 16,9.36421356 16,8.95 L16,7.999 L15,8 C14.5857864,8 14.25,7.66421356 14.25,7.25 C14.25,6.83578644 14.5857864,6.5 15,6.5 L16,6.499 L16,5.45 C16,5.03578644 16.3357864,4.7 16.75,4.7 Z" id="Combined-Shape" fill="nonzero"></path>
    </g>
</svg>