<?xml version="1.0" encoding="UTF-8"?>
<svg width="24px" height="24px" viewBox="0 0 24 24" version="1.1" xmlns="http://www.w3.org/2000/svg" xmlns:xlink="http://www.w3.org/1999/xlink">
    <title>add</title>
    <g id="01---Particles/03---Icon/02---Essentials/03---Actions/Add" stroke="none" stroke-width="1" fill="none" fill-rule="evenodd">
        <path d="M13.1428571,10.8571429 L18.8898626,10.8571429 C19.1398611,10.8571429 19.331884,10.9031136 19.493295,10.9894372 C19.6547059,11.0757607 19.7813822,11.2024369 19.8677057,11.3638479 C19.9540292,11.5252588 20,11.7172817 20,11.9672803 L20,12.0327197 C20,12.2827183 19.9540292,12.4747412 19.8677057,12.6361521 C19.7813822,12.7975631 19.6547059,12.9242393 19.493295,13.0105628 C19.331884,13.0968864 19.1398611,13.1428571 18.8898626,13.1428571 L13.1428571,13.1428571 L13.1428571,18.8898626 C13.1428571,19.1398611 13.0968864,19.331884 13.0105628,19.493295 C12.9242393,19.6547059 12.7975631,19.7813822 12.6361521,19.8677057 C12.4747412,19.9540292 12.2827183,20 12.0327197,20 L11.9672803,20 C11.7172817,20 11.5252588,19.9540292 11.3638479,19.8677057 C11.2024369,19.7813822 11.0757607,19.6547059 10.9894372,19.493295 C10.9031136,19.331884 10.8571429,19.1398611 10.8571429,18.8898626 L10.8571429,13.1428571 L5.11013744,13.1428571 C4.86013888,13.1428571 4.66811596,13.0968864 4.50670501,13.0105628 C4.34529407,12.9242393 4.21861782,12.7975631 4.1322943,12.6361521 C4.04597078,12.4747412 4,12.2827183 4,12.0327197 L4,11.9672803 C4,11.7172817 4.04597078,11.5252588 4.1322943,11.3638479 C4.21861782,11.2024369 4.34529407,11.0757607 4.50670501,10.9894372 C4.66811596,10.9031136 4.86013888,10.8571429 5.11013744,10.8571429 L10.8571429,10.8571429 L10.8571429,5.11013744 C10.8571429,4.86013888 10.9031136,4.66811596 10.9894372,4.50670501 C11.0757607,4.34529407 11.2024369,4.21861782 11.3638479,4.1322943 C11.5252588,4.04597078 11.7172817,4 11.9672803,4 L12.0327197,4 C12.2827183,4 12.4747412,4.04597078 12.6361521,4.1322943 C12.7975631,4.21861782 12.9242393,4.34529407 13.0105628,4.50670501 C13.0968864,4.66811596 13.1428571,4.86013888 13.1428571,5.11013744 L13.1428571,10.8571429 Z" id="Style" fill="#1A2226"></path>
    </g>
</svg>