<?xml version="1.0" encoding="UTF-8"?>
<svg width="24px" height="24px" viewBox="0 0 24 24" version="1.1" xmlns="http://www.w3.org/2000/svg" xmlns:xlink="http://www.w3.org/1999/xlink">
    <title>arrow-down</title>
    <defs>
        <path d="M12.313923,19.8387158 C12.1925669,20.0097634 11.9536477,20.0513618 11.7802819,19.9316285 C11.7436348,19.9063186 11.7117629,19.8748728 11.6861099,19.8387158 L9.06929812,16.1504001 C8.94794207,15.9793525 8.99010429,15.7436279 9.16347008,15.6238946 C9.22787494,15.579414 9.30458849,15.5555556 9.38320464,15.5555556 L11,15.5555556 L11,4.933333 C11,4.44241322 11.4477153,4.044444 12,4.044444 C12.5522847,4.044444 13,4.44241322 13,4.933333 L13,15.5555556 L14.6168283,15.5555556 C14.8284482,15.5555556 15,15.7248135 15,15.9336037 C15,16.0111686 14.9758182,16.0868564 14.9307348,16.1504001 L12.313923,19.8387158 Z" id="path-1"></path>
    </defs>
    <g id="01---Particles/03---Icon/02---Essentials/01---Arrows/01---Arrows/Arrow-Down" stroke="none" stroke-width="1" fill="nonzero" fill-rule="evenodd">
        <mask id="mask-2" fill="nonzero">
            <use xlink:href="#path-1"></use>
        </mask>
        <use id="Shape" fill="nonzero" xlink:href="#path-1"></use>
    </g>
</svg>