<?xml version="1.0" encoding="UTF-8"?>
<svg width="24px" height="24px" viewBox="0 0 24 24" version="1.1" xmlns="http://www.w3.org/2000/svg" xmlns:xlink="http://www.w3.org/1999/xlink">
    <title>arrow-up</title>
    <g id="01---Particles/03---Icon/02---Essentials/01---Arrows/01---Arrows/Arrow-Up" stroke="none" stroke-width="1" fill="nonzero" fill-rule="evenodd">
        <path d="M12.313923,4.20572823 C12.1925669,4.03468061 11.9536477,3.99308217 11.7802819,4.1128155 C11.7436348,4.13812541 11.7117629,4.1695712 11.6861099,4.20572823 L9.06929812,7.89404393 C8.94794207,8.06509154 8.99010429,8.30081608 9.16347008,8.42054941 C9.22787494,8.46502998 9.30458849,8.48888844 9.38320464,8.48888844 L11,8.48888844 L11,19.111111 C11,19.6020308 11.4477153,20 12,20 C12.5522847,20 13,19.6020308 13,19.111111 L13,8.48888844 L14.6168283,8.48888844 C14.8284482,8.48888844 15,8.31963053 15,8.1108403 C15,8.03327537 14.9758182,7.95758759 14.9307348,7.89404393 L12.313923,4.20572823 Z" id="Path" fill="nonzero"></path>
    </g>
</svg>