<?xml version="1.0" encoding="UTF-8"?>
<svg width="24px" height="24px" viewBox="0 0 24 24" version="1.1" xmlns="http://www.w3.org/2000/svg" xmlns:xlink="http://www.w3.org/1999/xlink">
    <title>arrow-right</title>
    <g id="01---Particles/03---Icon/02---Essentials/01---Arrows/01---Arrows/Arrow-Right" stroke="none" stroke-width="1" fill="nonzero" fill-rule="evenodd">
        <path d="M19.8164938,11.708299 C19.9875414,11.8296551 20.0291398,12.0685743 19.9094065,12.2419401 C19.8840966,12.2785872 19.8526508,12.3104591 19.8164938,12.3361121 L16.1281781,14.9529239 C15.9571305,15.0742799 15.7214059,15.0321177 15.6016726,14.8587519 C15.557192,14.7943471 15.5333336,14.7176335 15.5333336,14.6390174 L15.5333336,13.022222 L4.911111,13.022222 C4.42019122,13.022222 4.022222,12.5745067 4.022222,12.022222 C4.022222,11.4699373 4.42019122,11.022222 4.911111,11.022222 L15.5333336,11.022222 L15.5333336,9.40539374 C15.5333336,9.19377383 15.7025915,9.022222 15.9113817,9.022222 C15.9889466,9.022222 16.0646344,9.04640382 16.1281781,9.09148722 L19.8164938,11.708299 Z" id="Path" fill="nonzero"></path>
    </g>
</svg>