<?xml version="1.0" encoding="UTF-8"?>
<svg width="24px" height="24px" viewBox="0 0 24 24" version="1.1" xmlns="http://www.w3.org/2000/svg" xmlns:xlink="http://www.w3.org/1999/xlink">
    <title>arrow-left24</title>
    <g id="01---Particles/03---Icon/02---Essentials/01---Arrows/01---Arrows/Arrow-Left" stroke="nonzero" stroke-width="1" fill="nonzero" fill-rule="evenodd">
        <path d="M4.18350623,12.336145 C4.01245861,12.2147889 3.97086017,11.9758697 4.0905935,11.8025039 C4.11590341,11.7658568 4.1473492,11.7339849 4.18350623,11.7083319 L7.87182193,9.09152012 C8.04286954,8.97016407 8.27859408,9.01232629 8.39832741,9.18569208 C8.44280798,9.25009694 8.46666644,9.32681049 8.46666644,9.40542664 L8.46666644,11.022222 L19.088889,11.022222 C19.5798088,11.022222 19.977778,11.4699373 19.977778,12.022222 C19.977778,12.5745067 19.5798088,13.022222 19.088889,13.022222 L8.46666644,13.022222 L8.46666644,14.6390503 C8.46666644,14.8506702 8.29740853,15.022222 8.0886183,15.022222 C8.01105337,15.022222 7.93536559,14.9980402 7.87182193,14.9529568 L4.18350623,12.336145 Z" id="Path" fill="nonzero"></path>
    </g>
</svg>