<?xml version="1.0" encoding="UTF-8"?>
<svg width="24px" height="24px" viewBox="0 0 24 24" version="1.1" xmlns="http://www.w3.org/2000/svg" xmlns:xlink="http://www.w3.org/1999/xlink">
    <title>bold</title>
    <g id="01---Particles/03---Icon/02---Essentials/06---Editions/Bold" stroke="none" stroke-width="1" fill="nonzero" fill-rule="evenodd">
        <g id="Group" transform="translate(4.000000, 4.000000)" fill="nonzero">
            <g id="bold" transform="translate(5.333333, 4.666667)">
                <path d="M5.04414252,3.770625 C4.85129022,3.50351562 4.55266238,3.32570312 4.14812418,3.23720052 C4.4705468,3.11209635 4.70912821,2.92591146 4.86400324,2.67860677 C5.0189187,2.43122396 5.09627533,2.14901042 5.09627533,1.83151042 C5.09627533,1.22407552 4.85604917,0.766914063 4.3757182,0.460182292 C3.89530635,0.153398437 3.22680114,0 2.37039134,0 L0,0 L0,6.66666667 L2.71168801,6.66666667 C3.55561398,6.66666667 4.2034521,6.50036458 4.655472,6.1675651 C5.1073436,5.83492187 5.33333333,5.3434375 5.33333333,4.69325521 C5.33333333,4.34532552 5.23684652,4.0377474 5.04414252,3.770625 Z M1.60713843,1.19048177 L2.37043179,1.19048177 C2.74970572,1.19048177 3.03094248,1.25539062 3.21435776,1.38509115 C3.39758429,1.51485677 3.48928519,1.72158854 3.48928519,2.00550781 C3.48928519,2.25583333 3.3991751,2.44583333 3.21903582,2.57553385 C3.0388561,2.70529948 2.76701592,2.77322917 2.40356922,2.77932292 L1.60713843,2.77932292 L1.60713843,1.19048177 L1.60713843,1.19048177 Z M3.47974031,5.28154948 C3.3090785,5.4113151 3.05306556,5.47622396 2.71168801,5.47622396 L1.60713843,5.47622396 L1.60713843,3.80498698 L2.8018655,3.80498698 C3.13053003,3.80498698 3.36835648,3.87901042 3.51527744,4.02700521 C3.66227929,4.17507812 3.7357937,4.39408854 3.7357937,4.68410156 C3.7357937,4.95272135 3.65036168,5.15184896 3.47974031,5.28154948 Z" id="Shape"></path>
            </g>
        </g>
    </g>
</svg>