<?xml version="1.0" encoding="UTF-8"?>
<svg width="24px" height="24px" viewBox="0 0 24 24" version="1.1" xmlns="http://www.w3.org/2000/svg" xmlns:xlink="http://www.w3.org/1999/xlink">
    <title>01 - Particles/03 - Icon/02 - Essentials/04 - Navigation/Burger-expand</title>
    <g id="01---Particles/03---Icon/02---Essentials/04---Navigation/Burger-expand" stroke="none" stroke-width="1" fill="none" fill-rule="evenodd">
        <g id="Group" transform="translate(3.000000, 6.000000)" fill="#364958">
            <path d="M14.7647059,5 C15.44694,5 16,5.44771525 16,6 C16,6.55228475 15.44694,7 14.7647059,7 L1.23529412,7 C0.553060015,7 0,6.55228475 0,6 C0,5.44771525 0.553060015,5 1.23529412,5 L14.7647059,5 Z M11.9963235,10 C12.5506387,10 13,10.4477153 13,11 C13,11.5522847 12.5506387,12 11.9963235,12 L1.00367647,12 C0.449361262,12 0,11.5522847 0,11 C0,10.4477153 0.449361262,10 1.00367647,10 L11.9963235,10 Z M11.9963235,0 C12.5506387,0 13,0.44771525 13,1 C13,1.55228475 12.5506387,2 11.9963235,2 L1.00367647,2 C0.449361262,2 0,1.55228475 0,1 C0,0.44771525 0.449361262,0 1.00367647,0 L11.9963235,0 Z" id="Save"></path>
            <polygon id="Path-4" points="14.0921953 3.03188027 14.0921953 9.03188027 18.6331681 6.03188027"></polygon>
        </g>
    </g>
</svg>