<?xml version="1.0" encoding="UTF-8"?>
<svg width="24px" height="24px" viewBox="0 0 24 24" version="1.1" xmlns="http://www.w3.org/2000/svg" xmlns:xlink="http://www.w3.org/1999/xlink">
    <title>burger-collapse</title>
    <g id="01---Particles/03---Icon/02---Essentials/04---Navigation/Burger-collapse" stroke="nonzero" stroke-width="1" fill="nonzero" fill-rule="evenodd">
        <g id="Group" transform="translate(1.556307, 6.000000)" fill="nonzero">
            <path d="M17.285605,5 C17.9251995,5 18.4436932,5.44771525 18.4436932,6 C18.4436932,6.55228475 17.9251995,7 17.285605,7 L4.60178148,7 C3.96218701,7 3.44369324,6.55228475 3.44369324,6 C3.44369324,5.44771525 3.96218701,5 4.60178148,5 L17.285605,5 Z M17.4400168,10 C17.994332,10 18.4436932,10.4477153 18.4436932,11 C18.4436932,11.5522847 17.994332,12 17.4400168,12 L6.44736971,12 C5.89305451,12 5.44369324,11.5522847 5.44369324,11 C5.44369324,10.4477153 5.89305451,10 6.44736971,10 L17.4400168,10 Z M17.4400168,0 C17.994332,0 18.4436932,0.44771525 18.4436932,1 C18.4436932,1.55228475 17.994332,2 17.4400168,2 L6.44736971,2 C5.89305451,2 5.44369324,1.55228475 5.44369324,1 C5.44369324,0.44771525 5.89305451,0 6.44736971,0 L17.4400168,0 Z" id="Save"></path>
            <polygon id="Path-4" transform="translate(2.270486, 6.031880) rotate(-180.000000) translate(-2.270486, -6.031880) " points="0 3.03188027 0 9.03188027 4.5409728 6.03188027"></polygon>
        </g>
    </g>
</svg>