<?xml version="1.0" encoding="UTF-8"?>
<svg width="24px" height="24px" viewBox="0 0 24 24" version="1.1" xmlns="http://www.w3.org/2000/svg" xmlns:xlink="http://www.w3.org/1999/xlink">
    <title>calendar24</title>
    <g id="01---Particles/03---Icon/02---Essentials/02---Content/Calendar" stroke="none" stroke-width="1" fill="nonzero" fill-rule="evenodd">
        <path d="M7.58930953,5 L16.4106905,5 C17.6587716,5 18.111356,5.1329094 18.5676358,5.38248546 C19.0239156,5.63206153 19.3820066,5.99830426 19.6260277,6.46497092 C19.8700488,6.93163759 20,7.3945247 20,8.67101745 L20,16.3289826 C20,17.6054753 19.8700488,18.0683624 19.6260277,18.5350291 C19.3820066,19.0016957 19.0239156,19.3679385 18.5676358,19.6175145 C18.111356,19.8670906 17.6587716,20 16.4106905,20 L7.58930953,20 C6.34122841,20 5.88864404,19.8670906 5.43236423,19.6175145 C4.97608443,19.3679385 4.61799337,19.0016957 4.37397227,18.5350291 C4.12995116,18.0683624 4,17.6054753 4,16.3289826 L4,8.67101745 C4,7.3945247 4.12995116,6.93163759 4.37397227,6.46497092 C4.61799337,5.99830426 4.97608443,5.63206153 5.43236423,5.38248546 C5.88864404,5.1329094 6.34122841,5 7.58930953,5 Z M6.87156065,8.4088995 C6.33666874,8.4088995 6.14270401,8.46586067 5.94715552,8.57282184 C5.75160703,8.67978301 5.59813944,8.83674419 5.49355896,9.03674419 C5.38897849,9.23674419 5.33328513,9.43512438 5.33328513,9.98219269 L5.33328513,16.1882794 C5.33328513,17.0392745 5.41991924,17.3478659 5.58259997,17.658977 C5.74528071,17.9700881 5.98400808,18.2142499 6.28819461,18.380634 C6.59238114,18.547018 6.89410405,18.6356243 7.72615811,18.6356243 L16.2732635,18.6356243 C17.1053176,18.6356243 17.4070405,18.547018 17.711227,18.380634 C18.0154135,18.2142499 18.2541409,17.9700881 18.4168216,17.658977 C18.5795024,17.3478659 18.6661365,17.0392745 18.6661365,16.1882794 L18.6661365,9.98219269 C18.6661365,9.43512438 18.6104431,9.23674419 18.5058627,9.03674419 C18.4012822,8.83674419 18.2478146,8.67978301 18.0522661,8.57282184 C17.8567176,8.46586067 17.6627529,8.4088995 17.127861,8.4088995 L6.87156065,8.4088995 Z M8.66649797,13.1816268 C7.93014493,13.1816268 7.33321284,12.571106 7.33321284,11.8179904 C7.33321284,11.0648748 7.93014493,10.454354 8.66649797,10.454354 C9.40285102,10.454354 9.99978311,11.0648748 9.99978311,11.8179904 C9.99978311,12.571106 9.40285102,13.1816268 8.66649797,13.1816268 Z M11.9997108,12.4998086 C11.6315343,12.4998086 11.3330682,12.1945482 11.3330682,11.8179904 C11.3330682,11.4414326 11.6315343,11.1361722 11.9997108,11.1361722 C12.3678873,11.1361722 12.6663534,11.4414326 12.6663534,11.8179904 C12.6663534,12.1945482 12.3678873,12.4998086 11.9997108,12.4998086 Z M15.3329236,12.4998086 C14.9647471,12.4998086 14.6662811,12.1945482 14.6662811,11.8179904 C14.6662811,11.4414326 14.9647471,11.1361722 15.3329236,11.1361722 C15.7011002,11.1361722 15.9995662,11.4414326 15.9995662,11.8179904 C15.9995662,12.1945482 15.7011002,12.4998086 15.3329236,12.4998086 Z M11.9997108,15.9088995 C11.6315343,15.9088995 11.3330682,15.6036391 11.3330682,15.2270813 C11.3330682,14.8505235 11.6315343,14.5452631 11.9997108,14.5452631 C12.3678873,14.5452631 12.6663534,14.8505235 12.6663534,15.2270813 C12.6663534,15.6036391 12.3678873,15.9088995 11.9997108,15.9088995 Z M8.66649797,15.9088995 C8.29832145,15.9088995 7.9998554,15.6036391 7.9998554,15.2270813 C7.9998554,14.8505235 8.29832145,14.5452631 8.66649797,14.5452631 C9.0346745,14.5452631 9.33314054,14.8505235 9.33314054,15.2270813 C9.33314054,15.6036391 9.0346745,15.9088995 8.66649797,15.9088995 Z M15.3329236,15.9088995 C14.9647471,15.9088995 14.6662811,15.6036391 14.6662811,15.2270813 C14.6662811,14.8505235 14.9647471,14.5452631 15.3329236,14.5452631 C15.7011002,14.5452631 15.9995662,14.8505235 15.9995662,15.2270813 C15.9995662,15.6036391 15.7011002,15.9088995 15.3329236,15.9088995 Z" id="Style" fill="nonzero"></path>
    </g>
</svg>