<svg id="Calque_1" data-name="Calque 1" xmlns="http://www.w3.org/2000/svg" viewBox="0 0 246 230.63"><title>calendar</title><path d="M59.2,23.19H194.8c19.2,0,26.15,2,33.18,5.87a39.61,39.61,0,0,1,16.27,16.65C248,52.89,250,60,250,79.63V197.37c0,19.62-2,26.75-5.75,33.92A39.61,39.61,0,0,1,228,247.94c-7,3.84-14,5.87-33.16,5.87H59.18c-19.19,0-26.14-2-33.16-5.87A39.61,39.61,0,0,1,9.75,231.29C6,224.11,4,217,4,197.37V79.63C4,60,6,52.88,9.75,45.71A39.61,39.61,0,0,1,26,29.06C33.06,25.22,40,23.19,59.2,23.19Zm-11,52.41c-8.23,0-11.22.88-14.22,2.52a16.94,16.94,0,0,0-7,7.13c-1.61,3.07-2.46,6.12-2.46,14.53V195.2c0,13.08,1.32,17.83,3.83,22.62a26.39,26.39,0,0,0,10.84,11.1c4.67,2.55,9.32,3.92,22.11,3.92H192.7c12.79,0,17.44-1.37,22.11-3.92a26.43,26.43,0,0,0,10.85-11.1c2.51-4.78,3.84-9.53,3.84-22.6V99.77c0-8.41-.88-11.45-2.48-14.53a17,17,0,0,0-7-7.13c-3-1.65-6-2.52-14.21-2.52H48.16ZM75.74,149a21,21,0,1,1,20.51-21A20.73,20.73,0,0,1,75.74,149ZM127,138.5A10.49,10.49,0,1,1,137.24,128,10.37,10.37,0,0,1,127,138.5Zm51.24,0A10.49,10.49,0,1,1,188.5,128,10.37,10.37,0,0,1,178.24,138.5ZM127,190.91a10.49,10.49,0,1,1,10.24-10.49A10.37,10.37,0,0,1,127,190.91Zm-51.26,0A10.49,10.49,0,1,1,86,180.43,10.36,10.36,0,0,1,75.74,190.91Zm102.51,0a10.49,10.49,0,1,1,10.26-10.49A10.37,10.37,0,0,1,178.24,190.91Z" transform="translate(-4 -23.19)"/></svg>