<?xml version="1.0" encoding="UTF-8"?>
<svg width="24px" height="24px" viewBox="0 0 24 24" version="1.1" xmlns="http://www.w3.org/2000/svg" xmlns:xlink="http://www.w3.org/1999/xlink">
    <title>chat24</title>
    <g id="01---Particles/03---Icon/02---Essentials/05---Communications/Bubbles" stroke="none" stroke-width="1" fill="nonzero" fill-rule="evenodd">
        <g id="chat-(1)" transform="translate(4.000000, 4.000000)" fill="nonzero">
            <path d="M14.7108304,7.35410526 C15.4962963,8.18148928 15.9693723,9.21646784 15.9693723,10.342269 C15.9693723,11.6866433 15.3076647,12.9481793 14.1369513,13.8653879 C14.4732943,14.3264873 14.9543548,14.7915789 15.5901131,14.9482729 C15.8206628,15.0041637 15.9783548,15.2157505 15.9693723,15.4522885 C15.9593918,15.6888265 15.7847329,15.8864405 15.5511891,15.9243665 C15.5222456,15.9293567 15.2627524,15.9692842 14.841575,15.9692842 C14.073076,15.9702768 12.7666277,15.83554 11.334425,15.1059649 C10.9032671,15.1898012 10.449154,15.2327173 9.98106823,15.2327173 C7.69054191,15.2327173 5.69843275,14.1757817 4.69139961,12.6288031 C4.96386745,12.5210136 5.24132554,12.4002495 5.52477193,12.2635166 C6.00084211,12.3383704 6.49088499,12.3762963 6.98691618,12.3762963 C10.7026589,12.3762963 13.8235634,10.2374737 14.7108304,7.35410526 Z M6.98691618,0.000467836258 C10.8383938,0.000467836258 13.973271,2.55248343 13.973271,5.68935673 C13.973271,8.82623002 10.8383938,11.3782456 6.98691618,11.3782456 C6.43299805,11.3782456 5.89105653,11.326347 5.37306823,11.2215517 C3.11248343,12.3942612 1.12037427,12.4770994 0.604382066,12.4770994 L0.542281135,12.4765819 C0.507460256,12.4759905 0.485946719,12.4751033 0.47862768,12.4751033 C0.23011306,12.4641248 0.0275087719,12.2734971 0.00255750487,12.0259805 C-0.0223937622,11.779462 0.138292398,11.5519064 0.378822612,11.4920234 C1.13933723,11.3043899 1.74215984,10.5678285 2.20824951,9.84024951 C0.799001949,8.76834308 0.000561403509,7.27825341 0.000561403509,5.68935673 C0.000561403509,2.55248343 3.13444055,0.000467836258 6.98691618,0.000467836258 Z" id="Combined-Shape"></path>
        </g>
    </g>
</svg>