<svg id="Calque_1" data-name="Calque 1" xmlns="http://www.w3.org/2000/svg" viewBox="0 0 247.54 247.52"><title>chat</title><path d="M232.22,129.21c12.18,12.82,19.53,28.86,19.53,46.31,0,20.85-10.26,40.39-28.41,54.61,5.21,7.15,12.66,14.37,22.52,16.79a7.72,7.72,0,0,1-.6,15.13,72.78,72.78,0,0,1-11,.7,120.47,120.47,0,0,1-54.36-13.38,109.67,109.67,0,0,1-21,2c-35.49,0-66.39-16.38-82-40.36,4.23-1.67,8.53-3.55,12.93-5.66a147.71,147.71,0,0,0,22.66,1.74c57.6,0,106-33.15,119.72-77.84Zm-119.69-114c59.69,0,108.28,39.56,108.28,88.2s-48.59,88.16-108.28,88.16a127.28,127.28,0,0,1-25-2.42c-35,18.17-65.92,19.45-73.92,19.45h-1l-1,0a7.74,7.74,0,0,1-1.55-15.24c11.78-2.91,21.13-14.32,28.37-25.61C16.58,151.13,4.22,128,4.22,103.42c0-48.65,48.58-88.2,108.3-88.2Z" transform="translate(-4.22 -15.22)"/></svg>