<?xml version="1.0" encoding="UTF-8"?>
<svg width="24px" height="24px" viewBox="0 0 24 24" version="1.1" xmlns="http://www.w3.org/2000/svg" xmlns:xlink="http://www.w3.org/1999/xlink">
    <title>check24</title>
    <defs>
        <path d="M16.1337135,9.73502951 C16.4519043,10.0418564 16.4611166,10.5485333 16.1542897,10.8667241 L16.1342397,10.8867925 L16.1342397,10.8867925 L9.01808833,17.7613568 C8.68871546,18.0795477 8.15469653,18.0795477 7.82532366,17.7613568 L4.24702965,14.3045427 C3.91765678,13.9863518 3.91765678,13.4704623 4.24702965,13.1522714 C4.57640252,12.8340804 5.11042145,12.8340804 5.43979432,13.1522714 L8.42170599,16.0329498 L14.9403844,9.73557478 C15.2731324,9.41412324 15.8006718,9.41388219 16.1337135,9.73502951 Z M19.7529703,6.23864321 C20.0823432,6.55683416 20.0823432,7.07272362 19.7529703,7.39091457 L17.9550072,9.12783848 C17.6222591,9.44929003 17.0947197,9.44953107 16.7616781,9.12838375 C16.4434872,8.82155689 16.4342749,8.31487995 16.7411018,7.99668912 L16.7611518,7.9766208 L16.7611518,7.9766208 L18.5602057,6.23864321 C18.8895785,5.92045226 19.4235975,5.92045226 19.7529703,6.23864321 Z" id="path-1"></path>
    </defs>
    <g id="01---Particles/03---Icon/02---Essentials/03---Actions/Check" stroke="nonzero" stroke-width="1" fill="nonzero" fill-rule="evenodd">
        <mask id="mask-2" fill="nonzero">
            <use xlink:href="#path-1"></use>
        </mask>
        <use id="Shape" fill="nonzero" xlink:href="#path-1"></use>
    </g>
</svg>