<svg id="Calque_1" data-name="Calque 1" xmlns="http://www.w3.org/2000/svg" viewBox="0 0 212.01 159.01"><title>checked</title><path id="o30th29mia" d="M164.78,101a10.61,10.61,0,0,1,.27,15l-.27.27L70.49,207.33a11.44,11.44,0,0,1-15.81,0L7.27,161.54a10.54,10.54,0,0,1,0-15.28,11.46,11.46,0,0,1,15.81,0l39.51,38.16L149,101A11.39,11.39,0,0,1,164.78,101Zm48-46.32a10.52,10.52,0,0,1,0,15.26l-23.82,23a11.37,11.37,0,0,1-15.81,0,10.57,10.57,0,0,1-.27-15l.27-.26,23.82-23A11.44,11.44,0,0,1,212.73,54.67Z" transform="translate(-3.99 -51.5)"/></svg>