<?xml version="1.0" encoding="UTF-8"?>
<svg width="24px" height="24px" viewBox="0 0 24 24" version="1.1" xmlns="http://www.w3.org/2000/svg" xmlns:xlink="http://www.w3.org/1999/xlink">
    <title>close24</title>
    <g id="01---Particles/03---Icon/02---Essentials/03---Actions/Close" stroke="nonzero" stroke-width="1" fill="nonzero" fill-rule="evenodd">
        <path d="M13.5338433,12 L17.6460488,16.1122055 C17.813812,16.2799687 17.9118212,16.4396759 17.9622091,16.6059197 C18.012597,16.7721635 18.012597,16.9421773 17.9622091,17.1084211 C17.9118212,17.2746648 17.813812,17.434372 17.6460488,17.6021352 L17.6021352,17.6460488 C17.434372,17.813812 17.2746648,17.9118212 17.1084211,17.9622091 C16.9421773,18.012597 16.7721635,18.012597 16.6059197,17.9622091 C16.4396759,17.9118212 16.2799687,17.813812 16.1122055,17.6460488 L12,13.5338433 L7.88779446,17.6460488 C7.7200313,17.813812 7.56032412,17.9118212 7.39408033,17.9622091 C7.22783654,18.012597 7.05782273,18.012597 6.89157894,17.9622091 C6.72533515,17.9118212 6.56562797,17.813812 6.39786481,17.6460488 L6.35395119,17.6021352 C6.18618803,17.434372 6.08817882,17.2746648 6.03779092,17.1084211 C5.98740303,16.9421773 5.98740303,16.7721635 6.03779092,16.6059197 C6.08817882,16.4396759 6.18618803,16.2799687 6.35395119,16.1122055 L10.4661567,12 L6.35395119,7.88779446 C6.18618803,7.7200313 6.08817882,7.56032412 6.03779092,7.39408033 C5.98740303,7.22783654 5.98740303,7.05782273 6.03779092,6.89157894 C6.08817882,6.72533515 6.18618803,6.56562797 6.35395119,6.39786481 L6.39786481,6.35395119 C6.56562797,6.18618803 6.72533515,6.08817882 6.89157894,6.03779092 C7.05782273,5.98740303 7.22783654,5.98740303 7.39408033,6.03779092 C7.56032412,6.08817882 7.7200313,6.18618803 7.88779446,6.35395119 L12,10.4661567 L16.1122055,6.35395119 C16.2799687,6.18618803 16.4396759,6.08817882 16.6059197,6.03779092 C16.7721635,5.98740303 16.9421773,5.98740303 17.1084211,6.03779092 C17.2746648,6.08817882 17.434372,6.18618803 17.6021352,6.35395119 L17.6460488,6.39786481 C17.813812,6.56562797 17.9118212,6.72533515 17.9622091,6.89157894 C18.012597,7.05782273 18.012597,7.22783654 17.9622091,7.39408033 C17.9118212,7.56032412 17.813812,7.7200313 17.6460488,7.88779446 L13.5338433,12 Z" id="Style" fill="nonzero"></path>
    </g>
</svg>