<svg id="Calque_1" data-name="Calque 1" xmlns="http://www.w3.org/2000/svg" viewBox="0 0 259 259"><title>close</title><path id="Close-Icon" d="M172.63,134.5l88.75,88.75c3.62,3.62,5.75,7,6.82,10.65a18.87,18.87,0,0,1,0,10.87c-1.07,3.62-3.2,7-6.82,10.65l-1,1c-3.62,3.62-7,5.75-10.65,6.82a18.87,18.87,0,0,1-10.87,0c-3.62-1.07-7-3.2-10.65-6.82L139.5,167.63,50.75,256.38c-3.62,3.62-7,5.75-10.65,6.82a18.87,18.87,0,0,1-10.87,0c-3.62-1.07-7-3.2-10.65-6.82l-1-1c-3.62-3.62-5.75-7-6.82-10.65a18.87,18.87,0,0,1,0-10.87c1.07-3.62,3.2-7,6.82-10.65l88.75-88.75L17.62,45.75c-3.62-3.62-5.75-7-6.82-10.65a18.87,18.87,0,0,1,0-10.87c1.07-3.62,3.2-7,6.82-10.65l1-1C22.2,9,25.61,6.86,29.23,5.8a18.87,18.87,0,0,1,10.87,0c3.62,1.07,7,3.2,10.65,6.82l88.75,88.75,88.75-88.75c3.62-3.62,7-5.75,10.65-6.82a18.87,18.87,0,0,1,10.87,0c3.62,1.07,7,3.2,10.65,6.82l1,1c3.62,3.62,5.75,7,6.82,10.65a18.87,18.87,0,0,1,0,10.87c-1.07,3.62-3.2,7-6.82,10.65Z" transform="translate(-10 -5)"/></svg>
