<svg id="Calque_1" data-name="Calque 1" xmlns="http://www.w3.org/2000/svg" viewBox="0 0 274.16 239.89">
    <title>comment</title>
    <path id="prefix_a" data-name="prefix  a" d="M142.44,18.63c41.36,0,76.49,11.82,101.44,34.35,22.69,20.47,35.2,48.15,35.2,77.87a102.65,102.65,0,0,1-8.86,41.78,107.44,107.44,0,0,1-26.4,36.28c-25,22.61-60.11,34.48-101.39,34.48a186.37,186.37,0,0,1-41.95-4.83,75.5,75.5,0,0,1-51,20H15.2L39.42,234.6a37,37,0,0,0,10.13-18.29c-17.7-12.34-30.77-28.18-38-46.25-7.73-19.3-8.7-40.54-2.83-61.34,7-24.8,23.32-47.31,46-63.46C79.12,27.82,109.49,18.63,142.44,18.63Zm0,28c-54.57,0-95.22,29.93-106.4,69.58-9,32.08,4.19,62.18,35.94,81.09L79,201.53l-.1,3.75-.12,4.41A65.94,65.94,0,0,1,77.54,221a48.62,48.62,0,0,0,7.68-7.21l6-7,8.9,2.63a153.89,153.89,0,0,0,42.31,5.9c67.6,0,108.26-37.26,108.26-84.51,0-21.78-9.19-42.06-26-57.19C205.23,56,176.83,46.65,142.44,46.65Z" transform="translate(-4.92 -18.63)"/>
</svg>
