<?xml version="1.0" encoding="UTF-8"?>
<svg width="25px" height="23px" viewBox="0 0 25 23" version="1.1" xmlns="http://www.w3.org/2000/svg" xmlns:xlink="http://www.w3.org/1999/xlink">
    <title>comments</title>
    <defs>
        <path d="M1331.53939,1167.5 C1335.27292,1167.5 1338.4448,1168.58445 1340.69768,1170.65003 C1342.74435,1172.52663 1343.875,1175.06574 1343.875,1177.79118 C1343.875,1179.11562 1343.60587,1180.40562 1343.07576,1181.62254 C1342.52767,1182.88066 1341.72512,1184.00084 1340.69274,1184.9498 C1338.4371,1187.02331 1335.26685,1188.11214 1331.53935,1188.11214 C1330.27502,1188.11214 1328.95928,1187.95746 1327.7529,1187.669 C1326.49334,1188.84334 1324.85297,1189.5 1323.14527,1189.5 L1320.05241,1189.5 L1322.23942,1187.30634 C1322.69887,1186.8455 1323.01331,1186.26619 1323.15391,1185.62916 C1321.55531,1184.49818 1320.37537,1183.04492 1319.72218,1181.38764 C1319.0244,1179.6173 1318.93679,1177.66998 1319.4663,1175.76194 C1320.09739,1173.48777 1321.57166,1171.4232 1323.61524,1169.94288 C1325.8236,1168.34328 1328.56546,1167.5 1331.53939,1167.5 Z" id="path-1"></path>
    </defs>
    <g id="Dashboards" stroke="none" stroke-width="1" fill="none" fill-rule="evenodd">
        <g id="Workplace-Dashboard-2.5" transform="translate(-1319.000000, -1167.000000)">
            <mask id="mask-2" fill="white">
                <use xlink:href="#path-1"></use>
            </mask>
            <use id="Comments" fill="#364958" xlink:href="#path-1"></use>
        </g>
    </g>
</svg>