<?xml version="1.0" encoding="UTF-8"?>
<svg width="24px" height="24px" viewBox="0 0 24 24" version="1.1" xmlns="http://www.w3.org/2000/svg" xmlns:xlink="http://www.w3.org/1999/xlink">
    <title>computer</title>
    <g id="Settings" stroke="none" stroke-width="1" fill="none" fill-rule="evenodd">
        <g id="Group-5">
            <rect id="Rectangle" x="0" y="0" width="24" height="24"></rect>
            <g id="computer-icon" transform="translate(4.000000, 5.000000)" fill="#364958" fill-rule="nonzero">
                <path d="M14.7180574,0 C15.1638168,0 15.3254599,0.0464128056 15.4884229,0.133566352 C15.6513858,0.220719898 15.7792801,0.348614185 15.8664336,0.511577148 C15.9535872,0.674540111 16,0.83618323 16,1.2819426 L16,10.7180574 C16,11.1638168 15.9535872,11.3254599 15.8664336,11.4884229 C15.7792801,11.6513858 15.6513858,11.7792801 15.4884229,11.8664336 C15.3254599,11.9535872 15.1638168,12 14.7180574,12 L1.2819426,12 C0.83618323,12 0.674540111,11.9535872 0.511577148,11.8664336 C0.348614185,11.7792801 0.220719898,11.6513858 0.133566352,11.4884229 C0.0464128056,11.3254599 0,11.1638168 0,10.7180574 L0,1.2819426 C0,0.83618323 0.0464128056,0.674540111 0.133566352,0.511577148 C0.220719898,0.348614185 0.348614185,0.220719898 0.511577148,0.133566352 C0.674540111,0.0464128056 0.83618323,0 1.2819426,0 L14.7180574,0 Z M13.3847241,1.5 L2.61527593,1.5 C2.16951656,1.5 2.00787344,1.54641281 1.84491048,1.63356635 C1.68194752,1.7207199 1.55405323,1.84861419 1.46689969,2.01157715 C1.37974614,2.17454011 1.33333333,2.33618323 1.33333333,2.7819426 L1.33333333,2.7819426 L1.33333333,9.2180574 C1.33333333,9.66381677 1.37974614,9.82545989 1.46689969,9.98842285 C1.55405323,10.1513858 1.68194752,10.2792801 1.84491048,10.3664336 C2.00787344,10.4535872 2.16951656,10.5 2.61527593,10.5 L2.61527593,10.5 L13.3847241,10.5 C13.8304834,10.5 13.9921266,10.4535872 14.1550895,10.3664336 C14.3180525,10.2792801 14.4459468,10.1513858 14.5331003,9.98842285 C14.6202539,9.82545989 14.6666667,9.66381677 14.6666667,9.2180574 L14.6666667,9.2180574 L14.6666667,2.7819426 C14.6666667,2.33618323 14.6202539,2.17454011 14.5331003,2.01157715 C14.4459468,1.84861419 14.3180525,1.7207199 14.1550895,1.63356635 C13.9921266,1.54641281 13.8304834,1.5 13.3847241,1.5 L13.3847241,1.5 Z" id="Combined-Shape"></path>
                <path d="M5,12 L11,12 C11.5522847,12 12,12.4477153 12,13 C12,13.5522847 11.5522847,14 11,14 L5,14 C4.44771525,14 4,13.5522847 4,13 C4,12.4477153 4.44771525,12 5,12 Z" id="Rectangle"></path>
            </g>
        </g>
    </g>
</svg>