<?xml version="1.0" encoding="UTF-8"?>
<svg width="24px" height="24px" viewBox="0 0 24 24" version="1.1" xmlns="http://www.w3.org/2000/svg" xmlns:xlink="http://www.w3.org/1999/xlink">
    <title>contact</title>
    <g id="01---Particles/03---Icon/02---Essentials/05---Communications/Contact" stroke="none" stroke-width="1" fill="none" fill-rule="evenodd">
        <path d="M14.833374,13 C16.5793457,13 18,14.4206543 18,16.166626 L18,16.166626 L18,18.5 C18,18.776001 17.776001,19 17.5,19 L17.5,19 L6.5,19 C6.22399903,19 6,18.776001 6,18.5 L6,18.5 L6,16.166626 C6,14.4206543 7.42065431,13 9.16662597,13 L9.16662597,13 Z M12,5 C13.8409424,5 15.333374,6.49243163 15.333374,8.33337403 C15.333374,10.1743164 13.8409424,11.666626 12,11.666626 C10.1590576,11.666626 8.66662597,10.1743164 8.66662597,8.33337403 C8.66662597,6.49243163 10.1590576,5 12,5 Z" id="Combined-Shape" fill="#1A2226"></path>
    </g>
</svg>