<?xml version="1.0" encoding="UTF-8"?>
<svg width="24px" height="24px" viewBox="0 0 24 24" version="1.1" xmlns="http://www.w3.org/2000/svg" xmlns:xlink="http://www.w3.org/1999/xlink">
    <title>delete</title>
    <g id="01---Particles/03---Icon/02---Essentials/06---Editions/Delete" stroke="none" stroke-width="1" fill="nonzero" fill-rule="evenodd">
        <path d="M10.1052632,4 L13.8947368,4 L14.3144778,4.6645898 C14.4443061,4.87015133 14.709695,5 15,5 L9,5 C9.29030498,5 9.5556939,4.87015133 9.68552223,4.6645898 L10.1052632,4 Z M6.77397487,5 L17.2260251,5 C17.3957451,5 17.5313721,5.04084327 17.6445885,5.11753839 C17.7578049,5.19423351 17.8466578,5.30678049 17.9072065,5.4501879 C17.9677553,5.59359531 18,5.76538953 18,5.98036817 L18,6.01963183 C18,6.23461047 17.9677553,6.40640469 17.9072065,6.5498121 C17.8466578,6.69321951 17.7578049,6.80576649 17.6445885,6.88246161 C17.5313721,6.95915673 17.3957451,7 17.2260251,7 L6.77397487,7 C6.60425489,7 6.46862788,6.95915673 6.3554115,6.88246161 C6.24219512,6.80576649 6.15334225,6.69321951 6.09279347,6.5498121 C6.03224469,6.40640469 6,6.23461047 6,6.01963183 L6,5.98036817 C6,5.76538953 6.03224469,5.59359531 6.09279347,5.4501879 C6.15334225,5.30678049 6.24219512,5.19423351 6.3554115,5.11753839 C6.46862788,5.04084327 6.60425489,5 6.77397487,5 Z M7,8 L17,8 L15.8979977,16.7278583 C15.7952374,17.5417194 15.6682473,17.8292439 15.4568035,18.1166444 C15.2453597,18.404045 14.957851,18.6248838 14.6011623,18.7738726 C14.2444735,18.9228614 13.8967111,19 12.9399106,19 L11.0600894,19 C10.1032889,19 9.75552645,18.9228614 9.39883775,18.7738726 C9.04214904,18.6248838 8.75464027,18.404045 8.5431965,18.1166444 C8.33175273,17.8292439 8.20476255,17.5417194 8.10200231,16.7278583 L7,8 Z" id="Style" fill="nonzero"></path>
    </g>
</svg>