<?xml version="1.0" encoding="UTF-8"?>
<svg width="24px" height="24px" viewBox="0 0 24 24" version="1.1" xmlns="http://www.w3.org/2000/svg" xmlns:xlink="http://www.w3.org/1999/xlink">
    <title>discover-coloured</title>
    <g id="mixrs" stroke="none" stroke-width="1" fill="none" fill-rule="evenodd">
        <g id="Group-62">
            <rect id="Rectangle" x="0" y="0" width="24" height="24"></rect>
            <g id="Group-2" transform="translate(0.000000, 1.000000)">
                <path d="M3.74481837,11.7687705 L15.39564,6.9982679 C15.90674,6.78899477 16.4907178,7.03367379 16.6999909,7.54477379 C16.8019405,7.7937614 16.7992573,8.07332645 16.6925475,8.32031141 L11.9755879,19.2379445 C11.8445233,19.5412997 11.5720561,19.7603181 11.247619,19.8231104 L1.67392222,21.6760253 C1.13169956,21.7809683 0.607068139,21.4264831 0.502125137,20.8842604 C0.469652276,20.7164787 0.480719656,20.5431743 0.534271095,20.3808862 L3.17410587,12.3808408 C3.26572165,12.1031983 3.47425309,11.8795552 3.74481837,11.7687705 Z" id="Rectangle" fill="#F75848"></path>
                <path d="M1.94240998,12.17313 L9.60094195,10.7601913 C10.1440609,10.6599902 10.6655748,11.019046 10.765776,11.5621649 C10.8006137,11.7509954 10.7803493,11.9458632 10.7074039,12.1234852 L7.64396477,19.5829554 C7.47391067,19.9970369 7.04938602,20.2476623 6.60467709,20.1965167 L2.12144942,19.6809044 C1.6243517,19.6237336 1.24602812,19.2079466 1.2359099,18.7076744 L1.12404468,13.1767551 C1.11413731,12.6869076 1.46059357,12.2620213 1.94240998,12.17313 Z" id="Rectangle" fill="#EAE01F" transform="translate(6.255373, 15.355272) rotate(-183.000000) translate(-6.255373, -15.355272) "></path>
                <path d="M5.38065045,7.69105634 L19.1698749,1.9951698 C20.1907771,1.57346785 21.3602388,2.0592156 21.7819408,3.08011777 C21.9988784,3.60530399 21.9821784,4.19797622 21.7360119,4.71011341 L15.4642449,17.758209 C15.1311925,18.4511079 14.4304535,18.8917723 13.6616669,18.8917723 L5.29578962,18.8917723 C4.19122012,18.8917723 3.29578962,17.9963418 3.29578962,16.8917723 C3.29578962,16.8151589 3.30019182,16.7386089 3.30897446,16.6625006 L4.15739421,9.31029156 C4.24069831,8.58839754 4.70900967,7.96848961 5.38065045,7.69105634 Z" id="Rectangle" fill="#666EBC"></path>
                <path d="M5.89135025,8.79130006 L18.7295741,3.44352826 C19.2393964,3.2311614 19.8248464,3.47229667 20.0372132,3.98211896 C20.1504886,4.25405541 20.1380985,4.56210272 20.003349,4.82406327 L13.7996217,16.8844624 C13.6310566,17.2121624 13.295922,17.4205975 12.9274633,17.4268962 L5.44371771,17.5548295 C4.89151364,17.5642693 4.4362113,17.1242719 4.42677147,16.5720679 C4.42597002,16.5251853 4.428467,16.4783045 4.43424392,16.4317723 L5.283493,9.59121175 C5.32774657,9.23475654 5.55977502,8.92941797 5.89135025,8.79130006 Z" id="Rectangle" fill="#00BFA6"></path>
            </g>
        </g>
    </g>
</svg>