<?xml version="1.0" encoding="UTF-8"?>
<svg width="24px" height="24px" viewBox="0 0 24 24" version="1.1" xmlns="http://www.w3.org/2000/svg" xmlns:xlink="http://www.w3.org/1999/xlink">
    <title>edit</title>
    <g id="01---Particles/03---Icon/02---Essentials/06---Editions/Edit" stroke="nonzero" stroke-width="1" fill="nonzero" fill-rule="evenodd">
        <path d="M5.52850813,15.9964122 L7.98850813,18.4577088 C7.97650813,18.4710355 7.96585188,18.4830482 7.95850813,18.4924019 C7.92185188,18.5591288 7.86250813,18.6125292 7.79050813,18.6412159 L7.79050813,18.6412159 L4.45716438,19.9759745 C4.41716438,19.9919915 4.37450813,20 4.33316438,20 C4.24650813,20 4.16116438,19.9666209 4.09716438,19.902553 C4.00316438,19.807765 3.97447688,19.6669595 4.02382063,19.5428279 L4.02382063,19.5428279 L5.35716438,16.2059781 C5.37316438,16.1639335 5.39850813,16.1258932 5.43050813,16.0938593 L5.43050813,16.0938593 L5.52850813,15.9964122 Z M13.719096,7.75012467 L16.1884377,10.257079 C13.5996844,12.8217813 11.9459855,14.4622391 10.8289105,15.5747094 L10.4630518,15.9393157 C10.4246463,15.9776196 10.3869666,16.0152102 10.3499901,16.0521098 L9.75545553,16.6465602 C9.25642266,17.1467159 8.92129103,17.4863051 8.63868785,17.7760932 L8.54094531,17.8764838 C8.50897059,17.9093783 8.47754157,17.9417639 8.44647688,17.9738209 L8.44647688,17.9738209 L5.99982063,15.5245683 L13.719096,7.75012467 Z M16.0238519,5.49353098 C16.6811644,4.83548967 17.8271644,4.83548967 18.4845081,5.49353098 C18.8198206,5.8292306 19.0011644,6.26904057 18.999859,6.73619203 C18.9985394,7.20268654 18.8151956,7.63980616 18.4831956,7.96749728 C17.8898519,8.55411914 17.3258519,9.11202305 16.7911956,9.64192853 L16.7911956,9.64192853 L14.3351956,7.18332226 Z" id="Combined-Shape" fill="nonzero"></path>
    </g>
</svg>