<?xml version="1.0" encoding="UTF-8"?>
<svg width="16px" height="13px" viewBox="0 0 16 13" version="1.1" xmlns="http://www.w3.org/2000/svg" xmlns:xlink="http://www.w3.org/1999/xlink">
    <title>Style</title>
    <g id="----------------:point_right:---ICONS" stroke="none" stroke-width="1" fill="none" fill-rule="evenodd">
        <g id="01---Particles/03---Icon/02---Essentials/03---Actions/Unsee" transform="translate(-4.000000, -5.000000)" fill="rgb(121,121,137)">
            <path d="M9.12252597,7.23482817 C10.0481894,6.88520526 11.0073474,6.7103938 12,6.7103938 C14.847775,6.7103938 17.4198789,8.14914824 19.7163116,11.0266571 C20.0945622,11.500611 20.0945623,12.182532 19.7163152,12.6564889 C18.8466736,13.7461803 17.9374986,14.6295429 16.9887901,15.3065766 L18.5145054,16.8721471 C18.7228082,17.0858912 18.7228082,17.4324388 18.5145054,17.6461829 L18.3259227,17.8396919 C18.1176199,18.053436 17.7798944,18.053436 17.5715916,17.8396919 L6.15790357,6.12785293 C5.9496008,5.91410883 5.9496008,5.56756116 6.15790357,5.35381705 L6.34648634,5.16030808 C6.55478911,4.94656397 6.89251464,4.94656397 7.10081741,5.16030808 L9.12252597,7.23482817 L9.12252597,7.23482817 Z M15.2727022,13.5456607 C15.5263946,13.0340423 15.6694177,12.4549475 15.6694177,11.8415753 C15.6694177,9.76340153 14.0276126,8.07870886 12.0023434,8.07870886 C11.4045859,8.07870886 10.8402333,8.22546802 10.3416393,8.4857874 L11.1011412,9.26512919 C11.3826424,9.16143902 11.6860634,9.10494515 12.0023434,9.10494515 C13.4752665,9.10494515 14.6693065,10.3301762 14.6693065,11.8415753 C14.6693065,12.1661172 14.6142508,12.4774643 14.5132003,12.7663189 L15.2727022,13.5456607 L15.2727022,13.5456607 Z M6.96827399,8.40737491 L8.70614333,10.1906413 C8.46860114,10.6890761 8.33526918,11.2493483 8.33526918,11.8415753 C8.33526918,13.919749 9.97707425,15.6044417 12.0023434,15.6044417 C12.579494,15.6044417 13.1255031,15.4676268 13.6112492,15.2238795 L14.8240009,16.4683109 C13.9148852,16.8046081 12.9735516,16.9727567 12,16.9727567 C9.152225,16.9727567 6.58012114,15.5340023 4.28368844,12.6564934 C3.90543784,12.1825395 3.90543774,11.5006185 4.28368482,11.0266616 C5.14019896,9.95341937 6.03506202,9.0803238 6.96827399,8.40737491 L6.96827399,8.40737491 Z M9.47152841,10.9760199 L12.8458641,14.4385008 C12.5807525,14.5291278 12.2971334,14.5782054 12.0023434,14.5782054 C10.5294204,14.5782054 9.33538034,13.3529743 9.33538034,11.8415753 C9.33538034,11.5390847 9.38320856,11.2480569 9.47152841,10.9760199 L9.47152841,10.9760199 Z" id="Style"></path>
        </g>
    </g>
</svg>