<?xml version="1.0" encoding="UTF-8"?>
<svg width="24px" height="24px" viewBox="0 0 24 24" version="1.1" xmlns="http://www.w3.org/2000/svg" xmlns:xlink="http://www.w3.org/1999/xlink">
    <title>feed-coloured</title>
    <g id="Feed-icon" stroke="none" stroke-width="1" fill="none" fill-rule="evenodd">
        <g id="Group" transform="translate(4.000000, 4.000000)" fill-rule="nonzero">
            <g id="feed_icon" transform="translate(0.099058, 4.799498)">
                <path d="M0.882345313,0.000502391857 C0.803142791,0.0113002406 0.73043831,0.0501423609 0.677433032,0.109976076 L0.0711172425,0.842607655 C0.0198033121,0.905697806 -0.0053183161,0.986087017 0.000941803914,1.06716906 C0.00451980638,1.15007655 0.0445989851,1.2271519 0.110415488,1.27769537 L2.24655584,3.06576555 L4.90480145,5.28611643 L7.13357338,7.16120415 C7.56999144,7.50168544 8.18206761,7.50168544 8.61848566,7.16120415 L15.6360295,1.2664673 C15.701846,1.21592383 15.7419252,1.13884848 15.7455032,1.05594099 C15.7521057,0.980058815 15.7311819,0.90433455 15.6865558,0.842607655 L15.08024,0.109976076 C15.0284193,0.0501299711 14.9565711,0.0112121839 14.8781348,0.000502391857 C14.7946759,-0.0039145339 14.7122879,0.0209011357 14.6451523,0.0706778305 L14.6451523,0.0706778305 C12.68024,1.70997608 10.3026962,4.45804625 7.90831022,4.45804625 C5.51392426,4.45804625 3.0886611,1.70997608 1.12374882,0.0706778305 L1.12374882,0.0706778305" id="Path" fill="#666EBC"></path>
                <path d="M3.13918742,3.73944976 C3.20298,3.70345003 3.26482102,3.66409665 3.32445058,3.62155502 L3.4086611,3.56260766 L3.4086611,3.56260766 C3.63883654,3.35488836 3.871819,3.15559011 4.09076637,2.93383573 L4.22831022,2.79067783 C3.12234531,1.91208134 2.0640997,0.865063795 1.12374882,0.0706778305 L1.12374882,0.0706778305 L0.882345313,0.000502391857 C0.803142791,0.0113002406 0.73043831,0.0501423609 0.677433032,0.109976076 L0.0711172425,0.842607655 C0.0198033121,0.905697806 -0.0053183161,0.986087017 0.000941803914,1.06716906 C0.00451980638,1.15007655 0.0445989851,1.2271519 0.110415488,1.27769537 L2.24655584,3.06576555 L3.0886611,3.76751994 L3.13918742,3.73944976 Z" id="Path" fill="#F75848"></path>
                <path d="M9.74129268,5.37874801 C9.46081827,5.03490741 9.20742723,4.66983662 8.98339794,4.28681818 C8.63471492,4.39760625 8.27135353,4.45532772 7.90550321,4.45804625 C7.48712659,4.4528682 7.07254578,4.3779211 6.67883654,4.23629187 L6.60585408,4.32050239 C6.52127269,4.60969785 6.39654912,4.88560151 6.23532777,5.14015151 C6.05523525,5.41263955 5.84733698,5.66569221 5.61497689,5.89523923 L7.12515233,7.16681818 C7.56157038,7.50729948 8.17364656,7.50729948 8.61006461,7.16681818 L10.1539243,5.87559011 C10.0219944,5.70716906 9.87602952,5.54716906 9.74129268,5.37874801 Z" id="Path" fill="#12B79D"></path>
                <path d="M15.6865558,0.842607655 L15.08024,0.109976076 C15.0284193,0.0501299711 14.9565711,0.0112121839 14.8781348,0.000502391857 C14.7946759,-0.0039145339 14.7122879,0.0209011357 14.6451523,0.0706778305 L14.6451523,0.0706778305 C13.7300646,0.842607655 12.7251523,1.83348485 11.6725208,2.68681818 C11.7314681,2.77102871 11.7904155,2.85804625 11.8521699,2.94225678 C12.0959983,3.23937421 12.3585189,3.5206463 12.6381348,3.78436204 L15.6472576,1.25804625 C15.7130741,1.20750278 15.7531533,1.13042743 15.7567313,1.04751994 C15.7581072,0.973097693 15.7332662,0.900561986 15.6865558,0.842607655 L15.6865558,0.842607655 Z" id="Path" fill="#EAE01F"></path>
            </g>
        </g>
    </g>
</svg>