<?xml version="1.0" encoding="UTF-8"?>
<svg width="24px" height="24px" viewBox="0 0 24 24" version="1.1" xmlns="http://www.w3.org/2000/svg" xmlns:xlink="http://www.w3.org/1999/xlink">
    <title>feed</title>
    <g id="FeedIcon" stroke="none" stroke-width="1" fill="nonzero" fill-rule="evenodd">
        <g id="Group_Feed_Icon" fill="nonzero">
            <path d="M16,5 C17.6568542,5 19,6.34314575 19,8 L19,16 C19,17.6568542 17.6568542,19 16,19 L9,19 C7.34314575,19 6,17.6568542 6,16 L6,8 C6,6.34314575 7.34314575,5 9,5 L16,5 Z M16.5035743,10.000271 C16.4717737,9.99868283 16.4402452,10.0041019 16.4113904,10.0158454 L16.3704135,10.0381189 C15.247371,10.9222469 13.8884896,12.4043725 12.5199821,12.4043725 C11.2235013,12.4043725 9.91118154,11.0741545 8.82174495,10.1823843 L8.64227685,10.0381189 L8.50430306,10.000271 C8.45903498,10.0060946 8.41748085,10.0270434 8.38718577,10.0593138 L8.04064695,10.4544463 C8.01131855,10.4884729 7.99696032,10.5318295 8.00053829,10.5755597 C8.00258329,10.6202745 8.02549048,10.6618438 8.0631078,10.6891036 L9.28401542,11.6534692 L10.8033315,12.8509782 L12.0771825,13.8622753 C12.3266166,14.0459082 12.6764477,14.0459082 12.9258818,13.8622753 L16.9367478,10.6830479 C16.9743651,10.6557881 16.9972723,10.6142188 16.9993173,10.5695041 C17.003091,10.5285783 16.991132,10.4877377 16.965626,10.4544463 L16.6190872,10.0593138 C16.5894691,10.0270368 16.5484044,10.0060471 16.5035743,10.000271 Z"></path>
        </g>
    </g>
</svg>