<?xml version="1.0" encoding="UTF-8"?>
<svg width="24px" height="24px" viewBox="0 0 24 24" version="1.1" xmlns="http://www.w3.org/2000/svg" xmlns:xlink="http://www.w3.org/1999/xlink">
    <title>fireworks</title>
    <defs>
        <path d="M8.66217845,13.7298231 C9.04768255,13.9949819 9.61287209,14.4920562 10.1918436,15.2077588 C11.1489734,16.3906398 11.819179,17.8126311 11.9826479,19.4471102 C12.0101285,19.7225386 11.8163807,19.9688998 11.5516221,19.9970935 C11.5343629,19.9990979 11.5241794,19.9996316 11.4996377,20 C11.2519737,20 11.0430016,19.8062863 11.0174081,19.5501084 C10.875703,18.1332807 10.2886684,16.8908216 9.44749624,15.8509776 C9.14937895,15.4825199 8.84007236,15.1641969 8.53708411,14.896766 C8.35247303,14.73382 8.20687193,14.6212191 8.1242588,14.5645246 C7.90123865,14.4109753 7.84081426,14.0996023 7.98937443,13.8692685 C8.13793063,13.6387449 8.43911662,13.5762766 8.66217845,13.7298231 Z M16.0107692,13.869434 C16.1591916,14.0998679 16.0986971,14.4112154 15.8758071,14.5644792 C15.7906473,14.6231616 15.6476454,14.7337454 15.4631346,14.8965968 C15.1601853,15.1639833 14.8508684,15.4823309 14.5526267,15.8509626 C13.7113767,16.8909028 13.1243135,18.1334213 12.9827034,19.5502156 C12.9571,19.8062976 12.7480191,20 12.5004731,20 C12.4762222,19.9996253 12.4762222,19.9996253 12.4500663,19.9973966 C12.183621,19.9687984 11.9899909,19.7224518 12.017468,19.4470597 C12.1809318,17.8126311 12.8511374,16.3906398 13.8082501,15.2077799 C14.3874952,14.49172 14.9470662,13.9996654 15.337992,13.729782 C15.5611029,13.5763662 15.8622634,13.6388127 16.0107692,13.869434 Z M7.55281756,16.7008088 L7.60151393,16.7115422 C7.8767213,16.7875243 8.27424347,16.951964 8.72050477,17.2330649 C9.46435517,17.7016922 10.0936074,18.3591745 10.4821571,19.2348571 C10.5939139,19.4866405 10.4870614,19.7841902 10.2431027,19.8998787 C10.1791017,19.9300874 10.1105078,19.9453904 10.04136,19.9453904 C9.85323592,19.9453904 9.67999466,19.8328482 9.60010299,19.6529386 C9.29978295,18.9759705 8.80475755,18.460532 8.21537621,18.0893391 C8.00630069,17.9576008 7.79811072,17.8522406 7.60085291,17.7709355 C7.48337357,17.7225133 7.3965446,17.6931121 7.35118788,17.6804406 C7.09231181,17.6089418 6.93848652,17.3342537 7.00760885,17.0668668 C7.07227824,16.8160179 7.31000484,16.6605047 7.55281756,16.7008088 Z M17.2613186,17.0668667 C17.3302903,17.3344042 17.1763984,17.6091671 16.9181853,17.680286 C16.8723525,17.6930897 16.7854814,17.7225106 16.6680107,17.7709333 C16.4707631,17.8522409 16.2625554,17.9576051 16.0534226,18.0893504 C15.4641152,18.4605858 14.969107,18.9760064 14.668756,19.6528432 C14.5890364,19.8327826 14.4157475,19.9453904 14.2275674,19.9453904 C14.1584108,19.9453904 14.0897099,19.930085 14.0253356,19.8996996 C13.7818236,19.7841327 13.6750338,19.4865948 13.7867595,19.2348814 C14.17532,18.3591745 14.8045723,17.7016922 15.5484155,17.2330694 C15.9947659,16.9518412 16.3906776,16.7881153 16.6675647,16.7115005 C16.9265684,16.6402147 17.1923347,16.7992823 17.2613186,17.0668667 Z M5.64660461,16.7158685 C5.91457048,16.7158685 6.1317853,16.9404483 6.1317853,17.2172847 L6.1317853,17.4613679 C6.1317853,17.7382043 5.91457048,17.9627841 5.64660461,17.9627841 C5.37863871,17.9627841 5.16142392,17.7382043 5.16142392,17.4613679 L5.16142392,17.2172847 C5.16142392,16.9404483 5.37863871,16.7158685 5.64660461,16.7158685 Z M18.3533954,16.7158685 C18.6213613,16.7158685 18.8385761,16.9404483 18.8385761,17.2172847 L18.8385761,17.4613679 C18.8385761,17.7382043 18.6213613,17.9627841 18.3533954,17.9627841 C18.0855142,17.9627841 17.8682147,17.7381773 17.8682147,17.4613679 L17.8682147,17.2172847 C17.8682147,16.9404753 18.0855142,16.7158685 18.3533954,16.7158685 Z M12.0317878,16.5341786 L12.0951149,16.5428629 C12.1261609,16.54932 12.1565912,16.5589035 12.1849356,16.5710815 C12.2148532,16.5837681 12.243364,16.5995019 12.2675478,16.6163755 C12.2947866,16.6347461 12.3201556,16.6560861 12.3431357,16.679839 C12.3661541,16.7036314 12.386774,16.72972 12.4034323,16.7561279 C12.4208887,16.7831931 12.4359081,16.8121787 12.448338,16.8430995 C12.4608918,16.8747282 12.4703481,16.9067442 12.4752813,16.9349389 C12.4818397,16.9676373 12.4852361,17.001138 12.4852361,17.0343436 C12.4852361,17.0676214 12.4818239,17.1013283 12.4755174,17.1325537 C12.4692542,17.1647268 12.4600926,17.1961287 12.448338,17.2253587 C12.4362223,17.2558839 12.4211012,17.2851647 12.4045291,17.3108405 C12.386774,17.3389671 12.3661542,17.3650557 12.3431359,17.3888481 C12.3201554,17.4126013 12.2947864,17.4339414 12.2692113,17.4511777 C12.242662,17.4694724 12.2144543,17.4850883 12.1857843,17.4972435 C12.1555921,17.5102129 12.1245615,17.5200857 12.0951149,17.5258244 C12.0637759,17.5323424 12.0317672,17.5357599 12.0000554,17.5357599 C11.9683435,17.5357599 11.9363348,17.5323424 11.9073214,17.5262934 C11.8755493,17.5200857 11.8445187,17.5102129 11.8151752,17.4976057 C11.7856338,17.4850787 11.757298,17.4694448 11.7324524,17.4523119 C11.7052367,17.4339569 11.6799943,17.4126416 11.6569749,17.3888481 C11.6339566,17.3650557 11.6133368,17.3389671 11.5972395,17.3134245 C11.5792758,17.2858722 11.5640574,17.2563095 11.5521228,17.226235 C11.53958,17.1950389 11.5300322,17.1629778 11.5244827,17.132554 C11.5181794,17.1001756 11.5148747,17.0671059 11.5148747,17.0343436 C11.5148747,17.0015813 11.5181795,16.9685115 11.5240293,16.9385351 C11.529981,16.9059898 11.5393879,16.8743026 11.5521228,16.8422231 C11.5643801,16.8117373 11.5794852,16.7824939 11.5955817,16.7578468 C11.6133368,16.72972 11.6339567,16.7036314 11.6569748,16.6798394 C11.6799941,16.6560458 11.7052365,16.6347305 11.7299512,16.6180898 C11.7566133,16.5995176 11.7852221,16.5837832 11.8143265,16.5714437 C11.8435196,16.5589035 11.8739499,16.54932 11.9052276,16.5428149 C11.9470039,16.5341786 11.989519,16.5312999 12.0317878,16.5341786 Z M4.72132291,15.7596316 C4.98931485,15.7596316 5.2065036,15.9841239 5.2065036,16.2610478 C5.2065036,16.5378843 4.98928879,16.7624641 4.72132291,16.7624641 L4.48518069,16.7624641 C4.21729951,16.7624641 4,16.5378573 4,16.2610478 C4,15.9841508 4.21727343,15.7596316 4.48518069,15.7596316 L4.72132291,15.7596316 Z M6.80802849,15.7596316 C7.07602044,15.7596316 7.29320918,15.9841239 7.29320918,16.2610478 C7.29320918,16.5378843 7.07599437,16.7624641 6.80802849,16.7624641 L6.57199706,16.7624641 C6.30403118,16.7624641 6.08681637,16.5378843 6.08681637,16.2610478 C6.08681637,15.9841239 6.30400511,15.7596316 6.57199706,15.7596316 L6.80802849,15.7596316 Z M17.4281137,15.7596316 C17.6961057,15.7596316 17.9132944,15.9841239 17.9132944,16.2610478 C17.9132944,16.5378843 17.6960796,16.7624641 17.4281137,16.7624641 L17.1920823,16.7624641 C16.9241164,16.7624641 16.7069016,16.5378843 16.7069016,16.2610478 C16.7069016,15.9841239 16.9240903,15.7596316 17.1920823,15.7596316 L17.4281137,15.7596316 Z M19.5148193,15.7596316 C19.7828113,15.7596316 20,15.9841239 20,16.2610478 C20,16.5378843 19.7827852,16.7624641 19.5148193,16.7624641 L19.2787879,16.7624641 C19.0109067,16.7624641 18.7936072,16.5378573 18.7936072,16.2610478 C18.7936072,15.9841508 19.0108806,15.7596316 19.2787879,15.7596316 L19.5148193,15.7596316 Z M12.0000554,11.1464377 C12.2612524,11.1464377 12.4852361,11.3424245 12.4852361,11.6028099 L12.4852361,15.6955473 C12.4852361,15.9559326 12.2612524,16.1519194 12.0000554,16.1519194 C11.7388297,16.1519194 11.5148747,15.9560106 11.5148747,15.6955473 L11.5148747,11.6028099 C11.5148747,11.3424245 11.7388584,11.1464377 12.0000554,11.1464377 Z M5.64660461,14.5593116 C5.91459654,14.5593116 6.1317853,14.7838039 6.1317853,15.0607278 L6.1317853,15.3046964 C6.1317853,15.5816204 5.91459655,15.8061127 5.64660461,15.8061127 C5.37861264,15.8061127 5.16142392,15.5816204 5.16142392,15.3046964 L5.16142392,15.0607278 C5.16142392,14.7838039 5.37861265,14.5593116 5.64660461,14.5593116 Z M18.3533954,14.5593116 C18.6213874,14.5593116 18.8385761,14.7838039 18.8385761,15.0607278 L18.8385761,15.3046964 C18.8385761,15.5816204 18.6213874,15.8061127 18.3533954,15.8061127 C18.0854882,15.8061127 17.8682147,15.5815935 17.8682147,15.3046964 L17.8682147,15.0607278 C17.8682147,14.7838308 18.0854882,14.5593116 18.3533954,14.5593116 Z M7.61819608,9.74420251 C7.76075905,9.81925272 7.85835473,9.96222043 7.87900991,10.1261633 L8.02315198,11.2693463 L8.83336626,12.0618348 C8.94946346,12.1755718 9.00385439,12.3410344 8.97885324,12.5043085 C8.95385286,12.6675769 8.85256291,12.8076159 8.70801263,12.878792 L7.700715,13.3737219 L7.22191168,14.4149576 C7.15312978,14.5641981 7.01762864,14.6689082 6.86076986,14.6945661 C6.83525307,14.6988963 6.80952502,14.700984 6.78367576,14.700984 C6.65072623,14.700984 6.52325772,14.6445473 6.43129965,14.5442379 L5.66472267,13.7070263 L4.55880283,13.5580467 C4.40005973,13.5366789 4.26170931,13.4357231 4.18918099,13.2883331 C4.11658739,13.1410064 4.11890952,12.9661105 4.19542871,12.8210427 L4.72881751,11.8086477 L4.52425017,10.6755905 C4.49468324,10.5129893 4.54480876,10.345817 4.65800973,10.2288093 C4.77123204,10.1117797 4.93302839,10.0599484 5.09017246,10.0904773 L6.18641546,10.3020609 L7.1658265,9.75065426 C7.30638788,9.67154865 7.47562626,9.6691487 7.61819608,9.74420251 Z M16.7802059,9.72457136 L16.8341874,9.75066207 L17.8135846,10.3019534 L18.9095933,10.0905227 C19.0669716,10.0599484 19.228768,10.1117797 19.3419903,10.2288094 C19.4550557,10.3456769 19.5051143,10.5126259 19.4759045,10.6753487 L19.2711901,11.8085351 L19.8047897,12.8211328 C19.881142,12.9664392 19.8834628,13.1412888 19.810819,13.2883331 C19.7382158,13.4356793 19.5998776,13.5365728 19.4412195,13.5579292 L18.3353814,13.7069118 L17.5688922,14.5439136 C17.4771188,14.6444219 17.349535,14.700984 17.216435,14.700984 C17.1905081,14.700984 17.1648849,14.698901 17.1404874,14.6947572 C16.9824151,14.6688972 16.8469083,14.5642361 16.7781272,14.4148013 L16.2992876,13.3736054 L15.2922343,12.8787443 C15.147594,12.8078131 15.0461675,12.66771 15.0211468,12.5043084 C14.9961391,12.340992 15.050675,12.1753488 15.1668507,12.0617309 L15.9768471,11.2693538 L16.1209875,10.1261839 C16.1416453,9.96222039 16.239241,9.8192527 16.381711,9.74425145 C16.5065368,9.6784547 16.6516618,9.67210823 16.7802059,9.72457136 Z M16.9917297,10.9813126 L16.9168516,11.5756452 C16.9048412,11.671039 16.8665982,11.7604363 16.8073076,11.8333214 L16.7692491,11.8749868 L16.3479427,12.2871372 L16.8719987,12.5446019 C16.9558747,12.5859093 17.0262183,12.651018 17.0750551,12.7318199 L17.1017127,12.7821193 L17.3506504,13.3233948 L17.7491374,12.8881947 C17.8130873,12.8183404 17.8948227,12.769272 17.9843385,12.7462411 L18.0389016,12.735589 L18.6139291,12.6581128 L18.3363838,12.131472 C18.2920223,12.0471085 18.2721721,11.9517514 18.2786202,11.8567397 L18.2856593,11.7998647 L18.3920783,11.2105261 L17.8217366,11.3206478 C17.730322,11.3381095 17.6364208,11.328142 17.5510854,11.292438 L17.5010005,11.2679408 L16.9917297,10.9813126 Z M7.00831209,10.9813485 L6.49897498,11.2681313 C6.41733,11.3139993 6.32494328,11.3345347 6.2330254,11.3278629 L6.17802061,11.3205799 L5.60792025,11.2105947 L5.71428303,11.7995465 C5.73151518,11.8941606 5.72189161,11.9915162 5.68728433,12.0798206 L5.66353689,12.1316228 L5.38614691,12.6581081 L5.96116698,12.7355834 C6.05349193,12.7480023 6.14000661,12.7875427 6.21052644,12.8488289 L6.25083748,12.8881672 L6.64944787,13.3234219 L6.89841146,12.7820904 C6.93834746,12.6952904 7.00133923,12.6225935 7.07956911,12.572094 L7.12827307,12.5445228 L7.65209463,12.2871372 L7.23105625,11.8751769 C7.163392,11.809159 7.11587332,11.7246576 7.09357596,11.6321038 L7.0832647,11.5756887 L7.00831209,10.9813485 Z M12.0000554,5.08117022 C12.1599946,5.08117022 12.3096695,5.16262923 12.4003279,5.29907313 L13.2128789,6.5246454 L14.5915679,6.94470184 C14.7450473,6.99151059 14.8663143,7.11339003 14.9157626,7.27064007 C14.9652199,7.42791854 14.9364292,7.60028553 14.8388629,7.73128899 L13.9623561,8.90891254 L14.0019208,10.394006 C14.0062784,10.5592909 13.9314677,10.7162901 13.8020906,10.8134043 C13.7189279,10.8758848 13.6189199,10.9092238 13.5168149,10.9092238 C13.4617621,10.9092238 13.4069179,10.8994959 13.3541957,10.8802276 L12.0000528,10.3824449 L10.6458607,10.8802068 C10.4951278,10.9356683 10.3275641,10.9106437 10.1979337,10.8133393 C10.068586,10.7160514 9.993834,10.5592287 9.99819156,10.3939469 L10.0377547,8.90880349 L9.16137357,7.73145764 C9.06369089,7.60049396 9.03488002,7.42795304 9.08434815,7.27064013 C9.13379648,7.11339003 9.25506351,6.99151059 9.4085955,6.94468579 L10.7872319,6.5246454 L11.5998984,5.29889913 C11.6904413,5.16262923 11.8401162,5.08117022 12.0000554,5.08117022 Z M12.0000554,6.46959743 L11.4902141,7.23853968 C11.4376055,7.31790167 11.3642898,7.37958641 11.2794101,7.41674231 L11.2271677,7.43603757 L10.3619784,7.69971224 L10.911976,8.43862337 C10.9687046,8.51473616 11.0027882,8.60578117 11.0108186,8.70079328 L11.0124832,8.75818888 L10.9876764,9.6901592 L11.8375519,9.37780054 C11.92515,9.34566151 12.0194521,9.340305 12.1093491,9.36175458 L12.1626698,9.37784124 L13.0123509,9.6901592 L12.9876352,8.75846961 C12.9849496,8.66229299 13.0091966,8.56780444 13.0567536,8.48611675 L13.088056,8.43872914 L13.6381324,7.69971222 L12.7731282,7.43609388 C12.6838343,7.40897666 12.6044044,7.35599938 12.5438813,7.28399145 L12.5099086,7.23855765 L12.0000554,6.46959743 Z M17.2305017,5 C17.3905123,5 17.5402153,5.08152758 17.6307719,5.2180139 L17.9496651,5.69898027 L18.4906685,5.8638441 C18.6440745,5.91063049 18.7652995,6.03241592 18.815044,6.19000557 C18.8643007,6.34724891 18.8355793,6.51950981 18.7380649,6.65044371 L18.393995,7.11264377 L18.4095178,7.69533593 C18.4140671,7.86069699 18.3392575,8.01769553 18.2097353,8.11491859 C18.0803424,8.21204463 17.912879,8.23700099 17.7620415,8.18169704 L17.2305079,7.98637233 L16.6987438,8.18181752 C16.646371,8.20095777 16.5915268,8.21068566 16.536474,8.21068566 C16.4343689,8.21068566 16.3343609,8.17734673 16.251268,8.11491861 C16.1217458,8.01769553 16.0469362,7.86069699 16.0514794,7.69555946 L16.0669099,7.11264375 L15.7229659,6.65048051 C15.625424,6.51950985 15.5967026,6.34724893 15.6460294,6.18978238 C15.6954777,6.03253229 15.8167447,5.91065284 15.9702761,5.86382824 L16.5113414,5.6989755 L16.8302682,5.21795848 C16.920788,5.08152758 17.070491,5 17.2305017,5 Z M6.76960912,5 C6.92954836,5 7.07922328,5.08145901 7.16987933,5.21789942 L7.4887833,5.69888199 L8.02955613,5.8637772 C8.18313208,5.91041941 8.30449639,6.03244999 8.35397064,6.18978236 C8.40340128,6.34697619 8.37467392,6.51927249 8.27715928,6.65046124 L7.93310287,7.11254174 L7.94863196,7.69546796 C7.9529898,7.86076048 7.87828389,8.01775639 7.74891264,8.11486612 C7.66572569,8.17736492 7.56582137,8.21068566 7.4636368,8.21068566 C7.40858401,8.21068566 7.3537398,8.20095777 7.30102713,8.18169296 L6.76960912,7.98637464 L6.23818159,8.18169646 C6.08740787,8.2371033 5.92004272,8.21210829 5.79037552,8.11491861 C5.66093152,8.01775425 5.58622853,7.86087114 5.59058788,7.6955232 L5.60611573,7.11264376 L5.26207329,6.65048047 C5.16447518,6.51943419 5.13578789,6.34706873 5.18522487,6.18985481 C5.23465015,6.03248226 5.3559132,5.9105535 5.50948482,5.86371666 L6.05044573,5.69886579 L6.36945208,5.21772891 C6.45999502,5.08145901 6.60966994,5 6.76960912,5 Z M17.2303909,6.38846379 L17.2142108,6.41287008 C17.1616628,6.49214082 17.0884465,6.55370781 17.0034675,6.59098017 L16.9511398,6.61037551 L16.9235729,6.61877286 L16.9412846,6.64256825 C16.9979168,6.71876395 17.0319971,6.80986327 17.0399256,6.90466393 L17.0415158,6.96189887 L17.040724,6.99170881 L17.067907,6.98172596 C17.1203221,6.9625016 17.175134,6.95277943 17.2305017,6.95277943 C17.2674438,6.95277943 17.3042326,6.95712439 17.340052,6.96570954 L17.392952,6.9817543 L17.420058,6.99170881 L17.419274,6.96219189 C17.4165884,6.86601525 17.4408354,6.77152671 17.488373,6.68986509 L17.5196613,6.64249646 L17.537291,6.61879788 L17.5097097,6.61039614 C17.4205106,6.58325968 17.3410545,6.53027348 17.2805384,6.45829079 L17.2465751,6.41287643 L17.2303909,6.38846379 Z M6.76960912,6.38846379 L6.75342907,6.41287008 C6.69037143,6.50799496 6.59755153,6.57762644 6.4903581,6.61037551 L6.46279118,6.61877286 L6.48033716,6.6423456 C6.54841149,6.73368098 6.58387708,6.84651873 6.58084478,6.96189887 L6.580053,6.9917091 L6.60680408,6.98188495 C6.65912772,6.96255558 6.71419595,6.95277943 6.76960912,6.95277943 C6.82503074,6.95277943 6.88020721,6.96255775 6.93217026,6.9817543 L6.95927623,6.9917091 L6.95849226,6.96219189 C6.9552729,6.84689911 6.99075679,6.73400304 7.05880218,6.64245157 L7.07642709,6.61877279 L7.04902077,6.61042435 C6.94186808,6.57788369 6.8489195,6.50810454 6.78579338,6.41287643 L6.76960912,6.38846379 Z" id="path-1"></path>
    </defs>
    <g id="01---Particles/03---Icon/04---Others/Fireworks" stroke="none" stroke-width="1" fill="nonzero" fill-rule="evenodd">
        <mask id="mask-2" fill="nonzero">
            <use xlink:href="#path-1"></use>
        </mask>
        <use id="Shape" fill="nonzero" xlink:href="#path-1"></use>
    </g>
</svg>