<?xml version="1.0" encoding="UTF-8"?>
<svg width="24px" height="24px" viewBox="0 0 24 24" version="1.1" xmlns="http://www.w3.org/2000/svg" xmlns:xlink="http://www.w3.org/1999/xlink">
    <title>glad24</title>
    <defs>
        <path d="M12,4 C16.418278,4 20,7.581722 20,12 C20,16.3349143 16.5521622,19.8645429 12.2491793,19.9961932 L12,20 C7.581722,20 4,16.418278 4,12 C4,7.581722 7.581722,4 12,4 Z M11.8181817,14.5454545 C10.3404554,14.5454546 8.36363638,14.7076736 8.36363636,15.0572748 C8.36363638,15.7869343 9.4402299,16.5386156 10.3168807,16.7986801 C11.1935316,17.0587446 12.7033496,17.0382794 13.363297,16.7986801 C14.0232445,16.5590808 15.2727271,15.8894815 15.2727273,15.0572748 C15.2727271,14.7032946 13.2959081,14.5454545 11.8181817,14.5454545 Z M8.90909091,10.1818182 C8.20618305,10.1818182 7.63636364,10.7516376 7.63636364,11.4545455 C7.63636364,11.6107472 7.76299017,11.7373737 7.91919192,11.7373737 C8.07539367,11.7373737 8.2020202,11.6107472 8.2020202,11.4545455 C8.2020202,11.0640411 8.51858654,10.7474747 8.90909091,10.7474747 C9.29959528,10.7474747 9.61616162,11.0640411 9.61616162,11.4545455 C9.61616162,11.6107472 9.74278815,11.7373737 9.8989899,11.7373737 C10.0551916,11.7373737 10.1818182,11.6107472 10.1818182,11.4545455 C10.1818182,10.7516376 9.61199877,10.1818182 8.90909091,10.1818182 Z M15.0909091,10.1818182 C14.3880012,10.1818182 13.8181818,10.7516376 13.8181818,11.4545455 C13.8181818,11.6107472 13.9448084,11.7373737 14.1010101,11.7373737 C14.2572118,11.7373737 14.3838384,11.6107472 14.3838384,11.4545455 C14.3838384,11.0640411 14.7004047,10.7474747 15.0909091,10.7474747 C15.4814135,10.7474747 15.7979798,11.0640411 15.7979798,11.4545455 C15.7979798,11.6107472 15.9246063,11.7373737 16.0808081,11.7373737 C16.2370098,11.7373737 16.3636364,11.6107472 16.3636364,11.4545455 C16.3636364,10.7516376 15.793817,10.1818182 15.0909091,10.1818182 Z" id="path-1"></path>
    </defs>
    <g id="01---Particles/03---Icon/04---Others/Smiley/1---Glad" stroke="none" stroke-width="1" fill="nonzero" fill-rule="evenodd">
        <mask id="mask-2" fill="nonzero">
            <use xlink:href="#path-1"></use>
        </mask>
        <use id="Shape" fill="nonzero" xlink:href="#path-1"></use>
    </g>
</svg>