<svg id="Calque_1" data-name="Calque 1" xmlns="http://www.w3.org/2000/svg" viewBox="0 0 267.86 267.86"><title>glad</title><path id="prefix_a" data-name="prefix  a" d="M142,8.07a133.93,133.93,0,0,1,2.64,267.83l-2.64,0A133.93,133.93,0,1,1,142,8.07Zm-3,176.54c-24.74,0-57.83,2.72-57.83,8.58,0,12.21,18,24.79,32.7,29.15s40,4,51,0,32-15.22,32-29.15c0-5.93-33.09-8.57-57.83-8.57Zm-48.7-73a21.3,21.3,0,0,0-21.3,21.3,4.73,4.73,0,1,0,9.47,0,11.84,11.84,0,1,1,23.67,0,4.74,4.74,0,1,0,9.48,0A21.31,21.31,0,0,0,90.25,111.56Zm103.49,0a21.31,21.31,0,0,0-21.31,21.3,4.74,4.74,0,1,0,9.48,0,11.84,11.84,0,1,1,23.67,0,4.73,4.73,0,1,0,9.47,0A21.3,21.3,0,0,0,193.75,111.56Z" transform="translate(-8.07 -8.07)"/></svg>