<svg id="Calque_1" data-name="Calque 1" xmlns="http://www.w3.org/2000/svg" viewBox="0 0 274.48 247.03"><title>group-add</title><path id="a" d="M120,238.07a8.23,8.23,0,0,1,8.23,8.23h0v11a8.23,8.23,0,0,1-8.23,8.23H81.61a8.23,8.23,0,0,1-8.23-8.23h0v-11a8.23,8.23,0,0,1,8.23-8.23H120ZM100.83,18.48a68.62,68.62,0,0,1,48.29,117.37,82.36,82.36,0,0,1,47.78,74.76v46.66a8.23,8.23,0,0,1-8.23,8.23H150.23a8.23,8.23,0,0,1-8.23-8.23h0v-11a8.23,8.23,0,0,1,8.23-8.23H166.7a2.74,2.74,0,0,0,2.74-2.74h0v-24.7a54.9,54.9,0,0,0-54.9-54.9H87.1a54.9,54.9,0,0,0-54.9,54.9v24.7A2.75,2.75,0,0,0,35,238.07H51.42a8.23,8.23,0,0,1,8.23,8.23h0v11a8.23,8.23,0,0,1-8.23,8.23H13a8.23,8.23,0,0,1-8.23-8.23h0V210.62a82.36,82.36,0,0,1,47.78-74.76A68.62,68.62,0,0,1,100.83,18.48Zm0,27.45A41.17,41.17,0,1,0,142,87.1,41.17,41.17,0,0,0,100.83,45.93Zm145.47,0a5.49,5.49,0,0,1,5.49,5.49v22h22a5.49,5.49,0,0,1,5.49,5.49V95.34a5.49,5.49,0,0,1-5.49,5.49h-22v22a5.49,5.49,0,0,1-5.49,5.49H229.83a5.49,5.49,0,0,1-5.49-5.49v-22h-22a5.49,5.49,0,0,1-5.49-5.49V78.87a5.49,5.49,0,0,1,5.49-5.49h22v-22a5.49,5.49,0,0,1,5.49-5.49Z" transform="translate(-4.76 -18.48)"/></svg>