<?xml version="1.0" encoding="UTF-8"?>
<svg width="24px" height="24px" viewBox="0 0 24 24" version="1.1" xmlns="http://www.w3.org/2000/svg" xmlns:xlink="http://www.w3.org/1999/xlink">
    <title>groups24</title>
    <g id="01---Particles/03---Icon/02---Essentials/04---Navigation/Groups" stroke="none" stroke-width="1" fill="nonzero" fill-rule="evenodd">
        <path d="M17.6903125,12.35375 C18.963875,12.35375 19.9999688,13.389875 19.9999688,14.6634063 L19.9999688,14.6634063 L19.9999688,17.2128125 C19.9999688,17.9769375 19.3783125,18.598625 18.6141563,18.598625 L18.6141563,18.598625 L16.5685,18.598625 C16.6197813,18.4540625 16.6479688,18.298625 16.6479688,18.1366875 L16.6479688,18.1366875 L16.6479688,13.460125 C16.6479688,13.0717188 16.5790625,12.6990625 16.4529375,12.35375 L16.4529375,12.35375 Z M7.5470625,12.3537813 C7.4209375,12.6990938 7.35203125,13.0717188 7.35203125,13.4601563 L7.35203125,13.4601563 L7.35203125,18.1367188 C7.35203125,18.2986563 7.38021875,18.4540625 7.4315,18.5986875 L7.4315,18.5986875 L5.3858125,18.5986875 C4.62165625,18.5986875 4,17.977 4,17.212875 L4,17.212875 L4,14.6634688 C4,13.3899063 5.036125,12.3537813 6.3096875,12.3537813 L6.3096875,12.3537813 Z M13.4144063,11.1504688 C14.6879688,11.1504688 15.7240938,12.1865938 15.7240938,13.4601563 L15.7240938,13.4601563 L15.7240938,18.1367188 C15.7240938,18.3918438 15.5172813,18.5986563 15.2621563,18.5986563 L15.2621563,18.5986563 L8.73784375,18.5986563 C8.48271875,18.5986563 8.27590625,18.3918125 8.27590625,18.1367188 L8.27590625,18.1367188 L8.27590625,13.4601563 C8.27590625,12.1865938 9.31203125,11.1504688 10.5855938,11.1504688 L10.5855938,11.1504688 Z M7.1224375,7.61528125 C8.26790625,7.61528125 9.19978125,8.5471875 9.19978125,9.692625 C9.19978125,10.0451563 9.11125,10.3773125 8.955625,10.6684688 C8.73390625,11.0833125 8.37559375,11.4145 7.94103125,11.6015938 C7.6896875,11.7097813 7.413,11.7699688 7.1224375,11.7699688 C5.97696875,11.7699688 5.04509375,10.8380938 5.04509375,9.692625 C5.04509375,8.54715625 5.97696875,7.61528125 7.1224375,7.61528125 Z M16.8775625,7.61528125 C18.0230313,7.61528125 18.9549063,8.54715625 18.9549063,9.692625 C18.9549063,10.8380938 18.0230313,11.7699688 16.8775625,11.7699688 C16.587,11.7699688 16.3103125,11.7097813 16.0589688,11.6015938 C15.6244063,11.4145313 15.2660938,11.0833438 15.044375,10.6684688 C14.88875,10.3773438 14.8002188,10.0451875 14.8002188,9.692625 C14.8002188,8.54715625 15.7320938,7.61528125 16.8775625,7.61528125 Z M12,5.02625 C13.531625,5.02625 14.7776875,6.27234375 14.7776875,7.80396875 C14.7776875,8.84284375 14.2043125,9.75021875 13.3574688,10.2265938 C12.9558125,10.4525313 12.49275,10.5816563 12,10.5816563 C11.50725,10.5816563 11.0441875,10.4525313 10.6425313,10.2265938 C9.79571875,9.75021875 9.2223125,8.842875 9.2223125,7.80396875 C9.2223125,6.2723125 10.468375,5.02625 12,5.02625 Z" id="Combined-Shape" fill="nonzero"></path>
    </g>
</svg>