<svg id="Calque_1" data-name="Calque 1" xmlns="http://www.w3.org/2000/svg" viewBox="0 0 278.77 250.89"><title>groups</title><path id="a" d="M175.45,239.57a8.36,8.36,0,0,1,8.36,8.36h0v11.15a8.36,8.36,0,0,1-8.36,8.36h-66.9a8.36,8.36,0,0,1-8.36-8.36h0V247.93a8.36,8.36,0,0,1,8.36-8.36h66.9Zm22.3-223a62.72,62.72,0,0,1,46,105.37,69.69,69.69,0,0,1,37.63,61.89v27.88a27.88,27.88,0,0,1-27.88,27.88H225.63a27.88,27.88,0,0,1-27.88,27.88V211.69a41.82,41.82,0,0,0-41.82-41.82H128.06a41.82,41.82,0,0,0-41.82,41.82v55.75a27.88,27.88,0,0,1-27.88-27.88H30.49A27.88,27.88,0,0,1,2.62,211.69V183.82a69.69,69.69,0,0,1,37.63-61.89,62.72,62.72,0,1,1,98.22-77.39,63.73,63.73,0,0,1,7.05,0A62.69,62.69,0,0,1,197.75,16.55ZM211.69,142H194.16a63,63,0,0,1-6.16,7.8,69.69,69.69,0,0,1,37.63,61.89h27.88V183.82A41.82,41.82,0,0,0,211.69,142ZM89.84,142H72.31a41.82,41.82,0,0,0-41.82,41.82v27.88H58.37A69.69,69.69,0,0,1,96,149.8,63,63,0,0,1,89.84,142ZM142,72.31a34.85,34.85,0,1,0,34.85,34.85A34.85,34.85,0,0,0,142,72.31Zm55.75-27.88a34.83,34.83,0,0,0-23.37,9,62.69,62.69,0,0,1,30,60.07,34.86,34.86,0,0,0-6.66-69.06Zm-111.51,0a34.85,34.85,0,0,0-6.66,69.06,62.69,62.69,0,0,1,30-60.07A34.8,34.8,0,0,0,86.25,44.43Z" transform="translate(-2.62 -16.55)"/></svg>