<svg id="Calque_1" data-name="Calque 1" xmlns="http://www.w3.org/2000/svg" viewBox="0 0 248 210.38"><title>group</title><path d="M215.2,147.21A35.84,35.84,0,0,1,251,183v39.51A21.51,21.51,0,0,1,229.52,244H197.8a21.13,21.13,0,0,0,1.24-7.16V164.35a50,50,0,0,0-3-17.14ZM58,147.21a49.91,49.91,0,0,0-3,17.14v72.49A21.13,21.13,0,0,0,56.2,244H24.48A21.51,21.51,0,0,1,3,222.52V183a35.85,35.85,0,0,1,35.8-35.81Zm90.94-18.66a35.85,35.85,0,0,1,35.8,35.8v72.49a7.16,7.16,0,0,1-7.16,7.16H76.44a7.16,7.16,0,0,1-7.16-7.16V164.35a35.85,35.85,0,0,1,35.81-35.81ZM51.39,73.75A32.2,32.2,0,1,1,19.2,106,32.24,32.24,0,0,1,51.39,73.75Zm151.22,0A32.18,32.18,0,1,1,170.4,106,32.24,32.24,0,0,1,202.61,73.75ZM127,33.62A43.05,43.05,0,1,1,84,76.68,43.1,43.1,0,0,1,127,33.62Z" transform="translate(-3 -33.62)"/></svg>