<?xml version="1.0" encoding="UTF-8"?>
<svg width="24px" height="24px" viewBox="0 0 24 24" version="1.1" xmlns="http://www.w3.org/2000/svg" xmlns:xlink="http://www.w3.org/1999/xlink">
    <title>handshake</title>
    <defs>
        <path d="M4.2741785,7.66735978 L4.33691963,7.67216249 L6.33194445,8.02590591 C6.67470664,8.08685338 7.02500731,8.09637545 7.37072764,8.05406891 L7.37072764,8.05406891 L8.59711397,7.90456928 L8.43654757,8.16451875 C8.15476117,8.62601356 8.25167992,9.21796386 8.66680514,9.5709939 C9.08193036,9.92399293 9.69655488,9.93711292 10.1271069,9.60213449 L10.1271069,9.60213449 L10.9660091,8.95022925 L11.9598159,8.95022925 C12.0997708,8.9501362 12.2348909,9.00022789 12.3394117,9.09101324 L12.3394117,9.09101324 L14.5663799,11.0211093 C14.6109746,11.0597869 14.6490805,11.105009 14.6793935,11.1551317 L14.6793935,11.1551317 L16.8318993,14.7233033 C17.1215423,15.2061685 17.0004177,15.8234903 16.5484271,16.1679908 L16.5484271,16.1679908 L16.4676032,16.2292794 L14.2433386,12.7047481 C14.1899649,12.6197938 14.0940958,12.5691129 13.9919606,12.5718423 C13.8898254,12.5745718 13.7969462,12.6302774 13.7484073,12.7179611 C13.6998684,12.8056448 13.7030492,12.9119074 13.756741,12.9966756 L13.756741,12.9966756 L16.0139267,16.5733457 L15.4912589,16.9697679 C15.2716888,17.1357373 15.0283582,17.2693875 14.7689646,17.3664071 L14.7689646,17.3664071 L13.1021657,14.6575483 C13.0209283,14.525604 12.845444,14.4828322 12.7101331,14.5620484 C12.5748221,14.6412646 12.5309908,14.8123827 12.6121965,14.944327 L12.6121965,14.944327 L14.2025609,17.5289957 L12.9766198,17.827933 L11.6611395,16.0321074 C11.6018177,15.9510923 11.5026724,15.9070798 11.4010779,15.9166639 C11.2994834,15.926248 11.2108347,15.9879399 11.1685302,16.0785391 C11.1262257,16.1691074 11.1366905,16.2748427 11.1960122,16.3558579 L11.1960122,16.3558579 L12.3797123,17.9718186 C12.0080685,18.055098 11.6183261,17.9511616 11.3419152,17.6949962 L11.3419152,17.6949962 L6.73014785,13.4346909 C6.51814804,13.2382323 6.23667972,13.128868 5.94417404,13.1293022 L5.94417404,13.1293022 L4.28570887,13.1293022 C4.12800518,13.1291161 4.00020094,13.0044918 4.000005,12.8507118 L4.000005,12.8507118 L4.000005,7.9462865 C3.99950117,7.86359646 4.03712994,7.78506263 4.10255884,7.73242759 C4.16719254,7.67858291 4.25345563,7.6564061 4.33691963,7.67216249 Z M5.94420585,13.6865136 C6.09045869,13.6863279 6.23117695,13.7410411 6.33719276,13.8393014 L6.33719276,13.8393014 L9.92452227,17.1532306 C9.62832688,17.1917221 9.32707403,17.1650169 9.04283842,17.0750689 L9.04283842,17.0750689 L6.88785154,16.3746229 C6.5934692,16.2785337 6.32593275,16.1172788 6.1061718,15.9035129 L6.1061718,15.9035129 L4.57659234,14.4119905 C4.42286464,14.2630801 4.36936371,14.0419013 4.43860956,13.8417207 L4.43860956,13.8417207 L4.49166518,13.6865136 Z M12.6663017,7.00000173 C13.2925362,6.99935212 13.9045842,7.18176028 14.4234033,7.52374844 L14.4234033,7.52374844 L15.1929006,8.02978298 L15.2248357,8.04802069 C15.2627508,8.06650654 15.2992345,8.08769082 15.3339369,8.11141846 L15.3339369,8.11141846 L16.2019434,8.70522976 C16.7400062,9.22081738 17.4835483,9.47924704 18.2347242,9.41181712 L18.2347242,9.41181712 L19.6882509,9.28297449 C19.768216,9.27584069 19.847545,9.30186355 19.906835,9.35462265 C19.9661568,9.40741277 19.9999844,9.48206954 19.9999844,9.56035524 L19.9999844,9.56035524 L19.9999844,13.1205866 C20.0016862,13.3450842 19.8637034,13.5481804 19.6510675,13.6342512 L19.6510675,13.6342512 L17.3249221,14.4419834 L17.3243496,14.4408048 L15.1720028,10.8726953 C15.1115041,10.7724188 15.0352923,10.6820057 14.9461347,10.6047125 L14.9461347,10.6047125 L12.7191665,8.67449238 C12.5099658,8.49310777 12.2397575,8.39292441 11.9598159,8.39301746 L11.9598159,8.39301746 L11.1517674,8.39301746 L11.1517674,8.11442706 C11.1517674,7.96058512 11.0238359,7.83583667 10.8660686,7.83583667 C10.7083013,7.83583667 10.5803699,7.9605541 10.5803699,8.11442706 L10.5803699,8.11442706 L10.5803699,8.53736834 L9.77108085,9.16625932 C9.56760555,9.32413341 9.28057084,9.32825861 9.07241979,9.17633969 C8.8392677,9.00788897 8.77581089,8.69409482 8.9259443,8.45194885 L8.9259443,8.45194885 L9.38979926,7.70100786 L9.38979926,7.70100786 L9.39193039,7.69514573 L9.69754093,7.24813563 C9.8033977,7.09302201 9.98187196,6.99984838 10.172974,7.00000173 L10.172974,7.00000173 Z" id="path-1"></path>
    </defs>
    <g id="01---Particles/03---Icon/04---Others/Handshake" stroke="none" stroke-width="1" fill="none" fill-rule="evenodd">
        <mask id="mask-2" fill="nonzero">
            <use xlink:href="#path-1"></use>
        </mask>
        <use id="Shape" fill="nonzero" xlink:href="#path-1"></use>
    </g>
</svg>