<?xml version="1.0" encoding="UTF-8"?>
<svg width="24px" height="24px" viewBox="0 0 24 24" version="1.1" xmlns="http://www.w3.org/2000/svg" xmlns:xlink="http://www.w3.org/1999/xlink">
    <title>hat</title>
    <defs>
        <path d="M17.1428223,13.2332122 C19.2285156,13.706633 20,14.3164911 20,14.6259994 C20,15.1965231 17.5177002,16 12,16 C6.48229981,16 4,15.1965231 4,14.6259994 C4,14.3164911 4.77148438,13.706633 6.85717775,13.2332122 L6.85717775,13.2332122 L6.85717775,14.0762582 C6.85717775,14.3747294 7.1311035,14.5786807 8.53198244,14.7375445 C9.68395997,14.8536688 10.8417969,14.9081497 12,14.9007525 C13.1582031,14.9081497 14.31604,14.8536688 15.4680176,14.7375445 C16.8688965,14.5786807 17.1428223,14.3747294 17.1428223,14.0762582 L17.1428223,14.0762582 Z M7.42858887,12.8995162 C7.79064941,12.9901613 8.15966797,13.0534485 8.53198244,13.0885558 C9.68395997,13.2047975 10.8417969,13.2592785 12,13.2518813 C13.1582031,13.2596308 14.31604,13.205502 15.4680176,13.08973 C15.840332,13.0545052 16.2093506,12.9913355 16.5714111,12.9006904 L16.5714111,12.9006904 L16.5714111,13.9724625 C16.1894531,14.1403673 14.5031738,14.3511288 12,14.3511288 C9.49682619,14.3511288 7.81054687,14.1403673 7.42858887,13.9712884 L7.42858887,13.9712884 Z M14.2857666,8.09427135 C14.8104248,7.91591662 15.3924561,7.99352851 15.8469238,8.30256711 C16.3012695,8.6116057 16.5714111,9.11367601 16.5714111,9.64897501 L16.5714111,9.64897501 L16.5714111,12.323474 C16.1894531,12.4913786 14.5031738,12.7022576 12,12.7022576 C9.49682619,12.7022576 7.81054687,12.4913786 7.42858887,12.323474 L7.42858887,12.323474 L7.42858887,9.64897501 C7.42858887,9.11367601 7.69873047,8.6116057 8.15307619,8.30256711 C8.60754394,7.99352851 9.18957519,7.91591662 9.71423341,8.09427135 L9.71423341,8.09427135 L11.2391357,8.6137192 C11.7316894,8.77927558 12.2680664,8.77927558 12.7606201,8.6137192 L12.7606201,8.6137192 Z M8.28576659,9.95402146 C8.12792969,9.95402146 8,10.0770733 8,10.2287746 L8,10.2287746 L8,11.3281395 C8,11.4798408 8.12792969,11.6028927 8.28576659,11.6028927 C8.44348144,11.6028927 8.57141113,11.4798408 8.57141113,11.3281395 L8.57141113,11.3281395 L8.57141113,10.2287746 C8.57141113,10.0770733 8.44348144,9.95402146 8.28576659,9.95402146 Z M10.7728272,9.21007444 C10.6613769,9.10310859 10.480957,9.10310859 10.3693848,9.21007444 C10.2579346,9.31739257 10.2579346,9.49140292 10.3693848,9.59872102 C10.8143311,9.99382545 11.3945313,10.2180898 12,10.2287746 C12.6054688,10.2180898 13.1856689,9.99382545 13.6306153,9.59872102 C13.7388916,9.49081582 13.7373047,9.31938863 13.6270752,9.21336211 C13.5168457,9.10745297 13.3386231,9.10592657 13.2265625,9.21007444 C12.8897705,9.50326191 12.4542236,9.66987506 12,9.67915089 C11.5461426,9.6674093 11.1113281,9.50114841 10.7728272,9.21007444 Z" id="path-1"></path>
    </defs>
    <g id="01---Particles/03---Icon/04---Others/Hat" stroke="none" stroke-width="1" fill="nonzero" fill-rule="evenodd">
        <mask id="mask-2" fill="nonzero">
            <use xlink:href="#path-1"></use>
        </mask>
        <use id="Shape" fill="nonzero" xlink:href="#path-1"></use>
    </g>
</svg>