<?xml version="1.0" encoding="UTF-8"?>
<svg width="24px" height="24px" viewBox="0 0 24 24" version="1.1" xmlns="http://www.w3.org/2000/svg" xmlns:xlink="http://www.w3.org/1999/xlink">
    <title>help</title>
    <g id="01---Particles/03---Icon/02---Essentials/02---Content/Help" stroke="none" stroke-width="1" fill="nonzero" fill-rule="evenodd">
        <path d="M12,4 C16.418278,4 20,7.581722 20,12 C20,16.418278 16.418278,20 12,20 C7.581722,20 4,16.418278 4,12 C4,7.581722 7.581722,4 12,4 Z M12,15.546875 C11.5685275,15.546875 11.21875,15.8966525 11.21875,16.328125 C11.21875,16.7595975 11.5685275,17.109375 12,17.109375 C12.4314725,17.109375 12.78125,16.7595975 12.78125,16.328125 C12.78125,15.8966525 12.4314725,15.546875 12,15.546875 Z M12,7.515625 C10.6215,7.515625 9.5,8.637125 9.5,10.015625 C9.5,10.3608125 9.7798125,10.640625 10.125,10.640625 C10.4701875,10.640625 10.75,10.3608125 10.75,10.015625 C10.75,9.326375 11.31075,8.765625 12,8.765625 C12.68925,8.765625 13.25,9.326375 13.25,10.015625 C13.25,10.704875 12.68925,11.265625 12,11.265625 C11.6548125,11.265625 11.375,11.5454375 11.375,11.890625 L11.375,13.453125 C11.375,13.7983125 11.6548125,14.078125 12,14.078125 C12.3451875,14.078125 12.625,13.7983125 12.625,13.453125 L12.625,12.4365312 C13.7020625,12.1583125 14.5,11.1784063 14.5,10.015625 C14.5,8.637125 13.3785,7.515625 12,7.515625 Z" id="Oval-2" fill="nonzero"></path>
    </g>
</svg>