<?xml version="1.0" encoding="UTF-8"?>
<svg width="10px" height="11px" viewBox="0 0 10 11" version="1.1" xmlns="http://www.w3.org/2000/svg" xmlns:xlink="http://www.w3.org/1999/xlink">
    <title>inpersonmixricon</title>
    <g id="myHome" stroke="none" stroke-width="1" fill="none" fill-rule="evenodd">
        <g id="RSVP-button" transform="translate(-849.000000, -238.000000)" stroke="#00BFA6">
            <path d="M856.222249,240.722249 C856.222249,241.949544 855.227295,242.944417 854,242.944417 C852.772705,242.944417 851.777751,241.949544 851.777751,240.722249 C851.777751,239.494954 852.772705,238.5 854,238.5 C855.227295,238.5 856.222249,239.494954 856.222249,240.722249 Z M855.888916,244.333333 L852.111084,244.333333 C850.947103,244.333333 850,245.280436 850,246.444417 L850,248 C850,248.184001 850.149333,248.333333 850.333333,248.333333 L857.666667,248.333333 C857.850667,248.333333 858,248.184001 858,248 L858,246.444417 C858,245.280436 857.052897,244.333333 855.888916,244.333333 Z" id="inpersonmixricon"></path>
        </g>
    </g>
</svg>