<?xml version="1.0" encoding="UTF-8"?>
<svg width="16px" height="16px" viewBox="0 0 16 16" version="1.1" xmlns="http://www.w3.org/2000/svg" xmlns:xlink="http://www.w3.org/1999/xlink">
    <title>invite-icon</title>
    <g id="bannersv2" stroke="nonzero" stroke-width="1" fill="nonzero" fill-rule="evenodd">
        <g id="Combined-Shape" transform="translate(-3.000000, -4.000000)" fill="nonzero">
            <path d="M8.83333333,15.7413333 L11.5446667,16.668 L9.736,19.1293333 C9.64,19.26 9.48933333,19.3333333 9.33333333,19.3333333 C9.28133333,19.3333333 9.22866667,19.3253333 9.17733333,19.3086667 C8.972,19.2406667 8.83333333,19.0493333 8.83333333,18.8333333 L8.83333333,18.8333333 L8.83333333,15.7413333 Z M18.2686667,4.05666667 C18.4353333,3.96933333 18.6366667,3.984 18.79,4.09266667 C18.9433333,4.202 19.022,4.38733333 18.9946667,4.574 L18.9946667,4.574 L17.1613333,16.9073333 C17.1393333,17.0533333 17.0533333,17.1833333 16.9266667,17.2606667 C16.8473333,17.3086667 16.7573333,17.3333333 16.6666667,17.3333333 C16.612,17.3333333 16.5573333,17.324 16.5053333,17.3066667 L16.5053333,17.3066667 L9.51666667,14.918 L16.3886667,6.63866667 L7.508,14.232 L3.338,12.8066667 C3.14933333,12.742 3.01666667,12.5713333 3.00133333,12.3713333 C2.98666667,12.172 3.09133333,11.9826667 3.26866667,11.89 L3.26866667,11.89 Z"></path>
        </g>
    </g>
</svg>