<svg id="Calque_1" data-name="Calque 1" xmlns="http://www.w3.org/2000/svg" viewBox="0 0 253.87 275.03"><title>like</title><path id="prefix_a" data-name="prefix  a" d="M263.93,157.94A47.78,47.78,0,0,0,272,131q0-17-12.55-29.59T229.71,88.85H200.63q7.94-16.36,7.94-31.73,0-19.34-5.79-30.74A36.38,36.38,0,0,0,185.92,9.59a56.55,56.55,0,0,0-25-5.37,21,21,0,0,0-14.88,6.12,39.82,39.82,0,0,0-10.24,17.85q-3.14,10.91-5,20.91t-5.86,14.13q-8.1,8.76-17.69,21.16Q90.56,106,84.61,110H39.32a20.39,20.39,0,0,0-15,6.2,20.37,20.37,0,0,0-6.2,14.95V236.94a20.37,20.37,0,0,0,6.2,14.95,20.39,20.39,0,0,0,15,6.2h47.6q3.63,0,22.8,6.61,20.33,7.12,35.78,10.83a133.39,133.39,0,0,0,31.32,3.72h21.32q23.3,0,37.52-13.31t14.05-36.28a46.5,46.5,0,0,0,9.91-29.42,50.21,50.21,0,0,0-.5-7.11,47.45,47.45,0,0,0,6.28-23.8A43.08,43.08,0,0,0,263.93,157.94ZM57.34,233.8a10.57,10.57,0,0,1-18-7.44A10.72,10.72,0,0,1,49.9,215.79a10.52,10.52,0,0,1,7.43,18Zm190-89.24q-3.55,7.61-8.85,7.77a22.28,22.28,0,0,1,4.13,7.85,29.62,29.62,0,0,1,1.65,9.17q0,11.4-8.76,19.67a22.85,22.85,0,0,1,3,11.4,27.82,27.82,0,0,1-2.89,12.14,18.5,18.5,0,0,1-7.85,8.68,56.37,56.37,0,0,1,.83,9.25q0,27.59-31.74,27.6h-20q-21.66,0-56.53-12.06c-.55-.22-2.14-.8-4.79-1.74l-5.87-2.07q-1.9-.66-5.79-1.9t-6.28-1.82q-2.4-.57-5.45-1.07a33.24,33.24,0,0,0-5.21-.49H81.63V131.16h5.29a14.27,14.27,0,0,0,5.87-1.48,28.44,28.44,0,0,0,6.61-4.46q3.38-3,6.36-5.87a94,94,0,0,0,6.61-7.27q3.64-4.38,5.7-7t5.2-6.77q3.14-4.13,3.8-5,9.09-11.24,12.72-15a42,42,0,0,0,9.84-18.1q3.06-11,5-20.74T161,25.39q15.86,0,21.15,7.77t5.29,24q0,9.74-7.94,26.52T171.55,110h58.18a20.36,20.36,0,0,1,14.71,6.37,20.15,20.15,0,0,1,6.45,14.79q0,5.79-3.56,13.39Z" transform="translate(-18.16 -4.22)"/></svg>