<?xml version="1.0" encoding="UTF-8"?>
<svg width="24px" height="24px" viewBox="0 0 24 24" version="1.1" xmlns="http://www.w3.org/2000/svg" xmlns:xlink="http://www.w3.org/1999/xlink">
    <title>link</title>
    <g id="01---Particles/03---Icon/02---Essentials/02---Content/Link" stroke="none" stroke-width="1" fill="nonzero" fill-rule="evenodd">
        <g id="link" transform="translate(4.000000, 4.000000)" fill="nonzero" fill-rule="nonzero">
            <path d="M14.9016563,1.098375 C13.4371563,-0.366125 11.0628438,-0.366125 9.59834375,1.09834375 L6.46415625,4.23253125 C4.9493125,5.7474375 5.0895625,8.1611875 6.46415625,9.53584375 C6.69434375,9.76603125 6.94903125,9.95371875 7.21796875,10.107875 L7.79,9.53584375 C8.1651875,9.16059375 8.033125,8.7219375 8.026375,8.40540625 C7.94403125,8.34703125 7.8639375,8.2839375 7.79,8.21 C7.08459375,7.50465625 7.052875,6.29546875 7.79,5.55834375 C7.89946875,5.448875 10.8576875,2.49065625 10.924125,2.42421875 C11.6553438,1.693 12.8445625,1.693 13.5757813,2.42421875 C14.307,3.1554375 14.307,4.34465625 13.5757813,5.075875 L11.504125,7.14753125 C11.5640313,7.479 11.9235625,8.2641875 11.738625,9.5594375 C11.7476563,9.5505625 11.7584688,9.54484375 11.7674688,9.535875 L14.9016563,6.4016875 C16.3660938,4.9371875 16.3660938,2.562875 14.9016563,1.098375 Z" id="Path"></path>
            <path d="M9.7786875,6.22128125 C9.54853125,5.99109375 9.2938125,5.80340625 9.0249375,5.64925 L8.45290625,6.22128125 C8.07765625,6.59646875 8.20971875,7.035125 8.21646875,7.35165625 C8.298875,7.41003125 8.37896875,7.473125 8.45290625,7.5470625 C9.1583125,8.25246875 9.19003125,9.46159375 8.45290625,10.1987188 C8.3431875,10.3084375 5.1399375,13.5116875 5.07584375,13.5757812 C4.344625,14.307 3.15540625,14.307 2.4241875,13.5757812 C1.69296875,12.8445625 1.69296875,11.6553438 2.4241875,10.924125 L4.73878125,8.60953125 C4.678875,8.2780625 4.3193125,7.492875 4.50428125,6.197625 C4.49525,6.2065 4.484375,6.21228125 4.475375,6.22125 L1.09834375,9.59834375 C-0.36609375,11.0628437 -0.36609375,13.4371563 1.09834375,14.9016563 C2.56284375,16.3660938 4.937125,16.3660938 6.401625,14.9016563 L9.7786875,11.5245937 C11.2654375,10.0378438 11.1841875,7.62675 9.7786875,6.22128125 Z" id="Path"></path>
        </g>
    </g>
</svg>