<?xml version="1.0" encoding="UTF-8"?>
<svg width="24px" height="24px" viewBox="0 0 24 24" version="1.1" xmlns="http://www.w3.org/2000/svg" xmlns:xlink="http://www.w3.org/1999/xlink">
    <title>logout</title>
    <g id="01---Particles/03---Icon/02---Essentials/04---Navigation/Logout" stroke="none" stroke-width="1" fill="none" fill-rule="evenodd">
        <path d="M12.666626,4.00012207 C13.7692871,4.00012207 14.666626,4.89746094 14.666626,6.00012207 L14.666626,6.00012207 L14.666626,8.00012207 C14.666626,8.368042 14.3686523,8.66674806 14,8.66674806 C13.6313477,8.66674806 13.333374,8.368042 13.333374,8.00012207 L13.333374,8.00012207 L13.333374,6.00012207 C13.333374,5.63269044 13.034668,5.33337403 12.666626,5.33337403 L12.666626,5.33337403 L9.56127931,5.33337403 L9.758667,5.39941406 C10.3039551,5.58874512 10.666626,6.09741212 10.666626,6.66674806 L10.666626,6.66674806 L10.666626,16.6667481 L12.666626,16.6667481 C13.034668,16.6667481 13.333374,16.3674316 13.333374,16.0001221 L13.333374,16.0001221 L13.333374,13.333374 C13.333374,12.9654541 13.6313477,12.6667481 14,12.6667481 C14.3686523,12.6667481 14.666626,12.9654541 14.666626,13.333374 L14.666626,13.333374 L14.666626,16.0001221 C14.666626,17.1027832 13.7692871,18.0001221 12.666626,18.0001221 L12.666626,18.0001221 L10.666626,18.0001221 L10.666626,18.6667481 C10.666626,19.4020996 10.0687256,20.0001221 9.33337403,20.0001221 C9.19128419,20.0001221 9.05603028,19.9801025 8.92004394,19.9381103 L8.92004394,19.9381103 L4.907959,18.600708 C4.36267091,18.4113769 4,17.90271 4,17.333374 L4,17.333374 L4,5.33337403 C4,4.59802247 4.59802247,4.00012207 5.33337403,4.00012207 C5.36596681,4.00012207 5.39660644,4.01208497 5.42871094,4.0147705 C5.45336912,4.01147462 5.47460937,4.00012207 5.5,4.00012207 L5.5,4.00012207 Z M16.4113769,7.38403319 C16.6606445,7.28076172 16.9473877,7.33813475 17.1379394,7.52880859 L17.1379394,7.52880859 L19.8046875,10.1954346 C20.0653076,10.4560547 20.0653076,10.8774414 19.8046875,11.1380615 L19.8046875,11.1380615 L17.1379394,13.8048096 C16.9473877,13.9953613 16.6606445,14.0527344 16.4113769,13.9494629 C16.1627197,13.8460693 16,13.6027832 16,13.333374 L16,13.333374 L16,11.333374 L13.333374,11.333374 C12.965332,11.333374 12.666626,11.03479 12.666626,10.6667481 C12.666626,10.2987061 12.965332,10.0001221 13.333374,10.0001221 L13.333374,10.0001221 L16,10.0001221 L16,8.00012206 C16,7.73071288 16.1627197,7.48742675 16.4113769,7.38403319 Z" id="Combined-Shape" fill="#1A2226"></path>
    </g>
</svg>