<?xml version="1.0" encoding="UTF-8"?>
<svg width="24px" height="24px" viewBox="0 0 24 24" version="1.1" xmlns="http://www.w3.org/2000/svg" xmlns:xlink="http://www.w3.org/1999/xlink">
    <title>mail-opened</title>
    <g id="01---Particles/03---Icon/02---Essentials/05---Communications/Mail/Opened" stroke="none" stroke-width="1" fill="none" fill-rule="evenodd">
        <path d="M19.2393437,8.341 L13.0913438,4.35765625 C12.4453437,3.91565625 11.5466875,3.9203125 10.9146875,4.353 L4.76065625,8.34034375 C4.284,8.649 4,9.17165625 4,9.73965625 L4,17.681 C4,18.5996563 4.748,19.3476563 5.66665625,19.3476563 L18.3333125,19.3476563 C19.2519688,19.3476563 19.9999688,18.5996563 19.9999688,17.681 L19.9999688,9.73965625 C19.9999688,9.17165625 19.716,8.649 19.2393437,8.341 Z M9.88,14.6043438 L5.88,17.9376875 C5.818,17.9890313 5.742,18.0143438 5.66665625,18.0143438 C5.57065625,18.0143438 5.476,17.9736875 5.41,17.8943438 C5.292,17.753 5.31134375,17.5423438 5.45265625,17.4243438 L9.45265625,14.091 C9.59465625,13.973 9.80465625,13.9923438 9.92265625,14.1336563 C10.0406562,14.2763438 10.0213437,14.4863438 9.88,14.6043438 Z M12,14.0256563 C11.6333438,14.0256563 11.266,13.9163125 10.946,13.697 L5.47865625,9.95634375 C5.32665625,9.85234375 5.288,9.645 5.3913125,9.493 C5.49465625,9.341 5.70196875,9.30234375 5.85465625,9.40634375 L11.322,13.147 C11.7333438,13.4283438 12.2653438,13.4283438 12.6773438,13.147 L18.1446875,9.40634375 C18.2973438,9.303 18.5040313,9.3416875 18.6080313,9.493 C18.7120313,9.645 18.673375,9.85234375 18.521375,9.95634375 L13.054,13.697 C12.734,13.9163438 12.3666563,14.0256563 12,14.0256563 Z M18.5893437,17.895 C18.5233437,17.9743438 18.4286875,18.015 18.3326875,18.015 C18.2573437,18.015 18.1820312,17.9896563 18.1193437,17.9376563 L14.1193437,14.6043125 C13.978,14.4863125 13.9586875,14.2763125 14.0766875,14.1343125 C14.1940312,13.9929688 14.4040312,13.9736563 14.5466875,14.0916563 L18.5466875,17.425 C18.688,17.543 18.7073437,17.753 18.5893437,17.895 Z" id="Shape" fill="#1A2226"></path>
    </g>
</svg>