<?xml version="1.0" encoding="UTF-8"?>
<svg width="24px" height="24px" viewBox="0 0 24 24" version="1.1" xmlns="http://www.w3.org/2000/svg" xmlns:xlink="http://www.w3.org/1999/xlink">
    <title>mail-close</title>
    <g id="01---Particles/03---Icon/02---Essentials/05---Communications/Mail/Close" stroke="none" stroke-width="1" fill="none" fill-rule="evenodd">
        <path d="M18.3333437,7.01040625 L5.66665625,7.01040625 C4.748,7.01040625 4,7.75840625 4,8.67709375 L4,16.0104375 C4,16.9290937 4.748,17.6770937 5.66665625,17.6770937 L18.3333125,17.6770937 C19.2519688,17.6770937 19.9999688,16.9290937 19.9999688,16.0104375 L19.9999688,8.67709375 C19.9999688,7.75840625 19.252,7.01040625 18.3333437,7.01040625 Z M9.88,12.9330937 L5.88,16.2664375 C5.818,16.3184375 5.742,16.3437812 5.66665625,16.3437812 C5.57065625,16.3437812 5.476,16.303125 5.41,16.2237812 C5.292,16.0824375 5.31134375,15.8717812 5.45265625,15.7537812 L9.45265625,12.4204375 C9.594,12.3030937 9.80465625,12.3224375 9.92265625,12.4630937 C10.0406562,12.6050937 10.0213437,12.81575 9.88,12.9330937 Z M12,13.02175 C11.6333438,13.02175 11.266,12.9124062 10.946,12.6930937 L5.47865625,8.95240625 C5.32665625,8.84840625 5.288,8.6410625 5.3913125,8.4890625 C5.49465625,8.3370625 5.70196875,8.29771875 5.85465625,8.40240625 L11.322,12.1430625 C11.7333438,12.4244062 12.2653438,12.4244062 12.6773438,12.1430625 L18.1446875,8.40240625 C18.2973438,8.2990625 18.5046875,8.3370625 18.6080313,8.4890625 C18.7120313,8.6410625 18.673375,8.84840625 18.521375,8.95240625 L13.054,12.6930937 C12.734,12.9124062 12.3666563,13.02175 12,13.02175 Z M18.5893437,16.22375 C18.5233437,16.3030937 18.4286875,16.34375 18.3333437,16.34375 C18.258,16.34375 18.1826875,16.3184062 18.12,16.2664062 L14.12,12.9330625 C13.9786562,12.8150625 13.9593437,12.6050625 14.0773437,12.4630625 C14.1953437,12.3224062 14.4053437,12.3030625 14.5473437,12.4204062 L18.5473437,15.75375 C18.688,15.87175 18.7073437,16.0824062 18.5893437,16.22375 Z" id="Shape" fill="#1A2226"></path>
    </g>
</svg>