<svg id="Calque_1" data-name="Calque 1" xmlns="http://www.w3.org/2000/svg" viewBox="0 0 259.55 207.64"><title>mail</title><path id="a" d="M157.07,210.94a7.79,7.79,0,0,1,7.79,7.79h0V229.1a7.79,7.79,0,0,1-7.79,7.79H120.73a7.79,7.79,0,0,1-7.79-7.79h0V218.72a7.79,7.79,0,0,1,7.79-7.79h36.34Zm-122-13a13,13,0,0,0,13,13H92.18a7.79,7.79,0,0,1,7.79,7.79h0V229.1a7.79,7.79,0,0,1-7.79,7.79H48.06A38.93,38.93,0,0,1,9.12,198V68.18A38.93,38.93,0,0,1,48.06,29.25H229.74a38.93,38.93,0,0,1,38.93,38.93V198a38.93,38.93,0,0,1-38.93,38.93H185.62a7.79,7.79,0,0,1-7.79-7.79h0V218.72a7.79,7.79,0,0,1,7.79-7.79h44.12a13,13,0,0,0,13-13V73.12l-79.5,63.6a38.93,38.93,0,0,1-48.64,0L35.08,73.11ZM54.23,55.2l76.56,61.25a13,13,0,0,0,16.21,0L223.58,55.2H54.23Z" transform="translate(-9.12 -29.25)"/></svg>