<svg id="Calque_1" data-name="Calque 1" xmlns="http://www.w3.org/2000/svg" viewBox="0 0 243.6 256.43"><title>mail-open</title><path id="a" d="M121.87,236.86h34.07a7.33,7.33,0,0,1,7.33,7.33V254a7.33,7.33,0,0,1-7.33,7.33H121.87a7.33,7.33,0,0,1-7.33-7.33h0v-9.77A7.33,7.33,0,0,1,121.87,236.86Zm-8-224a43.18,43.18,0,0,1,50.16,0l82,59.84v.42a36.6,36.6,0,0,1,14.74,29.4V224.65a36.58,36.58,0,0,1-36.54,36.63H182.75a7.31,7.31,0,0,1-7.26-6.53l0-.8v-9.77a7.32,7.32,0,0,1,7.31-7.33h41.41a12.19,12.19,0,0,0,12.18-12.21V102.54a11.93,11.93,0,0,0-.12-1.67l-74.5,59.75a36.47,36.47,0,0,1-45.66,0l-74.5-59.75a12.35,12.35,0,0,0-.12,1.67V224.65a12.19,12.19,0,0,0,12.18,12.21H95.05a7.32,7.32,0,0,1,7.31,7.33V254a7.32,7.32,0,0,1-7.31,7.33H53.64A36.58,36.58,0,0,1,17.1,224.65V102.54A36.6,36.6,0,0,1,31.84,73.14v-.41ZM147.26,32a14.4,14.4,0,0,0-16.72,0l-71.2,52h.09l71.86,57.63a12.14,12.14,0,0,0,15.21,0l71.86-57.63h.08Z" transform="translate(-17.1 -4.86)"/></svg>