<?xml version="1.0" encoding="UTF-8"?>
<svg width="24px" height="24px" viewBox="0 0 24 24" version="1.1" xmlns="http://www.w3.org/2000/svg" xmlns:xlink="http://www.w3.org/1999/xlink">
    <title>mask</title>
    <g id="mask" stroke="none" stroke-width="1" fill="nonzero" fill-rule="evenodd">
        <path d="M6.86569768,8.03453851 C9.43330443,7.77124966 11.069076,9.10606516 12.0415781,8.90609114 C13.0140803,8.70611712 15.3091853,8.03453851 16.9040888,8.03453851 C18.4989923,8.03453851 22,8.90609114 22,9.93751322 C22,10.9689353 20.0549957,15.6951822 17.5125708,15.9208584 C14.9701459,16.1465345 13.9856193,14.9087651 13.4328599,14.3127998 C13.0643536,13.9154896 12.600593,13.6428363 12.0415781,13.4948397 L12.0415781,13.4948397 L12.008985,13.4948397 C10.294032,13.4948397 9.39637232,16.5226614 6.30766426,15.9208584 C3.21895621,15.3190553 1.60408928,10.2147305 2.08315625,9.74319635 C2.56222322,9.27166224 4.29809092,8.29782736 6.86569768,8.03453851 Z M6.55993059,10.6666667 C5.96522422,10.6666667 5.33413625,10.8229083 4.66666667,11.1353917 C6.29518255,13.2435664 8.0197311,13.8351856 9.84031234,12.9102494 C10.5344692,12.5575868 8.74074239,11.3702648 8.74074239,11.3702648 C8.3659649,10.8790131 7.6339857,10.6666667 6.55993059,10.6666667 Z M17.4400694,10.6666667 C16.3660143,10.6666667 15.6340351,10.8790131 15.2592576,11.3702648 C15.2592576,11.3702648 13.4655308,12.5575868 14.1596877,12.9102494 C15.9802689,13.8351856 17.7048175,13.2435664 19.3333333,11.1353917 C18.6658638,10.8229083 18.0347758,10.6666667 17.4400694,10.6666667 Z" id="Combined-Shape" fill="nonzero"></path>
    </g>
</svg>