<?xml version="1.0" encoding="UTF-8"?>
<svg width="85px" height="34px" viewBox="0 0 85 34" version="1.1" xmlns="http://www.w3.org/2000/svg" xmlns:xlink="http://www.w3.org/1999/xlink">
    <title>mask-noBounding</title>
    <g id="Groups---Initial" stroke="none" stroke-width="1" fill="none" fill-rule="evenodd">
        <g id="group-feed-nonmembers-private" transform="translate(-727.000000, -960.000000)" fill="#364958">
            <g id="Group-4" transform="translate(347.000000, 179.000000)">
                <g id="Group-21" transform="translate(9.000000, 749.000000)">
                    <path d="M391.679215,32.1467887 C402.591544,31.0278111 409.543573,36.700777 413.676707,35.8508873 C417.809841,35.0009977 427.564038,32.1467887 434.342377,32.1467887 C441.120717,32.1467887 456,35.8508873 456,40.2344312 C456,44.617975 447.733732,64.7045243 436.928426,65.663648 C426.12312,66.6227717 421.938882,61.3622515 419.589655,58.8293992 C418.023503,57.140831 416.05252,55.9820541 413.676707,55.3530686 L413.676707,55.3530686 L413.538186,55.3530686 C406.249636,55.3530686 402.434582,68.2213111 389.307573,65.663648 C376.180564,63.1059849 369.317379,41.4126045 371.353414,39.4085845 C373.389449,37.4045645 380.766886,33.2657663 391.679215,32.1467887 Z M390.809714,43 C388.35655,43 385.753312,43.7030875 383,45.1092625 C389.717628,54.5960488 396.831391,57.2583353 404.341288,53.0961221 C407.204686,51.5091405 399.805562,46.1661918 399.805562,46.1661918 C398.259605,43.9555589 395.240191,43 390.809714,43 Z M436.190286,43 C431.759809,43 428.740395,43.9555589 427.194438,46.1661918 C427.194438,46.1661918 419.795314,51.5091405 422.658712,53.0961221 C430.168609,57.2583353 437.282372,54.5960488 444,45.1092625 C441.246688,43.7030875 438.64345,43 436.190286,43 Z" id="Combined-Shape"></path>
                </g>
            </g>
        </g>
    </g>
</svg>