<?xml version="1.0" encoding="UTF-8"?>
<svg width="23px" height="17px" viewBox="0 0 23 17" version="1.1" xmlns="http://www.w3.org/2000/svg" xmlns:xlink="http://www.w3.org/1999/xlink">
    <title>medias</title>
    <g id="Dashboards" stroke="none" stroke-width="1" fill="none" fill-rule="evenodd">
        <g id="Workplace-Dashboard-2.5" transform="translate(-1320.000000, -1220.000000)" fill="nonzero">
            <path d="M1339.75,1220.25 C1341.26616,1220.25 1342.5,1221.48384 1342.5,1223 L1342.5,1223 L1342.5,1234 C1342.5,1235.51616 1341.26616,1236.75 1339.75,1236.75 L1339.75,1236.75 L1323.25,1236.75 C1321.89699,1236.75 1320.77493,1235.76558 1320.54851,1234.47668 C1320.50822,1234.37212 1320.50269,1234.26117 1320.51561,1234.15123 C1320.51276,1234.09987 1320.5,1234.05136 1320.5,1234 L1320.5,1234 L1320.5,1223 C1320.5,1221.48384 1321.73384,1220.25 1323.25,1220.25 L1323.25,1220.25 Z M1339.75,1222.08339 L1323.25,1222.08339 C1322.74495,1222.08339 1322.33339,1222.49495 1322.33339,1223 L1322.33339,1223 L1322.33339,1232.11072 L1325.77995,1228.66415 C1326.40602,1228.03708 1327.42636,1228.03708 1328.05327,1228.66415 L1328.05327,1228.66415 L1329.20839,1229.81911 L1333.57173,1225.45576 C1334.1978,1224.82869 1335.21797,1224.82869 1335.84505,1225.45576 L1335.84505,1225.45576 L1340.66661,1230.2775 L1340.66661,1223 C1340.66661,1222.49495 1340.25505,1222.08339 1339.75,1222.08339 L1339.75,1222.08339 Z M1325.08339,1223 C1326.09584,1223 1326.91661,1223.82077 1326.91661,1224.83339 C1326.91661,1225.84584 1326.09584,1226.66661 1325.08339,1226.66661 C1324.07077,1226.66661 1323.25,1225.84584 1323.25,1224.83339 C1323.25,1223.82077 1324.07077,1223 1325.08339,1223 Z" id="Medias"></path>
        </g>
    </g>
</svg>