<svg id="Calque_1" data-name="Calque 1" xmlns="http://www.w3.org/2000/svg" viewBox="0 0 246.01 278.85"><title>megaphone</title><path id="prefix_a" data-name="prefix  a" d="M158.94,191.05l8.26,8.26a24.48,24.48,0,0,1,1,33.6l-1,1.05-11.11,11.11,8.71,8.46a16.34,16.34,0,0,1-22.2,24l-.89-.84-37.06-35.91,23.1-23.11,16.6,16.09,11.29-11.29a8.15,8.15,0,0,0,.64-10.84l-.63-.71L145.79,201a153.51,153.51,0,0,1,13.15-9.95ZM64.22,142.53,122,200.29,81.55,240.73a24.5,24.5,0,0,1-33.62,1l-1-1-23.1-23.1a24.51,24.51,0,0,1-1-33.62l1-1,40.43-40.43Zm6.48,39.8L70,183,58.44,194.52a8.17,8.17,0,0,0,10.84,12.19l.71-.63,11.56-11.56a8.17,8.17,0,0,0-10.84-12.18ZM114.62,47.73l101.8,101.79-4.11.82c-27.69,5.54-53.7,19-75.38,36.86l-2.69,2.25L75.06,130.28c18.19-21.32,31.84-47.42,38-75l.73-3.45.82-4.11Zm30.28-39,.89.84L254.55,118.35a16.34,16.34,0,0,1-22.21,23.93l-.89-.84L122.68,32.7a16.35,16.35,0,0,1,22.22-24Zm93.2,59.18h16.33a8.17,8.17,0,0,1,.89,16.29l-.89,0H238.1A8.17,8.17,0,0,1,237.2,68l.89,0h0Zm-5.79-46.62a8.17,8.17,0,1,1,11.56,11.55L227.53,49.2A8.17,8.17,0,0,1,216,37.65ZM189.1,2.58a8.17,8.17,0,0,1,8.12,7.28l0,.89V27.09A8.17,8.17,0,0,1,181,28l0-.89V10.75A8.16,8.16,0,0,1,189.1,2.58Z" transform="translate(-16.6 -2.58)"/></svg>