<?xml version="1.0" encoding="UTF-8"?>
<svg width="24px" height="24px" viewBox="0 0 24 24" version="1.1" xmlns="http://www.w3.org/2000/svg" xmlns:xlink="http://www.w3.org/1999/xlink">
    <title>megaphone</title>
    <defs>
        <path d="M13.1007173,14.8148673 L13.5704334,15.2888371 C14.1146546,15.836682 14.1164521,16.726809 13.5704024,17.2773102 L13.5704024,17.2773102 L12.9380088,17.9149678 L13.4342232,18.3997501 C13.7969546,18.7655321 13.7969546,19.3601584 13.4342232,19.7259092 C13.0708719,20.0923163 12.4798837,20.0902538 12.1199416,19.726378 L12.1199416,19.726378 L10.0107128,17.6655297 L11.3255213,16.3397769 L12.2702222,17.2626851 L12.9130602,16.6144962 C13.0954796,16.4295896 13.094209,16.1338389 12.9130602,15.9521198 L12.9130602,15.9521198 L12.3521033,15.3856498 C12.5931598,15.1817743 12.8410965,14.9907114 13.1007173,14.8148673 L13.1007173,14.8148673 Z M7.70992184,12.0309237 L10.9970051,15.3453372 L8.69596623,17.6655297 C8.14994756,18.2160622 7.26716881,18.2138122 6.72341256,17.6655297 L6.72341256,17.6655297 L5.40866604,16.3398394 C4.86264736,15.7892757 4.86490979,14.8991487 5.40866604,14.3508663 L5.40866604,14.3508663 L7.70992184,12.0309237 Z M8.69599722,14.351335 C8.51441456,14.1682409 8.22020663,14.1682409 8.03862396,14.351335 L8.03862396,14.351335 L7.3812507,15.0141802 C7.19966804,15.1972744 7.19966804,15.4939313 7.3812507,15.6770254 C7.56283337,15.8601196 7.8570413,15.8601196 8.03862396,15.6770254 L8.03862396,15.6770254 L8.69599722,15.0141802 C8.87757989,14.8310861 8.87757989,14.5344292 8.69599722,14.351335 Z M10.57793,6.59078689 L16.3710958,12.4317059 L16.1371675,12.4786747 C14.4958263,12.8099254 12.9580607,13.6355835 11.6944511,14.7228983 L11.6944511,14.7228983 L8.32725332,11.3276722 C9.40580911,10.0533882 10.2032356,8.481166 10.5313489,6.8262249 L10.5313489,6.8262249 L10.57793,6.59078689 Z M11.0370779,4.40143837 C11.3972989,4.03912509 11.9877293,4.03478133 12.3527232,4.40190712 L12.3527232,4.40190712 L18.541472,10.643077 C18.9050712,11.0096403 18.9050712,11.6021415 18.541472,11.9687673 C18.1788335,12.3343931 17.589333,12.3343931 17.2267255,11.9687673 L17.2267255,11.9687673 L11.0370779,5.72803501 C10.6748113,5.36228422 10.6748113,4.76765792 11.0370779,4.40143837 Z M18.5351186,7.75000816 C18.7920741,7.75000816 19,7.95966487 19,8.21875918 C19,8.4778535 18.7920741,8.6875102 18.5351186,8.6875102 L18.5351186,8.6875102 L17.6053559,8.6875102 C17.3484004,8.6875102 17.1404745,8.4778535 17.1404745,8.21875918 C17.1404745,7.95966487 17.3484004,7.75000816 17.6053559,7.75000816 L17.6053559,7.75000816 Z M17.2766537,5.07481484 C17.4582364,4.89172069 17.7524443,4.89172069 17.934027,5.07481484 C18.1156097,5.25790899 18.1156097,5.55456588 17.934027,5.73766003 L17.934027,5.73766003 L17.0042642,6.67516207 C16.8226816,6.85828747 16.5284736,6.85825622 16.346891,6.67516207 C16.1653083,6.49206792 16.1653083,6.19541103 16.346891,6.01231688 L16.346891,6.01231688 Z M14.8160676,4 C15.073023,4 15.280949,4.20965671 15.280949,4.46875102 L15.280949,4.46875102 L15.280949,5.40625306 C15.280949,5.66534738 15.073023,5.87500408 14.8160676,5.87500408 C14.5591122,5.87500408 14.3511862,5.66534738 14.3511862,5.40625306 L14.3511862,5.40625306 L14.3511862,4.46875102 C14.3511862,4.20965671 14.5591122,4 14.8160676,4 Z" id="path-1"></path>
    </defs>
    <g id="01---Particles/03---Icon/04---Others/Megaphone" stroke="none" stroke-width="1" fill="nonzero" fill-rule="evenodd">
        <mask id="mask-2" fill="nonzero">
            <use xlink:href="#path-1"></use>
        </mask>
        <use id="Shape" fill="nonzero" xlink:href="#path-1"></use>
    </g>
</svg>