<svg xmlns="http://www.w3.org/2000/svg" width="35" height="35" viewBox="0 0 35 35">
    <g fill="none" fill-rule="evenodd">
        <g fill="#BABAC5" fill-rule="nonzero">
            <g>
                <g>
                    <g>
                        <path d="M20.792 0c2.209 0 4 1.79 4 4v16.792c0 2.209-1.791 4-4 4H4c-2.21 0-4-1.791-4-4V4c0-2.21 1.79-4 4-4h16.792zM5.122 12.655c-1.513-.149-3.341 1.309-3.062 2.756.28 1.447 2.14 3.661 5.636 3.661 2.954 0 5.55-2.256 5.671-3.661.16-1.837-.975-2.756-3.405-2.756-1.012.218-1.857.328-2.533.328-1.015 0-.792-.18-2.306-.328zm15.538 3.414h-3.673c-.507 0-.918.41-.918.918 0 .507.41.918.918.918h3.673c.507 0 .918-.411.918-.918 0-.507-.411-.918-.918-.918zm0-4.591h-3.673c-.507 0-.918.41-.918.918 0 .507.41.918.918.918h3.673c.507 0 .918-.411.918-.918 0-.507-.411-.918-.918-.918zM7.805 5.05C6.03 5.05 4.59 6.49 4.59 8.264s1.439 3.214 3.214 3.214 3.214-1.44 3.214-3.214c0-1.775-1.44-3.214-3.214-3.214zM20.66 6.887h-3.673c-.507 0-.918.41-.918.918 0 .507.41.918.918.918h3.673c.507 0 .918-.411.918-.918 0-.507-.411-.918-.918-.918z" transform="translate(-1194 -139) translate(1161 54.853) translate(33 84.147) translate(4.74 4.375)"/>
                    </g>
                </g>
            </g>
        </g>
    </g>
</svg>
