<?xml version="1.0" encoding="UTF-8"?>
<svg width="22px" height="20px" viewBox="0 0 22 20" version="1.1" xmlns="http://www.w3.org/2000/svg" xmlns:xlink="http://www.w3.org/1999/xlink">
    <title>memberdirectory-icon</title>
    <g id="Page-1" stroke="nonzero" stroke-width="1" fill="nonzero" fill-rule="evenodd">
        <g id="New-Home-page-Copy-9" transform="translate(-1255.000000, -699.000000)" fill-rule="nonzero">
            <g id="Group-65" transform="translate(1256.000000, 700.000000)">
                <path d="M14,0 C15.8639271,-3.42397855e-16 17.4300871,1.27489272 17.8740452,3.00024347 L18.6666667,3 C19.2189514,3 19.6666667,3.44771525 19.6666667,4 C19.6666667,4.55228475 19.2189514,5 18.6666667,5 L18,5 L18,8 L18.6666667,8 C19.2189514,8 19.6666667,8.44771525 19.6666667,9 C19.6666667,9.55228475 19.2189514,10 18.6666667,10 L18,10 L18,13 L18.6666667,13 C19.2189514,13 19.6666667,13.4477153 19.6666667,14 C19.6666667,14.5522847 19.2189514,15 18.6666667,15 L17.8737865,15.0007613 C17.429479,16.7256022 15.8635652,18 14,18 L4,18 C1.790861,18 2.705415e-16,16.209139 0,14 L0,4 C-2.705415e-16,1.790861 1.790861,4.05812251e-16 4,0 L14,0 Z" id="Combined-Shape" stroke="nonzero"></path>
                <circle id="Oval" fill="nonzero" cx="8.66666667" cy="6" r="2.33333333"></circle>
                <path d="M4.49602443,11.1889235 C4.2927583,10.1383853 5.61995755,9.0802348 6.71943998,9.18817276 C7.81892242,9.29611072 7.65721808,9.42596468 8.39371515,9.42596468 C8.88471321,9.42596468 9.49783915,9.34670071 10.233093,9.18817276 C11.9974008,9.18817276 12.8215051,9.85508967 12.7054058,11.1889235 C12.6166117,12.2090549 10.7321168,13.8472254 8.58743401,13.8472254 C6.04980332,13.8472254 4.69929057,12.2394617 4.49602443,11.1889235 Z" id="Path" fill="nonzero"></path>
            </g>
        </g>
    </g>
</svg>