<?xml version="1.0" encoding="UTF-8"?>
<svg width="24px" height="24px" viewBox="0 0 24 24" version="1.1" xmlns="http://www.w3.org/2000/svg" xmlns:xlink="http://www.w3.org/1999/xlink">
    <title>minus</title>
    <g id="01---Particles/03---Icon/02---Essentials/03---Actions/Minus" stroke="nonzero" stroke-width="1" fill="nonzero" fill-rule="evenodd">
        <path d="M5,11 L19,11 C19.1864686,11 19.3597359,11.0489549 19.5078841,11.1349468 C19.6560322,11.2209388 19.7790612,11.3439678 19.8650532,11.4921159 C19.9510451,11.6402641 20,11.8135314 20,12 C20,12.1864686 19.9510451,12.3597359 19.8650532,12.5078841 C19.7790612,12.6560322 19.6560322,12.7790612 19.5078841,12.8650532 C19.3597359,12.9510451 19.1864686,13 19,13 L5,13 C4.81353138,13 4.64026406,12.9510451 4.49211591,12.8650532 C4.34396776,12.7790612 4.22093878,12.6560322 4.13494684,12.5078841 C4.0489549,12.3597359 4,12.1864686 4,12 C4,11.8135314 4.0489549,11.6402641 4.13494684,11.4921159 C4.22093878,11.3439678 4.34396776,11.2209388 4.49211591,11.1349468 C4.64026406,11.0489549 4.81353138,11 5,11 Z" id="Style" fill="nonzero"></path>
    </g>
</svg>