<svg id="Calque_1" data-name="Calque 1" xmlns="http://www.w3.org/2000/svg" viewBox="0 0 256.51 256.51">
    <title>mixr</title>
    <path id="prefix_a" data-name="prefix  a" d="M35.82,157.79a3.63,3.63,0,0,1,3.48,2.62,102.82,102.82,0,0,0,66.6,69.22,128.37,128.37,0,0,1-41.78-69.3l-.05-.46a2.09,2.09,0,0,1,2.09-2.09H87.23a3.47,3.47,0,0,1,3.35,2.53,102.81,102.81,0,0,0,34.56,51.93V162.92a5.12,5.12,0,0,1,5.13-5.13h15.39a5.12,5.12,0,0,1,5.13,5.13v49.34a102.89,102.89,0,0,0,34.54-51.85,3.57,3.57,0,0,1,3.44-2.62H209.7a2,2,0,0,1,.46.05,2.14,2.14,0,0,1,1.63,2.57A128.33,128.33,0,0,1,170,229.63a102.83,102.83,0,0,0,66.64-69.3,3.53,3.53,0,0,1,3.39-2.55h21.05a1.21,1.21,0,0,1,.44.05,2,2,0,0,1,1.58,2.47,128.29,128.29,0,0,1-250.29.07,2,2,0,0,1,0-.48,2.13,2.13,0,0,1,2.13-2.13H35.82Zm227.24-38.48a2.76,2.76,0,0,1,2.57,1.74l.18.81c.29,3.39.42,6.82.42,10.28l-.11,5.13-.29,5.08A2.84,2.84,0,0,1,263,145H12.9a2.78,2.78,0,0,1-2.79-2.57c-.27-3.41-.4-6.83-.4-10.26L9.82,127l.29-5.13a2.75,2.75,0,0,1,2.75-2.53ZM138,3.88A128.29,128.29,0,0,1,263.11,104a2.06,2.06,0,0,1-1.58,2.47l-.44.05H240a3.52,3.52,0,0,1-3.37-2.57A102.75,102.75,0,0,0,170,34.66a128.3,128.3,0,0,1,41.76,69.2,2.14,2.14,0,0,1-1.63,2.57,2,2,0,0,1-.46.05H188.77a3.59,3.59,0,0,1-3.44-2.6A102.81,102.81,0,0,0,150.79,52v49.32a5.12,5.12,0,0,1-5.13,5.13H130.27a5.12,5.12,0,0,1-5.13-5.13V52A102.89,102.89,0,0,0,90.58,104a3.47,3.47,0,0,1-3.35,2.53H66.16a2.08,2.08,0,0,1-2.09-2.09l.05-.44A128.42,128.42,0,0,1,105.9,34.64a102.78,102.78,0,0,0-66.6,69.22,3.63,3.63,0,0,1-3.48,2.62H14.91a2.13,2.13,0,0,1-2.13-2.13,2,2,0,0,1,0-.48A128.33,128.33,0,0,1,138,3.88Z" transform="translate(-9.71 -3.88)"/>
</svg>
