<svg id="Calque_1" data-name="Calque 1" xmlns="http://www.w3.org/2000/svg" viewBox="0 0 212 212"><title>multiple-menu</title><path d="M86,112.33a15.47,15.47,0,0,1,15.45,15.45v92.75A15.47,15.47,0,0,1,86,236H19.72A15.47,15.47,0,0,1,4.26,220.53V127.78a15.47,15.47,0,0,1,15.46-15.45Zm114.82,53a15.47,15.47,0,0,1,15.46,15.45v39.75A15.47,15.47,0,0,1,200.8,236H134.55a15.47,15.47,0,0,1-15.45-15.46V180.78a15.47,15.47,0,0,1,15.45-15.45ZM200.8,24a15.47,15.47,0,0,1,15.46,15.46V132.2a15.47,15.47,0,0,1-15.46,15.45H134.55A15.47,15.47,0,0,1,119.1,132.2V39.45A15.47,15.47,0,0,1,134.55,24ZM86,24a15.47,15.47,0,0,1,15.45,15.46V79.2A15.47,15.47,0,0,1,86,94.65H19.72A15.47,15.47,0,0,1,4.26,79.2V39.45A15.47,15.47,0,0,1,19.72,24Z" transform="translate(-4.26 -23.99)"/></svg>