<?xml version="1.0" encoding="UTF-8"?>
<svg width="24px" height="24px" viewBox="0 0 24 24" version="1.1" xmlns="http://www.w3.org/2000/svg" xmlns:xlink="http://www.w3.org/1999/xlink">
    <title>mute</title>
    <g id="Mute-Icon" stroke="none" stroke-width="1" fill="nonzero" fill-rule="evenodd">
        <g id="Group-19" fill="nonzero" transform="translate(2.397903, 4.330242)">
            <path d="M7.63313233,0.559071385 C8.23883732,0.46313714 8.85265283,0.910887891 8.9486404,1.51692956 L8.9486404,1.51692956 L9.03273618,2.04788941 C11.3117129,2.23121426 13.20156,3.87569725 13.5739384,6.22680226 L13.5739384,6.22680226 L14.2346529,10.3983891 L15.9886992,11.6757578 L16.1090036,12.43533 L3.24206549,14.4732528 L3.12176107,13.7136806 L4.39657637,11.9565873 L3.73586192,7.7850005 C3.36348347,5.43389549 4.6513149,3.28611767 6.76210005,2.40752284 L6.76210005,2.40752284 L6.67800427,1.876563 C6.58191004,1.26984795 7.02742735,0.655005629 7.63313233,0.559071385 Z M9.47684488,3.71622492 L5.42119116,5.11269848 L5.73415297,6.0216056 L8.32316112,5.1301386 L6.77680498,9.22863355 L7.02575188,9.95162784 L11.2397758,8.50062305 L10.926814,7.59171594 L8.18632129,8.53534324 L9.72579178,4.43921921 L9.47684488,3.71622492 Z" id="Combined-Shape"></path>
            <polygon id="Z" fill-rule="nonzero" transform="translate(13.946855, 2.351613) rotate(-19.000000) translate(-13.946855, -2.351613) " points="15.6181694 4.26324684 15.6181694 3.54228762 13.4443682 3.54228762 15.5362423 1.01346853 15.5362423 0.439978237 12.3192348 0.439978237 12.3192348 1.16093746 14.3728762 1.16093746 12.2755403 3.68975655 12.2755403 4.26324684"></polygon>
            <polygon id="Z" fill-rule="nonzero" transform="translate(2.202626, 11.061501) rotate(-19.000000) translate(-2.202626, -11.061501) " points="3.87394077 12.9731354 3.87394077 12.2521761 1.70013948 12.2521761 3.79201359 9.72335704 3.79201359 9.14986675 0.575006152 9.14986675 0.575006152 9.87082597 2.62864757 9.87082597 0.531311653 12.3996451 0.531311653 12.9731354"></polygon>
        </g>
    </g>
</svg>