<?xml version="1.0" encoding="UTF-8"?>
<svg width="16px" height="16px" viewBox="0 0 16 16" version="1.1" xmlns="http://www.w3.org/2000/svg" xmlns:xlink="http://www.w3.org/1999/xlink">
    <title>organizer-chat</title>
    <defs>
        <path d="M13.8333333,16.6666667 C14.8446667,16.6666667 15.6666667,17.4886667 15.6666667,18.5 L15.6666667,18.5 L15.6666667,19.5 C15.6666667,19.776 15.4426667,20 15.1666667,20 L15.1666667,20 L8.83333333,20 C8.55733333,20 8.33333333,19.776 8.33333333,19.5 L8.33333333,19.5 L8.33333333,18.5 C8.33333333,17.4886667 9.15533333,16.6666667 10.1666667,16.6666667 L10.1666667,16.6666667 Z M7.5,16 C7.84666667,16 8.17333333,16.1 8.44666667,16.2666667 C7.77333333,16.7733333 7.33333333,17.5866667 7.33333333,18.5 L7.33333333,18.6666667 L4.5,18.6666667 C4.22666667,18.6666667 4,18.44 4,18.1666667 L4,17.8333333 C4,16.82 4.82,16 5.83333333,16 L7.5,16 Z M18.1666667,16 C19.18,16 20,16.82 20,17.8333333 L20,18.1666667 C20,18.44 19.7733333,18.6666667 19.5,18.6666667 L16.6666667,18.6666667 L16.6666667,18.5 C16.6666667,17.5866667 16.2266667,16.7733333 15.5533333,16.2666667 C15.8266667,16.1 16.1533333,16 16.5,16 L18.1666667,16 Z M12,11.6666667 C13.1045695,11.6666667 14,12.5620972 14,13.6666667 C14,14.7712362 13.1045695,15.6666667 12,15.6666667 C10.8954305,15.6666667 10,14.7712362 10,13.6666667 C10,12.5620972 10.8954305,11.6666667 12,11.6666667 Z M6.66666667,12.6666667 C7.40304633,12.6666667 8,13.2636203 8,14 C8,14.7363797 7.40304633,15.3333333 6.66666667,15.3333333 C5.930287,15.3333333 5.33333333,14.7363797 5.33333333,14 C5.33333333,13.2636203 5.930287,12.6666667 6.66666667,12.6666667 Z M17.3333333,12.6666667 C18.069713,12.6666667 18.6666667,13.2636203 18.6666667,14 C18.6666667,14.7363797 18.069713,15.3333333 17.3333333,15.3333333 C16.5969537,15.3333333 16,14.7363797 16,14 C16,13.2636203 16.5969537,12.6666667 17.3333333,12.6666667 Z M7.06666667,4.66666667 C7.02,4.82666667 7,4.99333333 7,5.16666667 L7,5.16666667 L7,8.16666667 C7,8.94666667 7.42,9.63333333 8.04,10.02 L8.04,10.02 L7.04,11.16 C6.94666667,11.2733333 6.81333333,11.3333333 6.66666667,11.3333333 L6.66666667,11.3333333 L6.64666667,11.3333333 C6.5,11.3266667 6.36,11.2533333 6.26666667,11.1333333 L6.26666667,11.1333333 L5.41333333,10 L5.16666667,10 C4.52666667,10 4,9.47333333 4,8.83333333 L4,8.83333333 L4,5.83333333 C4,5.19333333 4.52666667,4.66666667 5.16666667,4.66666667 L5.16666667,4.66666667 Z M18.8333333,4.66666667 C19.4733333,4.66666667 20,5.19333333 20,5.83333333 L20,5.83333333 L20,8.83333333 C20,9.47333333 19.4733333,10 18.8333333,10 L18.8333333,10 L18.58,10 L17.7333333,11.1333333 C17.64,11.2533333 17.5,11.3266667 17.3533333,11.3333333 L17.3533333,11.3333333 L17.3333333,11.3333333 C17.1866667,11.3333333 17.0533333,11.2733333 16.96,11.16 L16.96,11.16 L15.96,10.02 C16.58,9.63333333 17,8.94666667 17,8.16666667 L17,8.16666667 L17,5.16666667 C17,4.99333333 16.98,4.82666667 16.9333333,4.66666667 L16.9333333,4.66666667 Z M14.8333333,4 C15.4766667,4 16,4.52333333 16,5.16666667 L16,8.16666667 C16,8.81 15.4766667,9.33333333 14.8333333,9.33333333 L13.3933333,9.33333333 L12.376,10.496 C12.2813333,10.6046667 12.144,10.6666667 12,10.6666667 L11.9813333,10.6666667 L11.9813333,10.6666667 C11.8306667,10.6606667 11.6906667,10.5873333 11.6,10.4666667 L10.75,9.33333333 L9.16666667,9.33333333 C8.52333333,9.33333333 8,8.81 8,8.16666667 L8,5.16666667 C8,4.52333333 8.52333333,4 9.16666667,4 L14.8333333,4 Z" id="path-1"></path>
    </defs>
    <g id="bannersv2" stroke="nonzero" stroke-width="1" fill="nonzero" fill-rule="evenodd">
        <g id="Group" transform="translate(-4.000000, -4.000000)">
            <mask id="mask-2" fill="nonzero">
                <use xlink:href="#path-1"></use>
            </mask>
            <use id="Shape" fill="nonzero" xlink:href="#path-1"></use>
        </g>
    </g>
</svg>