<svg id="Calque_1" data-name="Calque 1" xmlns="http://www.w3.org/2000/svg" viewBox="0 0 261.11 260.52"><defs><style>.cls-1,.cls-2{fill:none;stroke:#000;}.cls-1{stroke-width:6px;}.cls-2{stroke-width:7px;}</style></defs><title>organization</title><polygon id="Path" class="cls-1" points="187.19 142.62 170.28 159.42 170.28 159.42 53.5 42.84 62.47 33.87 25.21 4.02 4.03 25.21 33.98 62.36 42.95 53.39 159.84 169.96 142.94 186.87 167.04 210.87 211.4 166.62 187.19 142.62"/><path id="Path-2" data-name="Path" class="cls-1" d="M230.41,180.84l-44.35,44.25,26.61,26.51a31.29,31.29,0,0,0,44.25-44.25Z" transform="translate(-8.57 -3.68)"/><path id="Shape" class="cls-1" d="M106.11,133.15l34.54,34.54L115.4,192.95A52.6,52.6,0,1,1,12.6,208.71,51.76,51.76,0,0,1,28,171.56a52.28,52.28,0,0,1,52.81-13h0ZM77.2,196.6a17,17,0,1,0,0,24.11A17,17,0,0,0,77.2,196.6Z" transform="translate(-8.57 -3.68)"/><path id="Path-3" data-name="Path" class="cls-2" d="M262.76,39.33l-4.17-10.54L232.08,55.29l-10.75-2.92L218.4,41.62l26.51-26.51-10.54-4.17a49.9,49.9,0,0,0-66.27,60L138,101l34.54,34.54,30.06-29.85a50,50,0,0,0,60.11-66.38Z" transform="translate(-8.57 -3.68)"/></svg>
