<?xml version="1.0" encoding="UTF-8"?>
<svg width="24px" height="24px" viewBox="0 0 24 24" version="1.1" xmlns="http://www.w3.org/2000/svg" xmlns:xlink="http://www.w3.org/1999/xlink">
    <title>paperclip24</title>
    <g id="paperclip_icon" stroke="nonzero" stroke-width="1" fill="nonzero" fill-rule="evenodd">
        <g id="Group" fill="nonzero" fill-rule="nonzero">
            <g id="paperclip" transform="translate(7.000000, 4.000000)">
                <path d="M5,16 C2.24267578,16 0,13.7573242 0,11 L0,4 C0,3.63134766 0.298706062,3.33337403 0.666625969,3.33337403 C1.03466797,3.33337403 1.33337403,3.63134766 1.33337403,4 L1.33337403,11 C1.33337403,13.0213623 2.97802734,14.666626 5,14.666626 C7.02197266,14.666626 8.66662597,13.0213623 8.66662597,11 L8.66662597,3.66662597 C8.66662597,2.38000488 7.61999512,1.33337403 6.33337403,1.33337403 C5.04663087,1.33337403 4,2.38000488 4,3.66662597 L4,10.333374 C4,10.8846436 4.44860841,11.333374 5,11.333374 C5.55139159,11.333374 6,10.8846436 6,10.333374 L6,4 C6,3.63134766 6.29870606,3.33337403 6.66662597,3.33337403 C7.03466797,3.33337403 7.33337403,3.63134766 7.33337403,4 L7.33337403,10.333374 C7.33337403,11.6199951 6.28662109,12.666626 5,12.666626 C3.71337891,12.666626 2.66662597,11.6199951 2.66662597,10.333374 L2.66662597,3.66662597 C2.66662597,1.64538575 4.31127931,0 6.33337403,0 C8.35534669,0 10,1.64538575 10,3.66662597 L10,11 C10,13.7573242 7.75732422,16 5,16 Z" id="Path"></path>
            </g>
        </g>
    </g>
</svg>