<?xml version="1.0" encoding="UTF-8"?>
<svg width="24px" height="24px" viewBox="0 0 24 24" version="1.1" xmlns="http://www.w3.org/2000/svg" xmlns:xlink="http://www.w3.org/1999/xlink">
    <title>phone</title>
    <g id="Settings" stroke="none" stroke-width="1" fill="none" fill-rule="evenodd">
        <g id="Group-5-Copy">
            <rect id="Rectangle" x="0" y="0" width="24" height="24"></rect>
            <g id="mobilePhone-icon" transform="translate(6.000000, 3.000000)" fill="#364958" fill-rule="nonzero">
                <path d="M9.4361148,0 C10.3276335,0 10.6509198,0.09282561 10.9768457,0.2671327 C11.3027716,0.4414398 11.5585602,0.69722837 11.7328673,1.0231543 C11.9071744,1.34908022 12,1.67236646 12,2.5638852 L12,15.4361148 C12,16.3276335 11.9071744,16.6509198 11.7328673,16.9768457 C11.5585602,17.3027716 11.3027716,17.5585602 10.9768457,17.7328673 C10.6509198,17.9071744 10.3276335,18 9.4361148,18 L2.5638852,18 C1.67236646,18 1.34908022,17.9071744 1.0231543,17.7328673 C0.69722837,17.5585602 0.4414398,17.3027716 0.2671327,16.9768457 C0.09282561,16.6509198 0,16.3276335 0,15.4361148 L0,2.5638852 C0,1.67236646 0.09282561,1.34908022 0.2671327,1.0231543 C0.4414398,0.69722837 0.69722837,0.4414398 1.0231543,0.2671327 C1.34908022,0.09282561 1.67236646,0 2.5638852,0 L9.4361148,0 Z M8.5130379,0.9 L3.48696212,0.9 C2.59544338,0.9 2.27215715,0.99282561 1.94623122,1.1671327 C1.62030529,1.3414398 1.36451672,1.59722837 1.19020963,1.9231543 C1.01590253,2.24908022 0.92307692,2.57236646 0.92307692,3.4638852 L0.92307692,3.4638852 L0.92307692,14.3361148 C0.92307692,15.2276335 1.01590253,15.5509198 1.19020963,15.8768457 C1.36451672,16.2027716 1.62030529,16.4585602 1.94623122,16.6328673 C2.27215715,16.8071744 2.59544338,16.9 3.48696212,16.9 L3.48696212,16.9 L8.5130379,16.9 C9.4045566,16.9 9.7278429,16.8071744 10.0537688,16.6328673 C10.3796947,16.4585602 10.6354833,16.2027716 10.8097904,15.8768457 C10.9840975,15.5509198 11.0769231,15.2276335 11.0769231,14.3361148 L11.0769231,14.3361148 L11.0769231,3.4638852 C11.0769231,2.57236646 10.9840975,2.24908022 10.8097904,1.9231543 C10.6354833,1.59722837 10.3796947,1.3414398 10.0537688,1.1671327 C9.7278429,0.99282561 9.4045566,0.9 8.5130379,0.9 L8.5130379,0.9 Z M3.69230769,0.9 L8.3076923,0.9 L8.3076923,1.3 C8.3076923,1.57614237 8.0838347,1.8 7.8076923,1.8 L4.19230769,1.8 C3.91616532,1.8 3.69230769,1.57614237 3.69230769,1.3 L3.69230769,0.9 L3.69230769,0.9 Z" id="Combined-Shape"></path>
            </g>
        </g>
    </g>
</svg>