<?xml version="1.0" encoding="UTF-8"?>
<svg width="24px" height="24px" viewBox="0 0 24 24" version="1.1" xmlns="http://www.w3.org/2000/svg" xmlns:xlink="http://www.w3.org/1999/xlink">
    <title>picture</title>
    <g id="Picture-icon" stroke="none" stroke-width="1" fill="none" fill-rule="evenodd">
        <g id="Group">
            <rect id="Rectangle" x="0" y="0" width="24" height="24"></rect>
            <g fill="#364958" id="Combined-Shape">
                <path d="M18,6 C19.1026611,6 20,6.89733887 20,8 L20,8 L20,16 C20,17.1026611 19.1026611,18 18,18 L18,18 L6,18 C5.01599122,18 4.19995119,17.2840576 4.03527831,16.3466797 C4.00598144,16.2706299 4.00195312,16.1899414 4.01135253,16.1099853 C4.00927734,16.0726318 4,16.0373535 4,16 L4,16 L4,8 C4,6.89733887 4.89733887,6 6,6 L6,6 Z M18,7.33337403 L6,7.33337403 C5.63269044,7.33337403 5.33337403,7.63269044 5.33337403,8 L5.33337403,8 L5.33337403,14.6259766 L7.83996581,12.1193848 C8.29528809,11.6633301 9.0373535,11.6633301 9.49328613,12.1193848 L9.49328613,12.1193848 L10.333374,12.9593506 L13.5067139,9.78601075 C13.9620361,9.32995606 14.7039795,9.32995606 15.1600342,9.78601075 L15.1600342,9.78601075 L18.666626,13.2927246 L18.666626,8 C18.666626,7.63269044 18.3673096,7.33337403 18,7.33337403 L18,7.33337403 Z M7.33337403,8 C8.06970216,8 8.66662597,8.59692381 8.66662597,9.33337403 C8.66662597,10.0697022 8.06970216,10.666626 7.33337403,10.666626 C6.59692381,10.666626 6,10.0697022 6,9.33337403 C6,8.59692381 6.59692381,8 7.33337403,8 Z"></path>
            </g>
        </g>
    </g>
</svg>