<?xml version="1.0" encoding="UTF-8"?>
<svg width="24px" height="24px" viewBox="0 0 24 24" version="1.1" xmlns="http://www.w3.org/2000/svg" xmlns:xlink="http://www.w3.org/1999/xlink">
    <title>pointer-move</title>
    <g id="Pointer-move" stroke="none" stroke-width="1" fill="nonzero" fill-rule="evenodd">
        <g id="move" transform="translate(5.000000, 5.000000)" fill="nonzero" fill-rule="nonzero">
            <path d="M8.88793413,1.95050714 L7.25933192,0.124899716 C7.18550548,0.0421428107 7.0870334,-0.000226742737 6.98524577,0 C6.88157931,-0.00109395582 6.78089686,0.0421428107 6.70707043,0.124899716 L5.11206587,1.91284532 C4.96264471,2.08034133 4.96264471,2.35264624 5.11206587,2.52001836 L5.317741,2.75057315 C5.46196778,2.91224645 5.71372917,2.91224645 5.85806648,2.75057315 L6.46868179,2.06460761 L6.46868179,4.58534826 C6.46868179,4.59302929 6.47266046,4.59934756 6.47387616,4.60653304 C6.49045396,4.82618572 6.65479513,5 6.85516536,5 L7.1458293,5 C7.35703036,5 7.5306551,4.80772647 7.5306551,4.5709773 L7.5306551,4.28950471 C7.5306551,4.28826583 7.5306551,4.28739862 7.5306551,4.28640752 L7.5306551,2.10202166 L8.14149145,2.78811109 C8.29091261,2.9556071 8.53327992,2.9556071 8.68259056,2.78811109 L8.88793413,2.55780407 C9.03735529,2.39018417 9.03735529,2.11775538 8.88793413,1.95050714 Z" id="Path"></path>
            <path d="M8.88793181,11.4426412 L8.68236295,11.2117195 C8.53813318,11.0498018 8.28625606,11.0498018 8.14180525,11.2117195 L7.53095626,11.8977948 L7.53095626,9.72311695 C7.53095626,9.7218781 7.53095626,9.72113479 7.53095626,9.72001982 L7.53095626,9.43855302 C7.53095626,9.20168484 7.35721742,9 7.14623303,9 L6.85534203,9 C6.65518869,9 6.49084412,9.17827056 6.47415547,9.3981665 C6.47293974,9.40547572 6.46896098,9.41662537 6.46896098,9.42418236 L6.46896098,11.9354559 L5.85833304,11.2495045 C5.71399275,11.0877106 5.46167355,11.0877106 5.31733326,11.2495045 L5.11176439,11.4800545 C4.96256118,11.6474232 4.96278223,11.9198464 5.11220648,12.0873389 L6.70735455,13.8751239 C6.77930366,13.9560208 6.87534631,14 6.97448356,14 L6.98885127,14 C7.09152519,14 7.1873468,13.9561447 7.25940642,13.8751239 L8.88793181,12.0496779 C9.03735606,11.8823092 9.03735606,11.6100099 8.88793181,11.4426412 Z" id="Path"></path>
            <path d="M4.55981326,6.46488372 L4.52307933,6.46488372 L4.27649037,6.46488372 C4.27562166,6.46488372 4.27475295,6.46488372 4.27376014,6.46488372 L2.10571326,6.46488372 L2.79298537,5.85616405 C2.87402341,5.78410791 2.91857572,5.6895066 2.91857572,5.58705868 C2.91857572,5.48450025 2.87402341,5.38912532 2.79298537,5.3171797 L2.56203315,5.11195232 C2.39424841,4.96253529 2.12135001,4.96275632 1.95381347,5.11217335 L0.125059105,6.74062003 C0.0421595449,6.8143339 -0.0021445613,6.91324532 8.9259178e-05,7.0146986 C-0.00226866244,7.12024095 0.0421595449,7.21904186 0.125059105,7.29286625 L1.91608673,8.88793723 C1.99997909,8.96264574 2.1100568,9 2.22025861,9 C2.33046042,9 2.44053813,8.96264574 2.5244305,8.88793723 L2.75525862,8.6823783 C2.83629666,8.61032216 2.88097307,8.51406311 2.88097307,8.41161519 C2.88097307,8.30905676 2.83642076,8.21180307 2.75525862,8.13985745 L2.06823472,7.52693819 L4.57284388,7.52693819 C4.58041405,7.52693819 4.59282417,7.52528046 4.60002203,7.52406478 C4.82017745,7.50748745 5,7.34536113 5,7.14510695 L5,6.85400898 C5,6.64303479 4.79697054,6.46488372 4.55981326,6.46488372 Z" id="Path"></path>
            <path d="M13.8748415,6.74054323 L12.0460778,5.11207206 C11.8784164,4.96264265 11.6055166,4.96264265 11.4378551,5.11207206 L11.2071499,5.31775856 C11.1261115,5.38971015 11.0814348,5.48597718 11.0814348,5.58843359 C11.0814348,5.69100052 11.1259873,5.78384129 11.2071499,5.8559034 L11.8943014,6.46467354 L9.71234414,6.46467354 C9.71122722,6.46467354 9.71035851,6.46467354 9.70936569,6.46467354 L9.42753058,6.46467354 C9.19037211,6.46467354 9,6.64272886 9,6.85383106 L9,7.14495317 C9,7.34522395 9.17262556,7.50714266 9.39290619,7.52383189 C9.40022819,7.52515819 9.40556457,7.52681606 9.41301068,7.52681606 L11.9319042,7.52681606 L11.2445045,8.13967561 C11.1635902,8.2116272 11.1189135,8.3086679 11.1189135,8.41090326 C11.1189135,8.51358072 11.1634661,8.6100688 11.2445045,8.68213092 L11.475582,8.88781741 C11.5593507,8.96253212 11.669429,9 11.7796313,9 C11.8898337,9 11.9997879,8.96264265 12.0836807,8.88792794 L13.8749656,7.29272471 C13.9576173,7.21911525 14.0019217,7.12019563 13.999936,7.01862341 C14.0017976,6.91307231 13.9574932,6.81415269 13.8748415,6.74054323 Z" id="Path"></path>
            <path d="M6.999948,6 C6.44859327,6 6,6.44856994 6,7 C6,7.55132605 6.44859327,8 6.999948,8 C7.55130272,8 8,7.55132605 8,7 C8,6.44856994 7.55130272,6 6.999948,6 Z" id="Path"></path>
        </g>
    </g>
</svg>