<svg id="Calque_1" data-name="Calque 1" xmlns="http://www.w3.org/2000/svg" viewBox="0 0 256 230.83"><title>press</title><path d="M20.49,114.57l94.72,30.72v-10L20.49,104.54Z" transform="translate(-1.5 -14.09)"/><path d="M82.14,113.29l33.07,10.45v-10L82.14,103.26Z" transform="translate(-1.5 -14.09)"/><path d="M82.14,92.59l33.07,10.24V93L82.14,82.57Z" transform="translate(-1.5 -14.09)"/><path d="M82.14,71.69l33.07,10.45v-10L82.14,61.87Z" transform="translate(-1.5 -14.09)"/><path d="M238.51,97.07l-94.72,30.72v10l94.72-30.72Z" transform="translate(-1.5 -14.09)"/><path d="M205.87,155.31l32.64-10.24V135l-32.64,10.24Z" transform="translate(-1.5 -14.09)"/><path d="M205.87,176.22,238.51,166V156l-32.64,10.24Z" transform="translate(-1.5 -14.09)"/><path d="M205.87,197.13l32.64-10.24v-10L205.87,187.1Z" transform="translate(-1.5 -14.09)"/><path d="M255.58,14.94a4.29,4.29,0,0,0-2.77-.85,3.63,3.63,0,0,0-1.49.21L129.5,54.62,7.69,14.3a5,5,0,0,0-4.27.64A4.56,4.56,0,0,0,1.5,18.78V199.26a4.61,4.61,0,0,0,3.2,4.48L128,244.7h.21c.43,0,.64.21,1.07.21h.43a2.71,2.71,0,0,0,1.28-.21L254.3,204a4.81,4.81,0,0,0,3.2-4.48V18.78A4.85,4.85,0,0,0,255.58,14.94ZM10.89,25.39,124.59,63.15V233.61L10.89,195.85V25.39ZM248.11,195.85,134.41,233.61V63.15L248.11,25.39Z" transform="translate(-1.5 -14.09)"/><path d="M20.49,186.67l94.72,30.72V173.45L20.49,142.73Zm9.39-30.93,75.95,24.75v23.89L29.87,179.63Z" transform="translate(-1.5 -14.09)"/><path d="M71.26,58,20.49,41.61V93l50.77,16.43Zm-9.6,38.4L29.87,86.19V54.62L61.66,64.86Z" transform="translate(-1.5 -14.09)"/><path d="M238.51,41.61,143.79,72.33v43.95l94.72-30.72Zm-9.39,36.91-75.95,24.75V79.37l75.95-24.75V78.51Z" transform="translate(-1.5 -14.09)"/><path d="M194.57,149.55,143.79,166v51.41L194.57,201ZM185,193.93l-31.79,10.24V173L185,162.78Z" transform="translate(-1.5 -14.09)"/></svg>