<svg id="Calque_1" data-name="Calque 1" xmlns="http://www.w3.org/2000/svg" viewBox="0 0 245.76 256.66"><title>pricing</title><path d="M251.9,160.18l-9.13-28a4,4,0,0,1,0-2.49l9.13-28a16.58,16.58,0,0,0-6.08-18.49L221.9,65.77a4,4,0,0,1-1.46-2l-9.13-28.21a16.58,16.58,0,0,0-15.8-11.49H166a4,4,0,0,1-2.35-.76L139.7,5.68a16.58,16.58,0,0,0-19.61,0L96.28,23.11a4,4,0,0,1-2.35.76H64.24a16.58,16.58,0,0,0-15.8,11.49l-9.1,28.21a4,4,0,0,1-1.46,2l-24,17.28a16.58,16.58,0,0,0-6.05,18.57l9.13,28a4,4,0,0,1,0,2.49L7.87,160a16.58,16.58,0,0,0,6.05,18.83l23.92,17.4a4,4,0,0,1,1.46,2l9.13,28a16.58,16.58,0,0,0,15.8,11.49H93.85a4,4,0,0,1,2.35.76l23.9,17.48a16.58,16.58,0,0,0,19.61,0l23.81-17.4a4,4,0,0,1,2.35-.76h29.67a16.58,16.58,0,0,0,15.8-11.49l9.13-28a4,4,0,0,1,1.46-2l23.92-17.4A16.56,16.56,0,0,0,251.9,160.18Zm-21.15-24.26,9.13,28a4,4,0,0,1-1.46,4.48l-23.92,17.4a16.5,16.5,0,0,0-6.05,8.4l-9.13,28a4,4,0,0,1-3.81,2.8H166a16.53,16.53,0,0,0-9.78,3.17l-24,17.45a4,4,0,0,1-4.71,0l-23.92-17.4a16.53,16.53,0,0,0-9.78-3.17H64.24a4,4,0,0,1-3.81-2.8l-9.13-28a16.53,16.53,0,0,0-6-8.4l-23.92-17.4A4,4,0,0,1,19.89,164L29,136a16.53,16.53,0,0,0,0-10.28l-9.13-28a4,4,0,0,1,1.46-4.48L45.27,75.8a16.53,16.53,0,0,0,6.05-8.4l9.13-28a4,4,0,0,1,3.81-2.8H93.85a16.53,16.53,0,0,0,9.78-3.17l23.9-17.48a4,4,0,0,1,4.73,0l23.92,17.4A16.53,16.53,0,0,0,166,36.5h29.58a4,4,0,0,1,3.81,2.8l9.13,28a16.5,16.5,0,0,0,6.05,8.4l23.92,17.4a4,4,0,0,1,1.46,4.48l-9.16,28A16.5,16.5,0,0,0,230.75,135.92Z" transform="translate(-6.99 -2.47)"/><path d="M134.21,122.39H123.9a16.64,16.64,0,0,1-16.81-14.54,16.16,16.16,0,0,1,14.49-17.68q.79-.08,1.59-.08h32.92a8,8,0,1,0,0-15.94H138.75V61.85a8,8,0,0,0-15.94,0V74.12a32.66,32.66,0,0,0-31.57,28.94,32.13,32.13,0,0,0,28.9,35.07q1.51.15,3,.15h11.21a16.64,16.64,0,0,1,16.81,14.54,16.16,16.16,0,0,1-14.49,17.68q-.79.08-1.59.08H102.25a8,8,0,0,0,0,15.94h20.53v11.71a8,8,0,1,0,15.94,0V186.31a32.13,32.13,0,0,0,28.38-35A32.72,32.72,0,0,0,134.21,122.39Z" transform="translate(-6.99 -2.47)"/></svg>