<?xml version="1.0" encoding="UTF-8"?>
<svg width="24px" height="24px" viewBox="0 0 24 24" version="1.1" xmlns="http://www.w3.org/2000/svg" xmlns:xlink="http://www.w3.org/1999/xlink">
    <title>private</title>
    <g id="Group-creation" stroke="none" stroke-width="1" fill="none" fill-rule="evenodd">
        <g id="choosePublicPrivate" transform="translate(-393.000000, -744.000000)">
            <g id="private" transform="translate(393.000000, 744.000000)">
                <g id="lock-copy" transform="translate(7.741935, 5.419355)" fill="#364958" fill-rule="nonzero">
                    <path d="M4.27187681,0 C2.21472826,0.00237407361 0.547693291,1.68958273 0.545347569,3.77156951 L0.545347569,6.19615533 C0.545347569,6.34493902 0.664530226,6.46556217 0.811537142,6.46556217 L1.87624552,6.46556217 C2.02325244,6.46556217 2.1424351,6.34493902 2.1424351,6.19615533 L2.1424351,3.77156951 C2.1424351,2.58129993 3.09582149,1.61639054 4.27187681,1.61639054 C5.44793214,1.61639054 6.40131853,2.58129993 6.40131853,3.77156951 L6.40131853,6.19615533 C6.40131853,6.34493902 6.52050119,6.46556217 6.6675081,6.46556217 L7.73224144,6.46556217 C7.87924835,6.46556217 7.99843101,6.34493902 7.99843101,6.19615533 L7.99843101,3.77156951 C7.99606033,1.68958273 6.32902537,0.00237407361 4.27187681,0 Z" id="Path"></path>
                    <path d="M7.74282359,5.92676532 C8.18518984,5.92676532 8.54377858,6.28860993 8.54377858,6.73496156 L8.54377858,6.73496156 L8.54377858,11.584139 C8.54377858,12.3280584 7.9460973,12.9311243 7.20882022,12.9311243 L7.20882022,12.9311243 L1.33495836,12.9311243 C0.597681282,12.9311243 0,12.3280584 0,11.584139 L0,11.584139 L0,6.73496156 C0,6.28860993 0.358613775,5.92676532 0.800980024,5.92676532 L0.800980024,5.92676532 Z M4.02065646,7.4276994 C3.46572145,7.4276994 3.01584352,7.95036821 3.01584352,8.5950925 C3.01476021,8.92191441 3.13328796,9.23385218 3.34189492,9.45311972 L3.02839573,10.5457911 C2.98454541,10.6987093 3.05571387,10.8639671 3.18733549,10.9149125 C3.21302867,10.9248444 3.23994646,10.9298789 3.26702909,10.9298789 L4.77423674,10.9298789 C4.91297049,10.9300702 5.02558716,10.7995877 5.02575211,10.6384066 C5.02577556,10.606942 5.02144234,10.5756689 5.0128701,10.5458185 L4.69941801,9.45311972 C4.90802496,9.23385218 5.02657626,8.92191441 5.02546941,8.5950925 C5.02546941,7.95036821 4.57559148,7.4276994 4.02065646,7.4276994 Z" id="Combined-Shape"></path>
                </g>
                <rect id="Rectangle" x="0" y="0" width="24" height="24"></rect>
            </g>
        </g>
    </g>
</svg>