<?xml version="1.0" encoding="UTF-8"?>
<svg width="24px" height="24px" viewBox="0 0 24 24" version="1.1" xmlns="http://www.w3.org/2000/svg" xmlns:xlink="http://www.w3.org/1999/xlink">
    <title>public</title>
    <g id="Group-creation" stroke="none" stroke-width="1" fill="none" fill-rule="evenodd">
        <g id="choosePublicPrivate" transform="translate(-393.000000, -694.000000)">
            <g id="public" transform="translate(393.000000, 694.000000)">
                <rect id="Rectangle" x="0" y="0" width="24" height="24"></rect>
                <path d="M10.6832091,19.8921462 C6.89145543,19.2642045 4,15.9697701 4,12 C4,8.03022994 6.89145543,4.73579548 10.6832091,4.10785384 C11.1116046,4.03690847 11.5514921,4 12,4 C12.4485079,4 12.8883954,4.03690847 13.3167909,4.10785384 C17.1085446,4.73579548 20,8.03022994 20,12 C20,15.9697701 17.1085446,19.2642045 13.3167909,19.8921462 C12.8883954,19.9630915 12.4485079,20 12,20 C11.5514921,20 11.1116046,19.9630915 10.6832091,19.8921462 L10.6832091,19.8921462 Z M7.65217391,17.0589513 C8.16992515,17.481282 8.75558794,17.8296462 9.39130435,18.0869565 C9.06486896,17.5777074 8.78389952,17.0559015 8.54856932,16.5217391 C8.23573446,16.6805646 7.93625879,16.8602832 7.65217391,17.0589513 L7.65217391,17.0589513 Z M6.78768179,16.173913 C7.21994219,15.8439704 7.6837962,15.5533349 8.17391304,15.3073391 C7.93031639,14.4636643 7.78392828,13.5928866 7.73528388,12.6956522 L5.39130435,12.6956522 C5.52079999,14.000316 6.02208618,15.1955742 6.78768179,16.173913 L6.78768179,16.173913 Z M11.3043478,14.3967325 L11.3043478,12.6956522 L9.04347826,12.6956522 C9.08591831,13.4105204 9.19688466,14.1060148 9.37675856,14.7826087 C9.99173595,14.580622 10.6372425,14.4489345 11.3043478,14.3967325 L11.3043478,14.3967325 Z M11.3043478,15.6521739 C10.7639694,15.7011198 10.2401744,15.8078718 9.73913043,15.9662305 C10.1236499,16.8826049 10.6450425,17.7630062 11.3043478,18.6086957 L11.3043478,15.6521739 L11.3043478,15.6521739 Z M16.3478261,17.0589513 C16.0637412,16.8602832 15.7642655,16.6805646 15.4514307,16.5217391 C15.2161005,17.0559015 14.935131,17.5777074 14.6086957,18.0869565 C15.2444121,17.8296462 15.8300748,17.481282 16.3478261,17.0589513 L16.3478261,17.0589513 Z M17.2123182,16.173913 C17.9779138,15.1955742 18.4792,14.000316 18.6086957,12.6956522 L16.2647161,12.6956522 C16.2160717,13.5928866 16.0696836,14.4636643 15.826087,15.3073391 C16.3162038,15.5533349 16.7800578,15.8439704 17.2123182,16.173913 L17.2123182,16.173913 Z M12.6956522,14.3967325 C13.3627575,14.4489345 14.0082641,14.580622 14.6232414,14.7826087 C14.8031153,14.1060148 14.9140817,13.4105204 14.9565217,12.6956522 L12.6956522,12.6956522 L12.6956522,14.3967325 L12.6956522,14.3967325 Z M12.6956522,15.6521739 L12.6956522,18.6086957 C13.3549575,17.7630062 13.8763501,16.8826049 14.2608696,15.9662305 C13.7598256,15.8078718 13.2360306,15.7011198 12.6956522,15.6521739 L12.6956522,15.6521739 Z M7.65217391,6.94104875 C7.93625879,7.13971675 8.23573446,7.31943543 8.54856932,7.47826087 C8.78389952,6.94409846 9.06486896,6.42229262 9.39130435,5.91304348 C8.75558794,6.17035384 8.16992515,6.51871799 7.65217391,6.94104875 L7.65217391,6.94104875 Z M6.78768179,7.82608696 C6.02208618,8.80442585 5.52079999,9.99968404 5.39130435,11.3043478 L7.73528388,11.3043478 C7.78392828,10.4071134 7.93031639,9.53633569 8.17391304,8.69266093 C7.6837962,8.44666508 7.21994219,8.15602963 6.78768179,7.82608696 L6.78768179,7.82608696 Z M11.3043478,9.60326754 C10.6372425,9.55106548 9.99173595,9.41937798 9.37675855,9.2173913 C9.19688466,9.89398523 9.08591831,10.5894796 9.04347826,11.3043478 L11.3043478,11.3043478 L11.3043478,9.60326754 L11.3043478,9.60326754 Z M11.3043478,8.34782609 L11.3043478,5.39130435 C10.6450425,6.23699382 10.1236499,7.11739506 9.73913043,8.03376946 C10.2401744,8.19212822 10.7639694,8.29888018 11.3043478,8.34782609 L11.3043478,8.34782609 Z M16.3478261,6.94104875 C15.8300748,6.51871799 15.2444121,6.17035384 14.6086957,5.91304348 C14.935131,6.42229262 15.2161005,6.94409846 15.4514307,7.47826087 C15.7642655,7.31943543 16.0637412,7.13971675 16.3478261,6.94104875 L16.3478261,6.94104875 Z M17.2123182,7.82608696 C16.7800578,8.15602963 16.3162038,8.44666508 15.826087,8.69266093 C16.0696836,9.53633569 16.2160717,10.4071134 16.2647161,11.3043478 L18.6086957,11.3043478 C18.4792,9.99968404 17.9779138,8.80442585 17.2123182,7.82608696 L17.2123182,7.82608696 Z M12.6956522,9.60326754 L12.6956522,11.3043478 L14.9565217,11.3043478 C14.9140817,10.5894796 14.8031153,9.89398523 14.6232414,9.2173913 C14.0082641,9.41937798 13.3627575,9.55106548 12.6956522,9.60326754 L12.6956522,9.60326754 Z M12.6956522,8.34782609 C13.2360306,8.29888018 13.7598256,8.19212822 14.2608696,8.03376946 C13.8763501,7.11739506 13.3549575,6.23699382 12.6956522,5.39130435 L12.6956522,8.34782609 L12.6956522,8.34782609 Z" id="Style-Copy" fill="#364958"></path>
            </g>
        </g>
    </g>
</svg>