<svg xmlns="http://www.w3.org/2000/svg" width="24" height="24" viewBox="0 0 24 24">
    <g fill="none" fill-rule="evenodd">
        <g fill="#0BB89D">
            <g>
                <g>
                    <g>
                        <path d="M13.143 10.857h5.747c.25 0 .442.046.603.132.162.087.288.213.375.375.086.161.132.353.132.603v.066c0 .25-.046.442-.132.603-.087.162-.213.288-.375.375-.161.086-.353.132-.603.132h-5.747v5.747c0 .25-.046.442-.132.603-.087.162-.213.288-.375.375-.161.086-.353.132-.603.132h-.066c-.25 0-.442-.046-.603-.132-.162-.087-.288-.213-.375-.375-.086-.161-.132-.353-.132-.603v-5.747H5.11c-.25 0-.442-.046-.603-.132-.162-.087-.288-.213-.375-.375-.086-.161-.132-.353-.132-.603v-.066c0-.25.046-.442.132-.603.087-.162.213-.288.375-.375.161-.086.353-.132.603-.132h5.747V5.11c0-.25.046-.442.132-.603.087-.162.213-.288.375-.375.161-.086.353-.132.603-.132h.066c.25 0 .442.046.603.132.162.087.288.213.375.375.086.161.132.353.132.603v5.747z" transform="translate(-757.000000, -572.000000) translate(240.000000, 374.000000) translate(509.000000, 190.000000) translate(8.000000, 8.000000)"/>
                    </g>
                </g>
            </g>
        </g>
    </g>
</svg>
