<?xml version="1.0" encoding="UTF-8"?>
<svg width="24px" height="24px" viewBox="0 0 24 24" version="1.1" xmlns="http://www.w3.org/2000/svg" xmlns:xlink="http://www.w3.org/1999/xlink">
    <title>recuring</title>
    <g id="recuring" stroke="none" stroke-width="1" fill="none" fill-rule="evenodd">
        <g id="01---Particles/03---Icon/02---Essentials/02---Content/Calendar-Update" fill="#364958">
            <path d="M16.4106905,5 C17.6587716,5 18.111356,5.1329094 18.5676358,5.38248546 C19.0239156,5.63206153 19.3820066,5.99830426 19.6260277,6.46497092 C19.8700488,6.93163759 20,7.3945247 20,8.67101745 L20,16.3289826 C20,17.6054753 19.8700488,18.0683624 19.6260277,18.5350291 C19.3820066,19.0016957 19.0239156,19.3679385 18.5676358,19.6175145 C18.111356,19.8670906 17.6587716,20 16.4106905,20 L7.58930953,20 C6.34122841,20 5.88864404,19.8670906 5.43236423,19.6175145 C4.97608443,19.3679385 4.61799337,19.0016957 4.37397227,18.5350291 C4.12995116,18.0683624 4,17.6054753 4,16.3289826 L4,8.67101745 C4,7.3945247 4.12995116,6.93163759 4.37397227,6.46497092 C4.61799337,5.99830426 4.97608443,5.63206153 5.43236423,5.38248546 C5.88864404,5.1329094 6.34122841,5 7.58930953,5 L16.4106905,5 Z M17.127861,8.4088995 L6.87156065,8.4088995 C6.33666874,8.4088995 6.14270401,8.46586067 5.94715552,8.57282184 C5.75160703,8.67978301 5.59813944,8.83674419 5.49355896,9.03674419 C5.38897849,9.23674419 5.33328513,9.43512438 5.33328513,9.98219269 L5.33328513,16.1882794 C5.33328513,17.0392745 5.41991924,17.3478659 5.58259997,17.658977 C5.74528071,17.9700881 5.98400808,18.2142499 6.28819461,18.380634 C6.59238114,18.547018 6.89410405,18.6356243 7.72615811,18.6356243 L16.2732635,18.6356243 C17.1053176,18.6356243 17.4070405,18.547018 17.711227,18.380634 C18.0154135,18.2142499 18.2541409,17.9700881 18.4168216,17.658977 C18.5795024,17.3478659 18.6661365,17.0392745 18.6661365,16.1882794 L18.6661365,9.98219269 C18.6661365,9.43512438 18.6104431,9.23674419 18.5058627,9.03674419 C18.4012822,8.83674419 18.2478146,8.67978301 18.0522661,8.57282184 C17.8567176,8.46586067 17.6627529,8.4088995 17.127861,8.4088995 Z M14.4658791,14.0678893 C14.654793,14.0678893 14.8310553,14.1628053 14.9353381,14.3202623 C15.0395922,14.4776619 15.0581537,14.6768463 14.9844672,14.8508135 C14.4542316,16.1059078 13.2110143,16.9889549 11.7649549,16.9889549 C10.8112766,16.9889549 9.94633197,16.6048443 9.31512705,15.9834508 L9.31512705,15.9834508 L9.078375,16.3392602 C9.01876025,16.4288975 8.90740574,16.4687459 8.80434221,16.4373607 C8.70143648,16.4059754 8.63126434,16.3107582 8.63186295,16.2030902 L8.63186295,16.2030902 L8.64078893,14.3104652 C8.64123361,14.228 8.68333402,14.1513443 8.75260246,14.1066762 C8.82201434,14.0620656 8.90922746,14.0555963 8.98453484,14.0893914 L8.98453484,14.0893914 L10.7022029,14.8621455 C10.8005902,14.9063545 10.8582111,15.0101066 10.8437377,15.1170143 C10.82925,15.2240082 10.7462541,15.308668 10.6395758,15.325207 L10.6395758,15.325207 L10.3272152,15.3735328 C10.7257275,15.681748 11.2227848,15.8675779 11.7649693,15.8675779 C12.7486557,15.8675779 13.592457,15.2650328 13.9513217,14.4100574 C14.0382336,14.2027971 14.2411906,14.0678893 14.4658791,14.0678893 Z M11.7649693,10 C12.7186475,10 13.5835779,10.3841107 14.2147971,11.0054754 L14.2147971,11.0054754 L14.4515492,10.649666 C14.5111783,10.560043 14.6225184,10.520209 14.725582,10.5515943 C14.8284734,10.5829795 14.8986598,10.6781967 14.8980612,10.7858648 L14.8980612,10.7858648 L14.8891496,12.6784898 C14.8886906,12.7609693 14.8466045,12.837625 14.7773217,12.882293 C14.7079242,12.9268893 14.6206967,12.9333873 14.5454037,12.8995779 L14.5454037,12.8995779 L12.8277357,12.1268238 C12.7293484,12.0826148 12.6717131,11.978877 12.6862008,11.8719549 C12.7006598,11.7649754 12.7836557,11.6803299 12.8903484,11.663791 L12.8903484,11.663791 L13.2026947,11.6154365 C12.8041967,11.3072213 12.3071393,11.1213914 11.7649693,11.1213914 C10.7812684,11.1213914 9.93746721,11.7239365 9.5786168,12.5789119 C9.49170492,12.7861721 9.28874795,12.9210799 9.06405943,12.9210799 C8.87513115,12.9210799 8.6988832,12.8261496 8.59461475,12.668707 C8.49034631,12.5113217 8.47178484,12.312123 8.54542828,12.1381557 C9.07567828,10.8830615 10.3189385,10 11.7649693,10 Z" id="Combined-Shape"></path>
        </g>
    </g>
</svg>