<svg width="24" height="24" viewBox="0 0 24 24" fill="none" xmlns="http://www.w3.org/2000/svg">
<rect width="24" height="24" fill="white"/>
<path fill-rule="evenodd" clip-rule="evenodd" d="M10.3794 19.4056C9.89504 19.2967 9.64783 18.7789 9.81106 18.3101C9.97428 17.8413 10.4865 17.6007 10.9742 17.6932C11.869 17.863 12.7944 17.8307 13.6817 17.5937C14.8598 17.2791 15.9164 16.6182 16.7148 15.6965C17.5132 14.7749 18.0166 13.6348 18.16 12.4239C18.3033 11.213 18.08 9.98687 17.5189 8.90424C16.9578 7.82161 16.0848 6.93227 15.0127 6.35125C13.9406 5.77024 12.7189 5.5243 11.5055 5.64525C10.2921 5.7662 9.14298 6.24847 8.20669 7.02968C7.50154 7.61803 6.94158 8.35556 6.5644 9.18455C6.55524 9.20469 6.5455 9.22449 6.53523 9.24393L7.66898 9.632L4.61429 12.0462L3.78467 8.30245L4.8317 8.66083C5.31876 7.49734 6.07963 6.46316 7.05499 5.64935C8.26755 4.63764 9.7558 4.01306 11.3272 3.85642C12.8986 3.69978 14.4809 4.01829 15.8693 4.77074C17.2577 5.5232 18.3883 6.67497 19.115 8.07705C19.8417 9.47913 20.1308 11.067 19.9452 12.6352C19.7595 14.2035 19.1075 15.6799 18.0736 16.8736C17.0396 18.0672 15.6712 18.9231 14.1455 19.3306C12.9104 19.6604 11.6181 19.6841 10.3794 19.4056Z" fill="#364958"/>
<rect x="12.3334" y="8.05322" width="5.21256" height="5.21256" rx="1" transform="rotate(48.0702 12.3334 8.05322)" fill="#364958"/>
</svg>
