<?xml version="1.0" encoding="UTF-8"?>
<svg width="24px" height="24px" viewBox="0 0 24 24" version="1.1" xmlns="http://www.w3.org/2000/svg" xmlns:xlink="http://www.w3.org/1999/xlink">
    <title>search24</title>
    <g id="01---Particles/03---Icon/02---Essentials/03---Actions/Search" stroke="nonzero" stroke-width="1" fill="nonzero" fill-rule="evenodd">
        <path d="M15.8800288,14.337388 L19.7231695,18.1814508 C20.0923037,18.5506609 20.0922729,19.1491977 19.7231008,19.5183699 L19.5183699,19.7231008 C19.1491977,20.0922729 18.5506609,20.0923037 18.1814508,19.7231695 L14.337388,15.8800288 C13.2674692,16.6419463 11.9585805,17.0900589 10.5450295,17.0900589 C6.93030951,17.0900589 4,14.1597494 4,10.5450295 C4,6.93030951 6.93030951,4 10.5450295,4 C14.1597494,4 17.0900589,6.93030951 17.0900589,10.5450295 C17.0900589,11.9585805 16.6419463,13.2674692 15.8800288,14.337388 L15.8800288,14.337388 Z M10.5450295,5.81806374 C7.93439838,5.81806374 5.81806374,7.93439838 5.81806374,10.5450295 C5.81806374,13.1556606 7.93439838,15.2719952 10.5450295,15.2719952 C13.1556606,15.2719952 15.2719952,13.1556606 15.2719952,10.5450295 C15.2719952,7.93439838 13.1556606,5.81806374 10.5450295,5.81806374 Z" id="Style" fill="nonzero"></path>
    </g>
</svg>