<?xml version="1.0" encoding="UTF-8"?>
<svg width="24px" height="24px" viewBox="0 0 24 24" version="1.1" xmlns="http://www.w3.org/2000/svg" xmlns:xlink="http://www.w3.org/1999/xlink">
    <title>send-copy</title>
    <g id="01---Particles/03---Icon/02---Essentials/05---Communications/Send-Copy" stroke="nonzero" stroke-width="1" fill="nonzero" fill-rule="evenodd">
        <g id="send-(1)" transform="translate(6.000000, 5.000000)" fill="nonzero" fill-rule="nonzero">
            <path d="M15.047125,5.47925 L2.1379375,0.1226875 C1.59409375,-0.103 0.9796875,-0.00371875 0.53453125,0.38165625 C0.089375,0.76709375 -0.0968125,1.36096875 0.0486875,1.9315 L1.19771875,6.4375 L6.82353125,6.4375 C7.08240625,6.4375 7.2923125,6.647375 7.2923125,6.90628125 C7.2923125,7.16515625 7.0824375,7.3750625 6.82353125,7.3750625 L1.19771875,7.3750625 L0.0486875,11.8810313 C-0.0968125,12.4515938 0.08934375,13.0454688 0.53453125,13.430875 C0.98059375,13.8170313 1.5950625,13.9150938 2.13796875,13.6898438 L15.0471563,8.3333125 C15.6349063,8.0894375 16,7.542625 16,6.90628125 C16,6.2699375 15.6349063,5.72309375 15.047125,5.47925 Z" id="Path"></path>
        </g>
    </g>
</svg>