<?xml version="1.0" encoding="UTF-8"?>
<svg width="24px" height="24px" viewBox="0 0 24 24" version="1.1" xmlns="http://www.w3.org/2000/svg" xmlns:xlink="http://www.w3.org/1999/xlink">
    <title>setting</title>
    <g id="01---Particles/03---Icon/02---Essentials/07---Settings/Parameter" stroke="none" stroke-width="1" fill="nonzero" fill-rule="evenodd">
        <path d="M19.3330938,13.7533438 L17.8624375,12.6033438 C17.8810938,12.426 17.8970938,12.2186875 17.8970938,11.9993438 C17.8970938,11.78 17.88175,11.5726875 17.8624375,11.3953438 L19.3344375,10.2446875 C19.6077813,10.0286875 19.6824375,9.64534375 19.5084375,9.32603125 L17.9790938,6.68 C17.81575,6.38134375 17.45775,6.228 17.0944375,6.362 L15.3590938,7.05865625 C15.0264375,6.81865625 14.67775,6.616 14.3170938,6.454 L14.0530938,4.61334375 C14.00975,4.264 13.70575,4 13.3464375,4 L10.2797813,4 C9.9204375,4 9.617125,4.264 9.5744375,4.608 L9.30978125,6.45534375 C8.9604375,6.6126875 8.617125,6.8126875 8.26978125,7.06 L6.52978125,6.36134375 C6.20375,6.23534375 5.81375,6.37665625 5.65175,6.674 L4.1204375,9.32334375 C3.93978125,9.6286875 4.0144375,10.0253438 4.29378125,10.2466875 L5.7644375,11.3966875 C5.74109375,11.6213438 5.72978125,11.8166875 5.72978125,12.0000313 C5.72978125,12.183375 5.741125,12.3786875 5.7644375,12.6040313 L4.2924375,13.7546875 C4.01909375,13.9713437 3.94509375,14.3546875 4.11909375,14.6733437 L5.6484375,17.3193437 C5.81178125,17.6173437 6.1664375,17.772 6.53309375,17.6373437 L8.2684375,16.9406875 C8.6004375,17.1800312 8.94909375,17.3826875 9.30978125,17.5453437 L9.57378125,19.3853437 C9.61709375,19.736 9.9204375,20 10.2804375,20 L13.3470938,20 C13.7064375,20 14.0104375,19.736 14.0530938,19.392 L14.31775,17.5453438 C14.6670938,17.3873437 15.00975,17.188 15.35775,16.94 L17.09775,17.6386563 C17.18175,17.6713125 17.2690938,17.688 17.3590938,17.688 C17.61775,17.688 17.85575,17.5466562 17.97575,17.3266562 L19.51175,14.6666563 C19.6824375,14.3546562 19.60775,13.9713438 19.3330938,13.7533438 Z M11.8130938,14.6666562 C10.3424375,14.6666562 9.1464375,13.4706563 9.1464375,12 C9.1464375,10.5293437 10.3424375,9.33334375 11.8130938,9.33334375 C13.28375,9.33334375 14.47975,10.5293437 14.47975,12 C14.47975,13.4706563 13.28375,14.6666562 11.8130938,14.6666562 Z" id="Shape" fill="nonzero"></path>
    </g>
</svg>