<svg id="Calque_1" data-name="Calque 1" xmlns="http://www.w3.org/2000/svg" viewBox="0 0 260 260"><title>solutions</title><path d="M155.29,264H122.82c-7.62,0-16.29-6.47-16.29-19.53V221.71c0-10.86-5.43-20.57-14.1-28.19-19.53-15.14-29.24-36.86-29.24-60.67,1-41.14,34.67-73.61,74.76-74.76,20.57,0,40.1,7.62,54.19,21.72A77.19,77.19,0,0,1,214.91,134c0,22.76-9.71,44.38-28.19,58.47C177,200.1,171.58,212,171.58,222.86v25c-.1,8.56-7.62,16.18-16.29,16.18ZM139,69.05c-34.67,0-63.9,29.24-64.95,63.9,0,20.57,8.67,40.1,25,52,11.9,9.71,18.38,22.76,18.38,36.86v22.76c0,2.19,0,8.67,5.43,8.67h32.47a5.15,5.15,0,0,0,5.43-5.43v-25c0-14.1,7.62-29.24,19.53-39.05A63.27,63.27,0,0,0,204.05,134a64.46,64.46,0,0,0-19.53-46.57c-11.9-11.9-28.19-18.38-45.53-18.38Z" transform="translate(-9 -4)"/><path d="M166,231.53H111.85a5.43,5.43,0,1,1,0-10.86H166a5.15,5.15,0,0,1,5.43,5.43A5.1,5.1,0,0,1,166,231.53Z" transform="translate(-9 -4)"/><path d="M139,36.47A5.15,5.15,0,0,1,133.57,31V9.43a5.43,5.43,0,1,1,10.86,0V31A5.1,5.1,0,0,1,139,36.47Z" transform="translate(-9 -4)"/><path d="M211.57,66.86c-1,0-3.24,0-4.28-1a5.24,5.24,0,0,1,0-7.62l15.14-15.14a5.39,5.39,0,1,1,7.62,7.62L214.91,65.82c-.1-.1-2.19,1-3.34,1Z" transform="translate(-9 -4)"/><path d="M263.57,139.43H241.85a5.43,5.43,0,1,1,0-10.86h21.72a5.43,5.43,0,1,1,0,10.86Z" transform="translate(-9 -4)"/><path d="M226.71,227.14c-1,0-3.24,0-4.28-1L207.29,211a5.39,5.39,0,0,1,7.62-7.62l15.14,15.14a5.24,5.24,0,0,1,0,7.62c0,1-1.15,1-3.34,1Z" transform="translate(-9 -4)"/><path d="M51.29,227.14c-1,0-3.24,0-4.39-1a5.24,5.24,0,0,1,0-7.62L62,203.33A5.39,5.39,0,0,1,69.67,211L54.53,226.1A4.16,4.16,0,0,1,51.29,227.14Z" transform="translate(-9 -4)"/><path d="M36,139.43H14.43a5.43,5.43,0,1,1,0-10.86H36.15A5.15,5.15,0,0,1,41.58,134,5.24,5.24,0,0,1,36,139.43Z" transform="translate(-9 -4)"/><path d="M66.43,66.86c-1,0-3.24,0-4.28-1L46.9,49.53a5.39,5.39,0,1,1,7.62-7.62L69.67,57a5.24,5.24,0,0,1,0,7.62c-1,1-2.19,2.19-3.24,2.19Z" transform="translate(-9 -4)"/><path d="M182.33,139.43A5.15,5.15,0,0,1,176.9,134c0-20.57-17.33-37.9-37.9-37.9a5.43,5.43,0,1,1,0-10.86A48.62,48.62,0,0,1,187.76,134,5.15,5.15,0,0,1,182.33,139.43Z" transform="translate(-9 -4)"/></svg>