<svg id="Calque_1" data-name="Calque 1" xmlns="http://www.w3.org/2000/svg" viewBox="0 0 277.8 266.14"><title>star</title><path id="a" d="M274.7,130.77a19.92,19.92,0,0,0-11-34L196.39,87a8.79,8.79,0,0,1-6.62-4.81L159.71,21.26a19.93,19.93,0,0,0-35.73,0L93.9,82.2A8.79,8.79,0,0,1,87.28,87L20,96.79a19.92,19.92,0,0,0-11,34L57.64,178.2A8.8,8.8,0,0,1,60.17,186L48.69,253a19.92,19.92,0,0,0,28.9,21l60.15-31.64a8.8,8.8,0,0,1,8.19,0L206.1,274A19.92,19.92,0,0,0,235,253l-11.49-67a8.8,8.8,0,0,1,2.54-7.79l48.66-47.44ZM192,177.3,200.15,225a6.18,6.18,0,0,1-2.48,6.13,6.09,6.09,0,0,1-6.56.49l-42.55-22.55a14.07,14.07,0,0,0-13.12,0L92.89,231.65a6.1,6.1,0,0,1-6.55-.48A6.19,6.19,0,0,1,83.87,225L92,177.3a14.27,14.27,0,0,0-4.05-12.56L53.51,130.92A6.29,6.29,0,0,1,57,120.22l47.58-7a14.08,14.08,0,0,0,10.61-7.77l21.28-43.44a6.21,6.21,0,0,1,11.17,0l21.28,43.44a14.09,14.09,0,0,0,10.61,7.77l47.58,7a6.12,6.12,0,0,1,5,4.28,6.19,6.19,0,0,1-1.57,6.42l-34.43,33.81a14.25,14.25,0,0,0-4,12.57Z" transform="translate(-2.94 -10.16)"/></svg>