<?xml version="1.0" encoding="UTF-8"?>
<svg width="24px" height="24px" viewBox="0 0 24 24" version="1.1" xmlns="http://www.w3.org/2000/svg" xmlns:xlink="http://www.w3.org/1999/xlink">
    <title>superman</title>
    <defs>
        <path d="M13.7801569,7.05808311 C13.8859544,6.7467968 14.2159734,6.58306889 14.5173478,6.69234593 C14.8186919,6.80162297 14.9772367,7.1425273 14.8714089,7.45378234 L14.8714089,7.45378234 L14.1286163,9.63926058 C14.0288445,9.93281362 13.7277426,10.0979489 13.4364817,10.0192282 L13.4364817,10.0192282 L11.4943383,9.49389147 L12.9021954,10.230495 L12.761001,12.2380462 L14.0207598,12.2380462 C14.4778327,12.2380462 14.8031886,12.6997058 14.6612069,13.1494805 L14.6612069,13.1494805 L13.6483491,16.3586413 C13.5335586,16.7223143 13.1543349,16.9241359 12.7991232,16.8045067 C12.4453951,16.6854091 12.2521497,16.2927123 12.367455,15.9273504 L12.367455,15.9273504 L13.0926551,13.629624 L10.9960547,13.629624 L10.1877367,19.4036989 C10.1392285,19.7502328 9.85123776,20 9.52191516,20 C9.10950492,20 8.79583695,19.6228472 8.854398,19.204567 L8.854398,19.204567 L9.71467607,13.0593129 L9.75900563,12.4289839 L8.28108114,17.3814794 C8.19914413,17.6560482 7.89792114,17.7886255 7.64944549,17.6594572 L7.64944549,17.6594572 L5.24753432,16.4109029 C4.99878615,16.2815782 4.92254173,15.952152 5.08780862,15.7206185 C5.12600055,15.6667794 6.30281319,14.0208626 7.60370743,12.2015167 L7.90565464,11.7792347 C8.51210719,10.9310965 9.12836711,10.0692606 9.65468907,9.33320291 L9.90989344,8.97630128 L9.90989344,8.97630128 L10.0310087,8.80692233 C10.4403001,8.23454709 11.0869545,7.89548802 11.7758795,7.89182877 C12.3073194,7.98928362 12.8393347,7.80435084 13.2050233,7.39786152 L13.2050233,7.39786152 L12.868918,8.38673429 L11.7872949,8.33825706 L13.2138952,8.72413575 Z M12.0521216,5.03042168 C12.0819472,5.03042168 12.1118939,5.0315476 12.1420828,5.03379945 C12.8163221,5.08440341 13.3231749,5.68993082 13.2742125,6.3863452 C13.2274303,7.05157778 12.690328,7.55908738 12.0546954,7.55908738 C12.0248699,7.55908738 11.9949535,7.55796145 11.9647343,7.55570961 C11.2905253,7.50510564 10.7836422,6.89954696 10.8326046,6.20316385 C10.8793868,5.53793127 11.4164891,5.03048423 12.0521216,5.03042168 Z M14.9195235,4.30104279 C15.0780077,4.01465187 15.4312513,3.91513283 15.708523,4.07879818 C15.985825,4.24246354 16.0821752,4.607325 15.9236909,4.89374719 L15.9236909,4.89374719 L15.0313769,6.50666254 C14.929213,6.40385955 14.8044301,6.32169848 14.6609949,6.26968711 C14.350143,6.15696975 14.0218802,6.21035725 13.7668035,6.38468759 L13.7668035,6.38468759 Z" id="path-1"></path>
    </defs>
    <g id="01---Particles/03---Icon/04---Others/Superman" stroke="none" stroke-width="1" fill="nonzero" fill-rule="evenodd">
        <mask id="mask-2" fill="nonzero">
            <use xlink:href="#path-1"></use>
        </mask>
        <use id="Shape" fill="nonzero" xlink:href="#path-1"></use>
    </g>
</svg>