<?xml version="1.0" encoding="UTF-8"?>
<svg width="24px" height="24px" viewBox="0 0 24 24" version="1.1" xmlns="http://www.w3.org/2000/svg" xmlns:xlink="http://www.w3.org/1999/xlink">
    <title>text-markup-icon</title>
    <g id="text-markup-icon" stroke="none" stroke-width="1" fill="nonzero" fill-rule="evenodd">
        <g id="Aa" transform="translate(3.500000, 7.000000)" fill="nonzero" fill-rule="nonzero">
            <path d="M7.72791024,7.32857143 L2.25806452,7.32857143 L1.0799439,10 L0,10 L4.48807854,0 L5.51192146,0 L10,10 L8.90603086,10 L7.72791024,7.32857143 Z M7.34922861,6.47142857 L4.99298738,1.1 L2.63674614,6.47142857 L7.34922861,6.47142857 Z" id="A"></path>
            <path d="M13.1020408,2 C14.0362812,2 14.7528345,2.25669782 15.2517007,2.77009346 C15.7505669,3.2834891 16,4.04361371 16,5.05046729 L16,9.92523364 L15.0748299,9.92523364 L15.0748299,8.69906542 C14.8571429,9.10778816 14.537415,9.42679128 14.1156463,9.65607477 C13.6938776,9.88535826 13.1927438,10 12.6122449,10 C11.814059,10 11.1791383,9.79065421 10.707483,9.37196262 C10.2358277,8.95327103 10,8.4 10,7.71214953 C10,7.04423676 10.2199546,6.505919 10.6598639,6.09719626 C11.0997732,5.68847352 11.8004535,5.48411215 12.7619048,5.48411215 L15.0340136,5.48411215 L15.0340136,5.00560748 C15.0340136,4.32772586 14.861678,3.81183801 14.5170068,3.45794393 C14.1723356,3.10404984 13.6689342,2.9271028 13.0068027,2.9271028 C12.553288,2.9271028 12.1179138,3.00934579 11.7006803,3.17383178 C11.2834467,3.33831776 10.9251701,3.56510903 10.6258503,3.85420561 L10.1904762,3.06168224 C10.553288,2.72274143 10.9886621,2.46105919 11.4965986,2.27663551 C12.0045351,2.09221184 12.5396825,2 13.1020408,2 Z M12.7619048,9.16261682 C13.3061224,9.16261682 13.7732426,9.02554517 14.1632653,8.75140187 C14.553288,8.47725857 14.8435374,8.08099688 15.0340136,7.56261682 L15.0340136,6.27663551 L12.7891156,6.27663551 C11.5646259,6.27663551 10.952381,6.74517134 10.952381,7.68224299 C10.952381,8.14080997 11.1111111,8.50218069 11.4285714,8.76635514 C11.7460317,9.0305296 12.1904762,9.16261682 12.7619048,9.16261682 Z" id="a"></path>
        </g>
    </g>
</svg>