<svg id="Calque_1" data-name="Calque 1" xmlns="http://www.w3.org/2000/svg" viewBox="0 0 217.4 260.8"><title>trash</title><path d="M181.23,34.57h46c11.58,0,20.86,8.55,20.86,19.09V68.89c0,4.17-3.76,7.62-8.35,7.62H39c-4.59,0-8.35-3.44-8.35-7.62V53.55c0-10.54,9.39-19.09,20.86-19.09h46V26.85C97.57,14.22,108.83,4,122.6,4h33.49c13.87,0,25,10.22,25,22.85l.1,7.72ZM122.71,19.34c-4.59,0-8.35,3.44-8.35,7.62v7.62h50.18V27c0-4.17-3.76-7.62-8.35-7.62ZM37.17,93.72A2.68,2.68,0,0,1,40,90.9H237.25a2.8,2.8,0,0,1,2.82,2.82l-7.3,146.88c-.73,13.56-12.41,24.2-26.6,24.2h-135c-14.29,0-26-10.64-26.6-24.2Zm145.84,10a8.64,8.64,0,0,0-8.87,8.45V222.45a8.88,8.88,0,0,0,17.73,0V112.18C192,107.49,187.91,103.73,183,103.73Zm-53.31,8.45a8.88,8.88,0,0,1,17.73,0V222.45a8.88,8.88,0,0,1-17.73,0V112.18Zm-35.47-8.45a8.64,8.64,0,0,0-8.87,8.45V222.45a8.88,8.88,0,0,0,17.73,0V112.18A8.64,8.64,0,0,0,94.23,103.73Z" transform="translate(-30.7 -4)"/></svg>