<?xml version="1.0" encoding="UTF-8"?>
<svg width="24px" height="24px" viewBox="0 0 24 24" version="1.1" xmlns="http://www.w3.org/2000/svg" xmlns:xlink="http://www.w3.org/1999/xlink">
    <title>underline</title>
    <g id="01---Particles/03---Icon/02---Essentials/06---Editions/Underline" stroke="none" stroke-width="1" fill="nonzero" fill-rule="evenodd">
        <g id="01---Particles/03---Icon/04---Others/Smiley/1---Glad-Copy-5" transform="translate(4.000000, 4.000000)">
            <g id="underline" transform="translate(3.333333, 2.666667)"></g>
            <path d="M11.3333333,10.6666667 L11.3333333,12 L4,12 L4,10.6666667 L11.3333333,10.6666667 Z M6.6576593,4 L6.6576593,7.86948514 C6.6576593,8.23347575 6.74685937,8.50297049 6.92507698,8.67809729 C7.10332501,8.85325607 7.35525741,8.94084346 7.68072207,8.94084346 C8.00360077,8.94084346 8.24812519,8.8539917 8.42246387,8.68016024 C8.59680255,8.50639274 8.67565882,8.23616238 8.67565882,7.86953312 L8.67565882,7.86953312 L8.67565882,4 L10,4 L10,7.86953312 C10,8.5457487 9.78728277,9.06989773 9.35980999,9.44193224 C8.93224593,9.81403072 8.37337645,10 7.68110235,10 C6.98107041,10 6.41284587,9.81403072 5.98408011,9.44193224 C5.55528392,9.06989773 5.33333333,8.5457487 5.33333333,7.86953312 L5.33333333,7.86953312 L5.33333333,4 L6.6576593,4 Z" id="Combined-Shape" fill="nonzero"></path>
        </g>
    </g>
</svg>