<?xml version="1.0" encoding="UTF-8"?>
<svg width="24px" height="24px" viewBox="0 0 24 24" version="1.1" xmlns="http://www.w3.org/2000/svg" xmlns:xlink="http://www.w3.org/1999/xlink">
    <title>update</title>
    <g id="Update" stroke="none" stroke-width="1" fill="nonzero" fill-rule="evenodd">
        <g id="01---Particles/03---Icon/02---Essentials/03---Actions/Search-Copy-2" transform="translate(7.000000, 6.000000)" fill="nonzero">
            <path d="M9.9385514,7.44874378 C10.2602125,7.44874378 10.5603318,7.61745978 10.7378926,7.89734425 C10.9154046,8.17712674 10.947009,8.53118302 10.8215441,8.84041494 C9.9187193,11.0713826 7.80191089,12.6410253 5.33972591,12.6410253 C3.71591136,12.6410253 2.24318227,11.9582571 1.16843856,10.8537116 L1.16843856,10.8537116 L0.765324183,11.4861735 C0.663818982,11.6455065 0.474217232,11.7163382 0.298732423,11.66055 C0.123516275,11.6047617 0.00403517746,11.4355103 0.00505442195,11.2441271 L0.00505442195,11.2441271 L0.0202525628,7.87992956 C0.0210096997,7.73334526 0.0926934736,7.59708739 0.210635874,7.51768863 C0.328822511,7.43839185 0.477319051,7.42689255 0.60554386,7.48696432 L0.60554386,7.48696432 L3.53019299,8.86055786 C3.69771565,8.93914071 3.79582594,9.12356308 3.77118235,9.31359487 C3.74651434,9.50377964 3.60519839,9.65426504 3.42355879,9.68366349 L3.42355879,9.68366349 L2.89170671,9.76956408 C3.57024797,10.3174258 4.41658056,10.647744 5.33975033,10.647744 C7.01465941,10.647744 8.45138786,9.57670208 9.06242182,8.0569577 C9.21040546,7.68854641 9.55597742,7.44874378 9.9385514,7.44874378 Z M5.33975033,0.217948712 C6.96356488,0.217948712 8.43626955,0.900716899 9.51103768,2.00521135 L9.51103768,2.00521135 L9.91415205,1.37274944 C10.0156817,1.21344197 10.205259,1.14263581 10.3807438,1.19842402 C10.5559355,1.25421224 10.6754411,1.42346368 10.6744218,1.61484683 L10.6744218,1.61484683 L10.6592481,4.97904442 C10.6584665,5.12565422 10.5868072,5.26191208 10.4688404,5.34131085 C10.3506781,5.42058213 10.2021572,5.43213243 10.0739568,5.37203516 L10.0739568,5.37203516 L7.14930767,3.99844162 C6.98178502,3.91985877 6.8836503,3.7354619 6.90831831,3.54540461 C6.93293747,3.35524533 7.07425342,3.20478544 7.25591744,3.17538698 L7.25591744,3.17538698 L7.7877451,3.0894354 C7.10922826,2.54157372 6.26289568,2.21125548 5.33975033,2.21125548 C3.66481682,2.21125548 2.22808837,3.2822974 1.61707884,4.80204178 C1.4690952,5.17045307 1.12352324,5.4102557 0.740949258,5.4102557 C0.419263743,5.4102557 0.119168844,5.2415142 -0.0583675626,4.96165522 C-0.235903969,4.68189824 -0.267508331,4.32781646 -0.14211668,4.01858453 C0.760732514,1.78761692 2.87761419,0.217948712 5.33975033,0.217948712 Z" id="Combined-Shape"></path>
        </g>
    </g>
</svg>