<svg id="Calque_1" data-name="Calque 1" xmlns="http://www.w3.org/2000/svg" viewBox="0 0 236 236.01"><defs><style>.cls-1{fill:none;}</style></defs><title>upgrade</title><path class="cls-1" d="M125.76,232.33l34.11-22.55a4.49,4.49,0,0,0,2-3.43l1.74-22.51A154.89,154.89,0,0,1,121.36,204Z" transform="translate(-5 -11)"/><path class="cls-1" d="M42.22,92.12,19.66,126.24,48,130.64A155.11,155.11,0,0,1,68.16,88.37L45.65,90.1A4.49,4.49,0,0,0,42.22,92.12Z" transform="translate(-5 -11)"/><path class="cls-1" d="M141.31,63A33.71,33.71,0,1,0,189,63,33.51,33.51,0,0,0,141.31,63Z" transform="translate(-5 -11)"/><path class="cls-1" d="M226.92,29.37a4.54,4.54,0,0,0-4.29-4.29c-17.51-1-51.73-.05-84.22,16.76-16.47,8.51-34,23.09-48.08,40a161.47,161.47,0,0,0-20.94,32l68.78,68.78h0a158.62,158.62,0,0,0,32-20.94c16.89-14.09,31.47-31.62,40-48.09C227,81.11,227.87,46.88,226.92,29.37ZM189,110.71a33.74,33.74,0,1,1,9.88-23.85A33.6,33.6,0,0,1,189,110.71Z" transform="translate(-5 -11)"/><path d="M240.72,28.62h0a18.34,18.34,0,0,0-17.34-17.34c-18.91-1-55.93,0-91.32,18.28C114,38.89,94.93,54.71,79.7,73l-.17.21-.16.19-.23.29L44.59,76.31a18.24,18.24,0,0,0-13.91,8.18L7.1,120.17a12.64,12.64,0,0,0,8.61,19.46l29.11,4.51,0,.09-.28,1.6a18.32,18.32,0,0,0,5.14,15.95l40.56,40.56a18.38,18.38,0,0,0,13,5.39,17.8,17.8,0,0,0,3-.25l1.6-.28.09,0,4.51,29.12a12.6,12.6,0,0,0,7.38,9.63,12.73,12.73,0,0,0,5.12,1.09,12.56,12.56,0,0,0,7-2.11l35.66-23.57a18.22,18.22,0,0,0,8.18-13.91l2.67-34.56.67-.56c18.26-15.23,34.09-34.3,43.42-52.36C240.76,84.56,241.75,47.55,240.72,28.62ZM48,130.64l-28.38-4.4L42.22,92.12a4.49,4.49,0,0,1,3.43-2l22.5-1.74A155.11,155.11,0,0,0,48,130.64ZM161.9,206.35a4.49,4.49,0,0,1-2,3.43l-34.11,22.55L121.36,204a154.89,154.89,0,0,0,42.27-20.13Zm48.26-92.76c-8.51,16.47-23.09,34-40,48.09a158.62,158.62,0,0,1-32,20.94h0L69.39,113.83a161.47,161.47,0,0,1,20.94-32c14.09-16.89,31.62-31.47,48.08-40C170.89,25,205.12,24.13,222.63,25.08a4.54,4.54,0,0,1,4.29,4.29C227.87,46.88,227,81.11,210.16,113.59Z" transform="translate(-5 -11)"/><path d="M141.31,63A33.71,33.71,0,1,0,189,63,33.51,33.51,0,0,0,141.31,63Z" transform="translate(-5 -11)"/></svg>