<?xml version="1.0" encoding="UTF-8"?>
<svg width="14px" height="8px" viewBox="0 0 14 8" version="1.1" xmlns="http://www.w3.org/2000/svg" xmlns:xlink="http://www.w3.org/1999/xlink">
    <title>Virtualmixr-icon</title>
    <g id="myHome" stroke="none" stroke-width="1" fill="none" fill-rule="evenodd">
        <g id="RSVP-button" transform="translate(-823.000000, -240.000000)" stroke="#00BFA6">
            <path d="M830.837022,240.5 C831.251235,240.5 831.626235,240.667893 831.897682,240.93934 C832.338403,241.380061 832.506149,242.093758 832.125548,242.805058 L832.125548,242.805058 L834.768875,241.801143 L835.512493,245.981942 L832.277031,245.571113 C832.449476,246.189368 832.235017,246.770945 831.822615,247.130793 C831.559043,247.360777 831.214279,247.5 830.837022,247.5 L830.837022,247.5 L825.959266,247.5 C825.545052,247.5 825.170052,247.332107 824.898605,247.06066 C824.627159,246.789214 824.459266,246.414214 824.459254,246.003393 L824.459254,246.003393 L824.486487,241.989805 C824.489289,241.57759 824.658168,241.205139 824.929403,240.935741 C825.200638,240.666344 825.574228,240.5 825.986453,240.5 L825.986453,240.5 Z" id="Virtualmixr-icon"></path>
        </g>
    </g>
</svg>