<?xml version="1.0" encoding="UTF-8"?>
<svg width="24px" height="24px" viewBox="0 0 24 24" version="1.1" xmlns="http://www.w3.org/2000/svg" xmlns:xlink="http://www.w3.org/1999/xlink">
    <title>write</title>
    <g id="01---Particles/03---Icon/02---Essentials/05---Communications/write" stroke="nonzero" stroke-width="1" fill="nonzero" fill-rule="evenodd">
        <g id="edit" transform="translate(4.000000, 3.000000)" fill="nonzero" fill-rule="nonzero">
            <path d="M14.6058749,10.282985 C14.3881824,10.282985 14.2117499,10.4567869 14.2117499,10.6712335 L14.2117499,14.118456 C14.21098,14.7614926 13.6821443,15.282595 13.0293746,15.2832016 L1.97062536,15.2832016 C1.31785571,15.282595 0.789019911,14.7614926 0.788250146,14.118456 L0.788250146,4.00109312 C0.789019911,3.35820811 1.31785571,2.83710576 1.97062536,2.83634747 L5.47002492,2.83634747 C5.68771746,2.83634747 5.86414999,2.66254556 5.86414999,2.44809892 C5.86414999,2.23380393 5.68771746,2.05985037 5.47002492,2.05985037 L1.97062536,2.05985037 C0.882778601,2.06106365 0.00123164085,2.92946644 0,4.00109312 L0,14.1186076 C0.00123164085,15.1902343 0.882778601,16.0586371 1.97062536,16.0598504 L13.0293746,16.0598504 C14.1172214,16.0586371 14.9987684,15.1902343 15,14.1186076 L15,10.6712335 C15,10.4567869 14.8235674,10.282985 14.6058749,10.282985 Z" id="Path"></path>
            <path d="M14.9815885,0.599010882 C14.262644,-0.119869795 13.0970558,-0.119869795 12.3781113,0.599010882 L5.07968186,7.89679255 C5.02966417,7.9468058 4.99354913,8.00880311 4.97469264,8.07687226 L4.0149281,11.5415289 C3.97545725,11.6835794 4.01556726,11.8356964 4.11975753,11.9400371 C4.22410754,12.0442181 4.37623806,12.0843246 4.5183011,12.045017 L7.98326531,11.0851779 C8.05134049,11.0663231 8.11334327,11.0302113 8.163361,10.980198 L15.4616306,3.68225653 C16.1794565,2.96289648 16.1794565,1.79837045 15.4616306,1.07901036 L14.9815885,0.599010882 Z M5.97105163,8.16267775 L11.9442516,2.18984803 L13.8706522,4.11607764 L7.89729237,10.0889073 L5.97105163,8.16267775 Z M5.58625092,8.93476745 L7.12529397,10.4738337 L4.99642557,11.0636067 L5.58625092,8.93476745 Z M14.4492915,3.5376495 L12.5227312,1.61126012 L12.9567505,1.17743901 C13.3560931,0.778131849 14.0036066,0.778131849 14.4029492,1.17743901 L14.8831511,1.65743849 C15.2818545,2.05722503 15.2818545,2.70420168 14.8831511,3.10382839 L14.4492915,3.5376495 Z" id="Shape"></path>
        </g>
    </g>
</svg>