<?xml version="1.0" encoding="UTF-8"?>
<svg width="24px" height="24px" viewBox="0 0 24 24" version="1.1" xmlns="http://www.w3.org/2000/svg" xmlns:xlink="http://www.w3.org/1999/xlink">
    <title>zoom-in</title>
    <g id="Zoom-in" stroke="none" stroke-width="1" fill="nonzero" fill-rule="evenodd">
        <g id="Group-2-Copy" fill="nonzero">
            <g id="01---Particles/03---Icon/02---Essentials/03---Actions/Search">
                <path d="M15.8800288,14.337388 L19.7231695,18.1814508 C20.0923037,18.5506609 20.0922729,19.1491977 19.7231008,19.5183699 L19.5183699,19.7231008 C19.1491977,20.0922729 18.5506609,20.0923037 18.1814508,19.7231695 L14.337388,15.8800288 C13.2674692,16.6419463 11.9585805,17.0900589 10.5450295,17.0900589 C6.93030951,17.0900589 4,14.1597494 4,10.5450295 C4,6.93030951 6.93030951,4 10.5450295,4 C14.1597494,4 17.0900589,6.93030951 17.0900589,10.5450295 C17.0900589,11.9585805 16.6419463,13.2674692 15.8800288,14.337388 L15.8800288,14.337388 Z M10.5450295,5.81806374 C7.93439838,5.81806374 5.81806374,7.93439838 5.81806374,10.5450295 C5.81806374,13.1556606 7.93439838,15.2719952 10.5450295,15.2719952 C13.1556606,15.2719952 15.2719952,13.1556606 15.2719952,10.5450295 C15.2719952,7.93439838 13.1556606,5.81806374 10.5450295,5.81806374 Z" id="Style"></path>
            </g>
            <g id="01---Particles/03---Icon/02---Essentials/03---Actions/Add" transform="translate(6.500000, 6.500000)">
                <path d="M4.38095238,3.61904762 L6.29662085,3.61904762 C6.37995371,3.61904762 6.44396135,3.63437121 6.497765,3.66314572 C6.55156864,3.69192022 6.59379406,3.73414564 6.62256857,3.78794929 C6.65134307,3.84175294 6.66666667,3.90576058 6.66666667,3.98909343 L6.66666667,4.01090657 C6.66666667,4.09423942 6.65134307,4.15824706 6.62256857,4.21205071 C6.59379406,4.26585436 6.55156864,4.30807978 6.497765,4.33685428 C6.44396135,4.36562879 6.37995371,4.38095238 6.29662085,4.38095238 L4.38095238,4.38095238 L4.38095238,6.29662085 C4.38095238,6.37995371 4.36562879,6.44396135 4.33685428,6.497765 C4.30807978,6.55156864 4.26585436,6.59379406 4.21205071,6.62256857 C4.15824706,6.65134307 4.09423942,6.66666667 4.01090657,6.66666667 L3.98909343,6.66666667 C3.90576058,6.66666667 3.84175294,6.65134307 3.78794929,6.62256857 C3.73414564,6.59379406 3.69192022,6.55156864 3.66314572,6.497765 C3.63437121,6.44396135 3.61904762,6.37995371 3.61904762,6.29662085 L3.61904762,4.38095238 L1.70337915,4.38095238 C1.62004629,4.38095238 1.55603865,4.36562879 1.502235,4.33685428 C1.44843136,4.30807978 1.40620594,4.26585436 1.37743143,4.21205071 C1.34865693,4.15824706 1.33333333,4.09423942 1.33333333,4.01090657 L1.33333333,3.98909343 C1.33333333,3.90576058 1.34865693,3.84175294 1.37743143,3.78794929 C1.40620594,3.73414564 1.44843136,3.69192022 1.502235,3.66314572 C1.55603865,3.63437121 1.62004629,3.61904762 1.70337915,3.61904762 L3.61904762,3.61904762 L3.61904762,1.70337915 C3.61904762,1.62004629 3.63437121,1.55603865 3.66314572,1.502235 C3.69192022,1.44843136 3.73414564,1.40620594 3.78794929,1.37743143 C3.84175294,1.34865693 3.90576058,1.33333333 3.98909343,1.33333333 L4.01090657,1.33333333 C4.09423942,1.33333333 4.15824706,1.34865693 4.21205071,1.37743143 C4.26585436,1.40620594 4.30807978,1.44843136 4.33685428,1.502235 C4.36562879,1.55603865 4.38095238,1.62004629 4.38095238,1.70337915 L4.38095238,3.61904762 Z" id="Style"></path>
            </g>
        </g>
    </g>
</svg>